<svg id="Layer_1" data-name="Layer 1" xmlns="http://www.w3.org/2000/svg" viewBox="0 0 101.6 101">
  <defs>
    <style>
      .cls-2{fill:#202020}
    </style>
  </defs>
  <path d="M5.4 21.6L45.5 1.1a9.8 9.8 0 0 1 9 0l40.1 20.5a9.8 9.8 0 0 1 5.4 8.8v39a9.8 9.8 0 0 1-5.4 8.8L54.5 98.7a9.8 9.8 0 0 1-9 0L5.4 78.2A9.8 9.8 0 0 1 0 69.5V30.4a9.8 9.8 0 0 1 5.4-8.8z" transform="translate(.8 .4)" fill="#89c53f"/>
  <path class="cls-2" d="M5.6 22c-.2 0-.2-.1.2-.3h.4zM8.2 20.2c.5-.1 1.1-.2 1 .1l-1.4.2c-.4.2-.7.5-.6.5-.1 0-.6.4-.9.4a4.8 4.8 0 0 1 2-1l-.1-.2zM48.8-.2h-.3a2.1 2.1 0 0 1 .3 0zM74.5 10.8l-.2-.1.2.1zM79 12.8l-.3-.1a.7.7 0 0 1 .2.1zM48.8-.2l.7-.2-.7.2zM14 17.9a2.5 2.5 0 0 1-.4.1l.3-.1zM37.3 4.7l-.2.1a1.2 1.2 0 0 1-.2 0zM28.8 9h.5a1 1 0 0 0-.5.2V9zM15.5 16.2l-.2.1zM43.4 1.6a.2.2 0 0 1 0-.1zM1 30.6H.8zM5.3 21.6h-.1zM86.9 16.6c-.3-.2-.1-.1 0 0zM85.3 83.9c.8-.6-1.4.4-.3-.4 0 .2 1.3-.3.3.4zM14.2 17.7l.3-.1a3.4 3.4 0 0 1-.3.1zM85 83.5h.2zM100.8 30.6a.7.7 0 0 1 0-.2v.2zM91.3 19.3l.3.1a3.7 3.7 0 0 1-.3-.1zM100.6 38.5a2.3 2.3 0 0 1 0 .5 1.2 1.2 0 0 0 0-.5zM100.6 46.6v-.4zM.8 55.4a1.3 1.3 0 0 0-.1-.4c0 .2.1-1 .1.4zM14 17.8a.4.4 0 0 0 .2 0h-.3zM99 38.8v0zM35.7 92.8l-.2-.1a1 1 0 0 1 .2.1zM99 44a4 4 0 0 1 .1.7.7.7 0 0 1 0 .1zM.7 55z" transform="translate(.8 .4)"/>
  <path class="cls-2" d="M1.1 46.5c0 1.2-.2.6-.4.8 0 1.5.2.7.3 1.2 0 1-.3 1.7-.3 2.3 0 0 .1.2.2 0-.3 1 0 3-.3 4a.4.4 0 0 0 0 .2c0-.1-.2-.2-.3-.1 0 .5-.2 1 0 1.2a1 1 0 0 1 .1-.5v.6c.2.5 0-.8.2-.8a28.1 28.1 0 0 0-.2 3.3c.2.2 0-2 .3-.9l-.1-1.3c.4 1 0-.8.4 0 0 1.9-.2 2 0 3.8-.2.4-.3-.1-.4.3-.2 2.5.6 2 .3 3.8a2.9 2.9 0 0 0-.3 2l.2-.5c0 1.7-.3 1-.2 2.8.1-.3.1-1.3.2-1 .2 1-.2.7-.2 1.6l.2.2a9.1 9.1 0 0 0 1.4 5.2c0-.2-.1-.5.2-.1A7.5 7.5 0 0 0 5 77a18.6 18.6 0 0 0 1.7.8l1.8.8.7.6c.2.1.4.1.2 0 1 .3 0 .1.4.4.5.2.7.2.4 0a36.5 36.5 0 0 0 5.8 3.1l-.3-.2c1.3.6 1.2 1 2.4 1.5L18 84c2.7 1.2 5.6 3 7.8 3.7.2.5 2.7 1.2 2.7 1.7a30 30 0 0 1 3.4 1.3c.6.2.7.6 1.4 1l.1-.1 1 .6h.5l.7.5-.6-.2a8.3 8.3 0 0 0 2.7 1.1l2.3 1.4-.7-.5c1.2.8.4-.1 1.5.7-.2 0 0 .2 0 .2a18.9 18.9 0 0 1 3 1.5l-.1-.3 2.8 1.5a8.4 8.4 0 0 0 3 .8c-.8 0-.6.2 0 .3l.2-.2c.5.1-.6 0 .2.3.8 0 .5-.3.1-.4a8.8 8.8 0 0 0 1 0l-.3-.1c.4.1 1.6-.5 2.2-.4a10.4 10.4 0 0 0 1.2-.6l1.2-.6 2.2-1 1.3-.3c1.2-.7 2.5-1.6 4-2.3 1-.4.3 0 .9-.1 0-.2 1.4-1 .6-.7l4.6-2.1c-.2.1-.5.3-.3.3.4-.2.9-.5.8-.6h-.1c2.6-1 5.6-3.4 7.7-4l2-1c1-.4-.6.2.1-.2 2.4-.9 3.5-1.9 5.5-2.6 1.1-1.2 5-2.6 6.8-3.9v.2c.5-.1.5-.4.9-.6 0 .1-.5.4-.2.3a29.1 29.1 0 0 0 3.2-1.6 8.4 8.4 0 0 0 2.3-2.4 8.8 8.8 0 0 0 1.2-3.1 14 14 0 0 0 .2-3.4c0-1.8.6-1 .3-3.3l-.2.7c.3-3.6 0-7.4.2-10.9a1.3 1.3 0 0 0-.1.6 7.3 7.3 0 0 1 .1-2.8c0-.5-.1-.1-.2-.4 0-.8.2-1.9 0-2.3v.3c0-.4 0-2.2.2-1.7v-3.6c.2-.7-.2-2.3.1-2.5-.3.1-.2-2.3 0-3.1-.2.2-.2-.8-.3-.4 0-1 0-1.9.2-1.7-.3-1.8.3-3.5-.1-4.5v-2a9.5 9.5 0 0 0 0-2 8.8 8.8 0 0 0-1.3-3.3l.5 1.2c.3.6.5 1.2.3 1.2a9.6 9.6 0 0 0-1.1-2.7 6.7 6.7 0 0 0-2-2c-.5-.3.2.3.3.4a7.3 7.3 0 0 0-1.3-.9l-1.5-.8a40.6 40.6 0 0 1-2.6-1.3c-.3-.2-.9-.4-.8-.5l.4.2c.7.1-1.3-1.1-1.3-1.3.4.7-2-.8-1.2.2-.2-.2-.5-.4-.4-.5-.4-.1-.5-.1-.2.1-1.3-.7-.8-.6-2-1.2l.3.3a9.3 9.3 0 0 0-2.2-1.3l.2.2c-1.7-1-2.8-1.9-4.8-2.8.4.6-.7-.2-1 0l-1-.6h.5c-.9-.4-1.6-1-2.4-1.3l.6.4-1.7-.9 1 .4c-.8-.6.3-.2-1-.8a15.3 15.3 0 0 0-1.5-.5 6.6 6.6 0 0 0-1.5-1c-.2 0 0 .4-.1.4-.4-.5-2.1-1.2-2.6-1.7.2.2.1.3 0 .3l-.3-.4H67c-1.3-.6.6 0-1-.7a2.5 2.5 0 0 0 .3.2c-1.6-.7-2.9-1.6-4.3-2.3-.6 0 1.2.7.6.7-2-1-4-2.4-6-3.4l.4.2c-.1-.5-1.6-.6-2.5-1.3l.2.3A11.3 11.3 0 0 0 49.7.3l.3.1a11 11 0 0 0-3 .6c-.4 0-.8.2-.6 0C44 2.7 41.3 3.3 39 4.8l.5-.1-2 1c0-.3.2-.3.6-.6a5.6 5.6 0 0 0-1.4.5c1-.4.1.2-.2.5l-.1-.1c-1 .8-.4-.2-1.7.7h.1a15 15 0 0 0-1.6.7c-.2.3.6-.2.7 0a11.7 11.7 0 0 0-2.4 1l1.2-.6a5.8 5.8 0 0 1-1.3 1l-1.3.7.3-.2c-1.2 0-2 1-3.6 1.4 1.5-.4.3 0 .5.1-.3.3-.8.6-.6.6-.7.1-1 .6-2 .9 0 0-.7.3-.5.4-.8.4.2-.2 0-.2-1.3.4-2.8 1.7-4.8 2.4-1.7.7-2 .6-3.6 1.3-.4.3.5 0 .5 0a11 11 0 0 1-2.1 1.1c.2 0 0 .1-.2.3-.6.3-.5 0-1.2.5a2.7 2.7 0 0 0 .7 0l-2.3.8c-.1.2.5 0 .8-.1a11.8 11.8 0 0 1-2.5 1l.5-.4c-.3.1 0 .2.2.1.7-.2 1-.5 1-.6l-.6.2c.4-.6 2.2-1 3.2-1.6h-.6l1.2-.4c.2-.1.3-.4-.2-.1.7-.6.7-.3 1.3-.8l.7-.3c-.2 0 0-.2-.4 0 1.3-.8 2.2-.9 2.6-1.3 1.8-.9.2.1 1.7-.4l.7-1 .3.2c.2-.1.5-.3.4-.4.8-.2 0 .2.4 0 .9-.6 2.6-1.1 2.6-1.5.5 0-.8.5.3.1 0-.5 1.1-.5 1.9-1-.4-.1-1.1.4-.3-.2.6 0 1.6-.9 2.3-1.2.1.2 1.6-.7 2.8-1.2l3.2-2c.3.2 1.4-.5 2.3-.8-.1-.2-.3-.1-.8 0l.8-.4a3.4 3.4 0 0 0 1-.3h-.3a33.4 33.4 0 0 0 3.5-1.7c.2 0-.8 1 .6.3 0 0 0-.3-.4-.1a3.1 3.1 0 0 0 .7-.3l-.6.1c.6-.4.4 0 .8-.3 0-.1.4-.3.2-.3a3.8 3.8 0 0 1-.6.3 6.7 6.7 0 0 0 1.4-1c0 .2 0 .2.5 0 1-.5.2-.3.8-.6.3 0 1-.5 1-.3a1.1 1.1 0 0 0 .5-.4l1.6-.4h.6-.1a11.1 11.1 0 0 1 6.1 1V.6c1 .6 2.4 1.2 3 1.7.4.2.8.3.7.1a10.2 10.2 0 0 0 2 1.1c-.7-.5.4 0-.7-.5a9.7 9.7 0 0 1 2.4 1.2c-.3-.3.9.2 1.3.5l-.8-.2 1.6.8-.2-.4c2.3.8 3.6 2.4 5.4 2.8.5.4-1.2-.5-.7 0l2.4.8c1.4.5 1.1 1 2.5 1.6-.2 0-.4 0 .6.7 1 .4 1.3.3.7-.1l-.3-.1c-.3-.2-.7-.5-.3-.4l.1.2 1.6.6c.7.4.3.2-.3 0 1.3.5 2 1 3.3 1.6h-.3c2 .9.8.6 2 1.3.8.2 0-.4 1.2.3.8.3.2 0 0-.3a16 16 0 0 0 2.9 1.3l-.6-.3a10.7 10.7 0 0 0 1 .5h-.5l.7.2c.3.3-.4.1.3.6.5.2 1.4.9 1.7.7-1.6-.7.3 0-1-.8a6.4 6.4 0 0 0 .9.5l-.1-.1c1.5.5.5.5 2 1.3 0-.2.5 0 .7.1-.6-.3-.3 0 .2.4a9.4 9.4 0 0 1 1.5.9l-.6-.3a5.4 5.4 0 0 0 1.3.9c0-.1-.6-.4-.3-.3.6.5 1.8.6 2.7 1.3.6.2.2-.2.6 0 1.2.8 1.5.6 2.5 1.7-.4-.2-.4-.3.2.6a10.4 10.4 0 0 0-1.8-1.6 9.6 9.6 0 0 1 1.1 1 9.5 9.5 0 0 0-1.5-1.1c.5.5.5.4.1.3 1 .4 1.5 1.3 2.3 2l.3-.3a6 6 0 0 1 1.4 2.1 18.8 18.8 0 0 1 .8 2.7l-.2-.6c0 .3.3 1.3.3 2l.3.7c-.1 0 0 1.6-.3 1.8l.2 1c0 1.6-.4 1.9-.4 3.5.2-.5.3.3.4-.8v1c0 .3-.3 1.5-.1 2a1.9 1.9 0 0 0-.2 1s0 1-.2.4c.4 1.7 0 4.7.3 6.2V50c.1 1.5-.4 1-.3 2.6.2.9.1-.9.2-.3.5.2 0 2 .2 3.2v-.3c.2.9-.1 2.1 0 3.6 0 0 0-.1 0 0a29.5 29.5 0 0 0-.4 4.2c.2-.4.1-.6.3-.4 0 .6-.3-.2-.4 1 .1.5.2 1.4.4 1.5v-1.2a7.3 7.3 0 0 1 0 2.1h.2c0 1.7-.3 1.8-.3 3.7l-.1-.2a2.3 2.3 0 0 0-.1 1 1.7 1.7 0 0 1-.1 1l.1.3a10 10 0 0 1-.6 1.6 13.5 13.5 0 0 1-1.2 1.8 7.9 7.9 0 0 0 1.8-2.7 8.2 8.2 0 0 1-.6 1.4 3.8 3.8 0 0 1-.7 1 3.2 3.2 0 0 0 .5-.7c-.6.7-1.3 1.6-2.3 2.5.3.2-.4.8-1.3 1.5a15.2 15.2 0 0 0-2.4 1.5c-2.2 1-4.2 2.2-6.7 3.5.7-.8-.8.4-.8-.1a4 4 0 0 0-.9.4l-1.6 1.2c-.4.3.6-.2.6-.1-1.3.7-.5.4-1.3 1 .1-.3-.5 0-1.2.4l1-.7c-2 .7-1.5 1.1-3.4 1.8l.7-.1a29.7 29.7 0 0 1-4.5 1.9c-.1.1-.3.3.1.1-2.2 1.2-5 2.2-6.7 3.3h.2a4.5 4.5 0 0 0-1.2.5s.2 0 0 .2a9.2 9.2 0 0 0-1.7.7l.5-.1a47.3 47.3 0 0 1-5.3 2.2c.2.3-1.5 1.3-2.3 1.7l-3.4 1.7a17.3 17.3 0 0 1-1.7.6 12.5 12.5 0 0 1-2 .5 7.7 7.7 0 0 1-3.9.1 11 11 0 0 1-2.3-.7l-2-.9c.4.1 0-.2-.4-.5-.5-.2-1.4-1-1.4-.6h.2a7.8 7.8 0 0 1-2.5-1v-.4c-2.5-.7-5.9-3.2-7.3-3.4l-1.7-1-.1.1-4.2-2.1.3.3c-1-.5-1-1.2-2-1.7l-.5.1a49.5 49.5 0 0 1-5.5-2.8l.3.3c-.9-.5-3.5-1.6-3-1.8-.1.3-1.9-1-2.8-1.5v.2a7.6 7.6 0 0 0-1.9-1.4c-.2-.1-.3 0 .1.2-1-.4-.6-.6-1.8-1l.4.3a3.8 3.8 0 0 1-1.4-1 5.3 5.3 0 0 0-2-.7 2.7 2.7 0 0 0-1.2-.8l.2.2a6.2 6.2 0 0 1-1.9-1.2l-1.3-1.2-.3-.1A8.9 8.9 0 0 0 4 78c-.1.2-1.1-.6-.5.2a12.5 12.5 0 0 1-1.2-1.4L1 75a.7.7 0 0 0-.2 0 2.9 2.9 0 0 1-.3-.6 6 6 0 0 1-.5-1 5 5 0 0 1-.7-1.9c.2 0 0-.7.4 0v.5l.1.2a10.9 10.9 0 0 0 .5 1.4 7 7 0 0 0-.5-1.6l.2-.9a19 19 0 0 1-.8-2.5 29.5 29.5 0 0 1 .4-5.3 1.1 1.1 0 0 0-.1-.7 6.9 6.9 0 0 1-.1.8c0-1 0-3 .3-3.2-.1-1.3-.2.7-.2-1v.2C-1 56 0 53.9-.6 50a1.2 1.2 0 0 0 .1.5c-.2-4.3.3-8.9-.1-13.2a5.8 5.8 0 0 1 .2-2l-.2-.3.2-1.3a10.4 10.4 0 0 0-.1-2.5 6 6 0 0 1 .1-2.9l.1.3a8.3 8.3 0 0 1 .4-1.6l.3-.8a1 1 0 0 0 .3-.5v-.1A10.7 10.7 0 0 1 2 24c.5-.7.4-.7.3-.8 0 0 0-.3.9-1 .7-.6 2.3-1.2 2-1-.3.2-.8.6-.7.7l.7-.4c.3.3.9.3-.5 1.4a10 10 0 0 0-1 .6l-.2.4a8.7 8.7 0 0 1 .7-.7 3.3 3.3 0 0 1-1 .9 1 1 0 0 1-.2.5 9.3 9.3 0 0 0-1 .7c0 .2.5-.3.2.4-.4.5 0-.6-.6.2-.1.6 0 .5-.3 1 0 .2.1 0 .3-.2-.4.5-.6 1.5-.8 1.8 0 .6-.2 2 0 2a8.8 8.8 0 0 0-.2 1.8c.4-1.1 0 2.2.5 2-.4.8-.2 2.9-.4 4.3a1 1 0 0 0 0-.3A11.8 11.8 0 0 0 1 40c-.3 0-.4 1.3-.5 2 .2 1 .3-.6.5-.3-.2 0-.2 1.8-.4 1.4.2.8.1.7.3 1-.3.2 0 .8-.2 1.4.1 1.1.3.3.2 1.5.1.6.2-.5.2-.5zm1 28.2l-.2-.5.3.5zm1.6 1.7a6.9 6.9 0 0 1-.7-.7c-.1 0-.2.1 0 .3l.7.4zm-4-3.5c.1.4.2.5.3.5a5.6 5.6 0 0 1-.2-.7.4.4 0 0 0 0 .2zM-.2 72V72.2zM48.4-.1z" transform="translate(.8 .4)"/>
  <path class="cls-2" d="M34.2 91.9l-.2-.1h.2z"/>
  <path class="cls-2" d="M36.6 6.1a.5.5 0 0 1-.2.1.6.6 0 0 1 .2-.1zM31.5 8.8l-.7.4.7-.4zM27.5 10.9zM90.4 20.3l.2.1c.3.2 0 0-.2 0zM72 10.4l.5.3c-.3-.1-.6-.2-.5-.3zM99 38.7v.1zM73.4 11.2a4.8 4.8 0 0 1-.9-.5 7.4 7.4 0 0 1 .9.5zM10.5 19.7l-.2.1zM10.3 19.8H10a.6.6 0 0 1 .3 0zM9.6 20l.4-.1a1.3 1.3 0 0 1-.4.2zM15.7 17zM17.3 16.2a12.9 12.9 0 0 1-1.5.8c.2 0 1-.8 1.5-.8zM23.5 12l-1.3.7c.2-.2.4-.4-.2-.1 1.6-1-.2.3 1.5-.6zM27.6 9.8c-.8.3 0-.1-.1-.2.4-.1.6-.2 0 .2zM58.5 2.6v-.2c.5.3 0 .1 0 .2z" transform="translate(.8 .4)"/>
  <path class="cls-2" d="M64.6 6.7l-.6-.1-.2-.3.8.4zM68.5 7.3l-.2-.1.9.5-.7-.4z"/>
  <path class="cls-2" d="M100.7 45.2l-.2-.2c0-.4.3-.5.2.2zM100.5 69.5a2.5 2.5 0 0 1 0 1.4v-1.4z" transform="translate(.8 .4)"/>
  <path class="cls-2" d="M39.1 96.4l.4.3-.8-.5.4.2z"/>
  <g>
    <path d="M24 25.6H35a2 2 0 0 0 1-.3 129.2 129.2 0 0 0 6.6-4.5 203 203 0 0 1 6-2.8l3.2-1 3-1c1.8-.5 1.7-.2 3.3-.4l3.1-.4 4.3.4 4 .4c2.3.2 1.7.4 3.4.8l3.3.8a300.3 300.3 0 0 0 6.4 2.8l6 4.2a2 2 0 0 1 .6.6l2.3 3.7a2.1 2.1 0 0 1 .3.7l.3 1.6 1.2 7.2v6.4c0 1.7-.5 2.8-1.1 5.8a2.1 2.1 0 0 1-.2.6L90 54.5l-2.6 3a2 2 0 0 1-.4.4 247 247 0 0 0-8 5.9 62.8 62.8 0 0 0-3.5 4.5 2.1 2.1 0 0 0-.3.6l-.2 1.2v4a2.1 2.1 0 0 0 .5 1.5 5.2 5.2 0 0 1 .8 1c.1.3-.4.4-1.2.4h-1.7a22.3 22.3 0 0 0-4.9 1.7l-1.8.9c-.2 0-.3-.1-.2-.4a2 2 0 0 0-2-2.4h-1.2l-1.5.3c-.1 0-1.3-.2-1.3-.5a1.3 1.3 0 0 1 .4-1l.2-.2a1.3 1.3 0 0 1 .4-.3l1-.4a2 2 0 0 1 .9-.3h1.8l1-.2 1-.2 2.4-1a2 2 0 0 0 .7-.5l.4-.4a2.1 2.1 0 0 0 .6-1.1l.6-2.9a2.1 2.1 0 0 0-.1-1l-.9-2.6a2 2 0 0 0-.5-.9l-1.2-1.2a2 2 0 0 0-1-.6l-2.1-.5a2 2 0 0 0-1 0H65a2 2 0 0 0-1.6 1.3l-.7 2a281.1 281.1 0 0 0-1.1 3 2.1 2.1 0 0 0-.1.7V70a2.1 2.1 0 0 0 .2 1 2.7 2.7 0 0 1 .4 1.5c-.1.2-1.4.3-2.8.1a2 2 0 0 0-1.2.2l-.6.3a2 2 0 0 0-.7.6 17 17 0 0 1-2 2.2c-.3.1-.4-.5-.2-1.4a1.2 1.2 0 0 0-1.4-1.3 2.4 2.4 0 0 0-.8.3 225 225 0 0 0-2.4 1.7c-.4.3-.6-.5-.5-1.7a2.1 2.1 0 0 1 .4-1l.9-1.1 1.6-1.4a2 2 0 0 1 .9-.4 45.3 45.3 0 0 1 2.4-.3 2 2 0 0 0 2-1.9l.2-1.7.7-3.7a3.4 3.4 0 0 0 .1-.7 2 2 0 0 0-1.6-2l-2-.4-2.3-.8a59.4 59.4 0 0 1-6.7-2.8 109.9 109.9 0 0 1-7.1-5.2 136 136 0 0 1-5-6 2 2 0 0 0-2.7-.7l-.2.2-1.5.6-3.9 1.7a2 2 0 0 1-.5.1l-7.3.8a2 2 0 0 0-1.3.6l-1.8 1.9-3.8 5.8-1 1.8-.5 1a707.1 707.1 0 0 0-2 5.3l-1.6 6.1c-.3 1.3-.9 2.4-1.2 2.4s-.6-1-.6-2.3V67l.6-3.2.6-2.9 1-3 1-3 1.4-2.7 1.3-2.5 3.4-4.6a2.1 2.1 0 0 0 .3-.6l.2-.5a2.1 2.1 0 0 0 0-.8l-.1-2.5c-.2-2.8-.3-5.4-.2-5.8a20.9 20.9 0 0 1 .9-3 10 10 0 0 1 1.6-2.5 17.7 17.7 0 0 1 3-2.4l1.6-.6 1.7-.4 1.8-.3z" transform="translate(.8 .4)" fill="#fff"/>
    <path class="cls-2" d="M24 26.1c-.1 0 0-.2.5-.2l.4.3zM27.5 25.7c.6 0 1.3.3 1 .5-.7-.2-.8-.1-1.5-.4-.5 0-.8 0-.8.2l-1-.1a5.8 5.8 0 0 1 2.4 0c.1-.1 0-.2 0-.2zM75.3 17H75a2.5 2.5 0 0 1 .3 0zM93.7 39.4v-.3.3zM94 44.8l-.1-.3a1 1 0 0 1 0 .3zM75.3 17l.9.2-.9-.1zM34.5 26.2a3 3 0 0 1-.5 0h.4zM61.7 14.7h-.3a1.7 1.7 0 0 1-.2 0zM51.2 16.6c.2-.1.3 0 .4.1a1.2 1.2 0 0 0-.5 0v-.1zM36.5 24.7l-.2.1zM69.3 15.4zM15.2 32.3zM24 25.6H24a.3.3 0 0 1 0-.1zM91.2 54.5c.1-.2 0-.1 0 0zM60.2 73.4c1 0-1.7-.4-.1-.4-.2 0 1.4.3 0 .4zM34.7 26.2a2.8 2.8 0 0 0 .5 0 2 2 0 0 1-.5 0zM60 73h.2zM76 70a.6.6 0 0 1 0-.2v.2zM87 58.7l-.4.3.3-.3zM75.1 77.6a2.6 2.6 0 0 1-.6 0 .6.6 0 0 1 .1 0 1.3 1.3 0 0 0 .5 0zM66 79.7a.8.8 0 0 0 .6.4.7.7 0 0 0 .4 0l.2-.1H67a.5.5 0 0 1-.3.1.7.7 0 0 1-.4-.1.8.8 0 0 1-.3-.3zM7.1 57.5a1.5 1.5 0 0 0 0-.4c0 .2.5-1 0 .4zM34.5 26.1a.4.4 0 0 0 .2 0h-.3zM74.7 76a9.8 9.8 0 0 0-1.5.2 7.4 7.4 0 0 1 1.5-.1zM37 46.6l-.2-.3a1.2 1.2 0 0 1 .1.3zM68.8 77.5a5.5 5.5 0 0 1-.7.5.7.7 0 0 1-.1 0zM7 57v.1z" transform="translate(.8 .4)"/>
    <path class="cls-2" d="M11.7 49c-.8 1.2-.6.5-1 .6a2.2 2.2 0 0 0-.3.7c-.1.1-.1.2 0 .2v.4l-1.4 2v.1A13.8 13.8 0 0 0 8 55c-.4.7-.6 1.5-1 2a.4.4 0 0 0 0 .2c0-.2 0-.3-.2-.3-.2.6-.5 1-.4 1.3a1.1 1.1 0 0 1 .3-.5l-.3.6c0 .6.4-.8.5-.8a32.4 32.4 0 0 0-1.3 3.4c.2.3.8-2 .6-.8l.4-1.4c0 1.1.2-.9.3.2a21.3 21.3 0 0 0-1.1 3.9c-.3.4-.2-.2-.4.2-.8 2.7.2 2.2-.5 4.1a3.2 3.2 0 0 0-.3 2.1l.3-.5a5.2 5.2 0 0 1-.2 1.5 1.4 1.4 0 0 0 0 .4 1.7 1.7 0 0 0 0 .4 1 1 0 0 0 .2.2l-.1.1a1 1 0 0 0-.2.2A1.4 1.4 0 0 1 5 71v-.4-.3l.1.5a.4.4 0 0 1 0 .1v.1l-.2.1-.2.2s0 .1 0 0a.7.7 0 0 0-.1-.2l-.1-.1a.4.4 0 0 0 .1-.2l-.1-.3a16 16 0 0 0 1-2.7l1-3.2c-.1.1-.3.5-.2 0l1-3.7 1.4-3.6v-.1l.5-1 .7-1c.1-.1.2-.4 0-.1.4-1 .1 0 .5-.4.3-.5.3-.8 0-.5a66.6 66.6 0 0 0 3.3-4.6l.5-.8a7.7 7.7 0 0 1 .5-.6l-.4.2a5.6 5.6 0 0 1 1.3-1 5 5 0 0 0 .6-.5 4.7 4.7 0 0 1 .8-.7 2.7 2.7 0 0 0-.3.2 2.6 2.6 0 0 1 .7-.4 4.4 4.4 0 0 1 .7 0l1.3-.2 2.5-.2 2.4-.3h.5l.3-.1.2-.1a4.7 4.7 0 0 0 .7-.4c.6 0 3-1.4 3.4-1.1l1.4-1 .3-.2a2.7 2.7 0 0 1 .6-.2 2.9 2.9 0 0 1 2 .2 2 2 0 0 1 1 .9 7.4 7.4 0 0 0 .4 1l.2-.1.5 1a4 4 0 0 0 .6.4l.5.6-.6-.3a9.2 9.2 0 0 0 2.3 2.1l.9 1.2 1 1c.1-.1-.3-.4-.5-.7 1 1.1.3 0 1.3 1-.2 0 0 .2 0 .2l3 2.2-.1-.3 1.4 1a9 9 0 0 0 1.5.9l3.3 1.5c-.8-.3-.7 0 0 .4l.3-.1c.4.3-.8-.2 0 .3 1 .3.8 0 .3-.3l1 .5-.2-.3c.4.3 2 .4 2.5.9h.1a26.6 26.6 0 0 0 2.9.7 3 3 0 0 1 2.4 2.9c-.2 0-.3 1-.6 1.6l-.3 2.4a11.7 11.7 0 0 0-.1 1.2v.7l-.2.7a2.2 2.2 0 0 1-.3.8l-.2.1-.3.2s-.3.6-.8.8c-.4.2-.7.4 0 .2a2.9 2.9 0 0 1-1 .2H55a4.7 4.7 0 0 0-1 .2h-.7a1.6 1.6 0 0 0-.4.2 1.4 1.4 0 0 0-.2 0l-.3.3-.8.6.3-.5c-.4.3-.8.8-.7.8h.1a3.2 3.2 0 0 0-.8.8l-.3.4a1.3 1.3 0 0 0-.2.5 4.3 4.3 0 0 0 0 1 1.5 1.5 0 0 0 0 .3l-.2.2c-.3.1-.2.3-.2 0a.6.6 0 0 0-.2-.2l-.1-.2.2-.1a15.2 15.2 0 0 1 2-1.5 3.8 3.8 0 0 1 .7-.4 2.8 2.8 0 0 1 .7-.2 1.9 1.9 0 0 1 1.6.6l-.1-.2a2 2 0 0 1 .7 2 5.3 5.3 0 0 0 0 .5l-.1.3a1.9 1.9 0 0 0-.2.2l-.3.1-.1-.2a1.7 1.7 0 0 0-.2-.2v-.1l.1.2a2.7 2.7 0 0 1 .2.3c0 .1 0 0 .1 0a1.7 1.7 0 0 1 .4-.2c.1 0 0 0 0 0a2.2 2.2 0 0 0-.3.1l-.2.2-.1-.3a1.7 1.7 0 0 0-.2-.3l-.1-.1.2-.2a6.7 6.7 0 0 0 1-1l.5-.5.3-.3a3 3 0 0 1 .3-.4 2.8 2.8 0 0 1 .5-.3l.3-.2.4-.2a2.8 2.8 0 0 1 .5-.2 2.7 2.7 0 0 1 1-.1l.9.1a7 7 0 0 1 .7 0 4.8 4.8 0 0 0 .7-.2 3.9 3.9 0 0 0 .2.6 1.2 1.2 0 0 0 .1.1h.1-.1a.4.4 0 0 0-.1 0 2 2 0 0 0-.5 0H61v-.1a2.4 2.4 0 0 0 0-.4 4.5 4.5 0 0 0-.2-.4l-.2-.3a3 3 0 0 1-.1-.5 3.3 3.3 0 0 1 0-.8v-.6a10.7 10.7 0 0 1 0-1.4 3.2 3.2 0 0 1 .1-.4V67l.2-.5.3-1v.2c.4-.6.2-.8.4-1.2 0 0-.2.6 0 .3l.8-1.8.2-.5v-.2a3.3 3.3 0 0 1 .2-.4 3 3 0 0 1 1.6-1.3 4 4 0 0 1 .6-.2h.2a3 3 0 0 1 1 0l2.1.4a3.5 3.5 0 0 1 1.3.5 3.3 3.3 0 0 1 .5.4l.4.3.7.8a3.3 3.3 0 0 1 .5.5 3.1 3.1 0 0 1 .4.6l.7 2 .1.5.1.2a3.3 3.3 0 0 1 .1.4 3.2 3.2 0 0 1 .1.7 4 4 0 0 1 0 .7 3.3 3.3 0 0 1-.6 1.5 2.2 2.2 0 0 0-.3.7 5.5 5.5 0 0 0-.1.5 3.3 3.3 0 0 1-.4 1 3 3 0 0 0 .6-.8 3.2 3.2 0 0 1-.5 1 3.1 3.1 0 0 1-.3.4l-.3.2a4 4 0 0 1-.8.6 6.4 6.4 0 0 1-.8.4l-1.4.6c-.3 0-.5.2-.8.3l-.8.2a9.1 9.1 0 0 1-1.6.2h-1.6a2 2 0 0 0-1 .4l-.3.1h-.2a.2.2 0 0 1 0 .1l-.4.4a1 1 0 0 0 .4-.3s0 .2-.2.2v.2a.6.6 0 0 0-.1.1h-.7a.5.5 0 0 0 .2 0 1.3 1.3 0 0 0 .1-.3 1.6 1.6 0 0 1 0-.1h.1a1.2 1.2 0 0 0 .2 0l.3.2c.6-.1.1-.2.5-.3a4.3 4.3 0 0 1 1.5 0H65l-.6-.2a3.4 3.4 0 0 1 2 .8c.5.4.7 1 .4.7a2.7 2.7 0 0 1 .5 1.4v.6h-.2a.7.7 0 0 0-.4 0v.1l-.2-.6A14.3 14.3 0 0 0 68 78a6.8 6.8 0 0 0 1.5-.7 1.6 1.6 0 0 1 1.2-.3s.6-.4 1.4-.5l1.2-.3a8.6 8.6 0 0 1 1 0c-.3 0 .9 0 .5-.1H75.8s0-.2.1 0l.4.6-.7.3h.1l-.4-.5-.3-.2a2.7 2.7 0 0 1-.3-.4 2.8 2.8 0 0 1-.5-1.8 5.1 5.1 0 0 0-.1-2.2v-1.2l.1-.6a6 6 0 0 1 .2-.6 6.5 6.5 0 0 1 .4-1.3 2.9 2.9 0 0 1 .3-.5l.3-.5.6-1 .8-.8 1.4-1.6c-.3-.2-2 2.4-2.3 2.1l2.5-2.5 2.8-2.2c.6-.4-.4.1-.6.2l3.2-2.2 1.6-1 .7-.5.7-.5-.4.2a3.7 3.7 0 0 0 .5-.3l.2-.2a1.2 1.2 0 0 1-.3.3c0 .2.2.2.7-.2a9.7 9.7 0 0 1 1-.9c-.9.4 1.4-1.8.2-1.2l.5-.3c.3-.4.3-.5 0-.2a3.7 3.7 0 0 0 .5-.7l.3-.4a5.4 5.4 0 0 0 .7-1l-.4.3a14.4 14.4 0 0 0 1.1-1.5 1.4 1.4 0 0 0 .2-.7l-.1.2a60.4 60.4 0 0 0 1.3-6c-.3.7 0-.7-.3-.9v-1.3l.2.6c0-1.2.2-2.2 0-3.1v.8-2l.1 1.1c.1-1.2.4.1.3-1.4 0 .3-.2-1.1-.5-1.7a8 8 0 0 0-.2-2c-.1-.2-.3.3-.3.1 0-.6-.4-2.6-.3-3.3 0 .2-.2.2-.2.2v-.5c0-.5 0-.6-.2-.5v-.6h.1a2.3 2.3 0 0 0-.2-.7v.3a2 2 0 0 0-.1-.5l-.4-.6-.7-1.2-1.4-2.2c-.2 0 0 .1.1.5l.2.4-.5-.7a2.2 2.2 0 0 0-.6-.6l-1.5-1.1-3-2.3.4.3c-.1-.5-1.6-1-2.6-1.5l.2.2c-1.6-.6-3-1.4-5.3-2.5l.2.2a3.8 3.8 0 0 0-.7-.2l-1-.2-1.8-.4c-.2-.2-.8-.3-.4-.4-1.7 0-3.1-.6-4.6-.7a19.4 19.4 0 0 0-4.4-.4c.3 0 .8.2.5.2l-2.4-.3c.2-.2.3-.1.8-.2a4.2 4.2 0 0 0-.6-.2 2.3 2.3 0 0 0-1 0c.6 0 .6 0 .4.1l-.8.3s-.1-.1 0-.2c-1.3.5-.3-.3-2 .1v.1a16.6 16.6 0 0 0-2 .1c-.2.3.8 0 .9.2a12.2 12.2 0 0 1-1.5 0 2.4 2.4 0 0 0-1.4.3 6.4 6.4 0 0 1 1.5-.2l-1 .3-.8.3h.1l-1.5.6.3-.2c-1.3-.1-2.4.7-4 .9 1.6-.2.2 0 .4.2l-.6.3-.1.2c-.8.1-1.2.7-2.3.9 0 0-.7.4-.5.4-1 .4.2-.2 0-.2a14 14 0 0 0-2.4 1.2l-.7.4-.6.4a11 11 0 0 1-1.4.9c-1.7 1-2.2 1-3.8 2-.4.4.6-.2.6-.2a12.9 12.9 0 0 1-1.1.9 2.3 2.3 0 0 1-1.3.4c.2 0 0 .2-.3.2-.8 0-.6-.2-1.5-.1a3.2 3.2 0 0 0 .7.3l-2.7-.3c-.2.1.6.2.9.3a14.5 14.5 0 0 1-3-.3l.7-.1c-.4 0-.2.2 0 .2 1 .1 1.3 0 1.4-.1h-.7c.7-.5 2.7 0 4 0l-.6-.3a6.3 6.3 0 0 0 1.4.1c.3-.1.4-.3-.2-.2a8.1 8.1 0 0 0 .7-.3 2 2 0 0 0 .7-.5l.7-.4c-.1 0 0-.3-.4 0 1.3-1 2.3-1.3 2.7-1.8 1.9-1.1.2.1 1.8-.6l.7-1.1h.2c.2-.1.7-.3.5-.4 1-.2 0 .2.5 0 1-.6 2.9-1.2 3-1.6.4 0-1 .5.2.1.1-.4 1.3-.5 2.2-1-.4-.2-1.3.4-.4-.2.7 0 2-.7 2.8-1 .1.3 1.9-.4 3.3-.8l.4-.2 1.1-.2 2.6-.4c.3.2 1.7-.1 2.7-.1 0-.2-.2-.2-.8-.2a3.6 3.6 0 0 1 1 0 4.4 4.4 0 0 0 1.2.2l-.3-.2 4.3.5c.1.1-1.3.3.4.6 0 0 .2-.2-.3-.3a3.8 3.8 0 0 0 .8.1l-.6-.2c.7 0 .3.1 1 .2 0-.1.4 0 .3-.2a4.7 4.7 0 0 1-.7 0 8.5 8.5 0 0 0 1.8 0l.4.2c1.3.3.5 0 1.3 0 .2.2 1 .3 1 .5a1 1 0 0 0 .7 0c.6.2 3 .8 2.2.8h-.1l1.7.5 1.5.7 3.2 1.3.9.4.5.2a4.9 4.9 0 0 1 .4.3 15.4 15.4 0 0 1 1.4 1.1c.3.2.8.4.7.2a12.7 12.7 0 0 0 2.1 1.5l-.8-.6a12 12 0 0 1 2.5 1.7c-.2-.2 0-.2.4.2a5 5 0 0 1 .8 1l-.6-.7 1 1.7V26a12.7 12.7 0 0 1 1 1.5l.5.8a2.9 2.9 0 0 1 .3 1 10.3 10.3 0 0 0 .6 3.2c0 .7-.3-1.4-.4-.8.2 1.2.8 2.4.8 2.8.4 1.6 0 1.6.3 3.3-.1-.2-.3-.4-.3.9 0 1.2.4 1.5.5.7V39v-.5.2c0 .6 0 2.3.2 1.9 0 1-.1.4-.2-.3.2 1.6 0 2.5.1 4.1 0-.2-.1-.5-.1-.2a3.3 3.3 0 0 1-.1 1.2 1.5 1.5 0 0 1-.2.4 2.4 2.4 0 0 0-.3 1c0 .9.3-.3 0 1.3-.2 1 .1.2.3-.2a10.8 10.8 0 0 0-.4 2l-.1 1a2.8 2.8 0 0 1-.2.4 3.9 3.9 0 0 1-.1.4 3 3 0 0 0 .4-1 3.6 3.6 0 0 1-.3 1l-.3.4v-.4l-.3.8c-.3.3 0-.5-.6.2-.3.6-1 1.6-1 2 1-1.8.2.2 1-1.2a8.3 8.3 0 0 0-.6 1c0 .1 0 0 .2 0l-.3.4a3 3 0 0 1-.2.3 1.3 1.3 0 0 1-.4.3 3.2 3.2 0 0 0-1 1c.2-.2-.1.4-.4.7.5-.6.1-.5-.4 0l-.5.6a2.9 2.9 0 0 1-.4.4l-.7.4.6-.5a9.7 9.7 0 0 0-1.5.9l.4-.2c-.8.4-1.6 1.4-2.7 2-.4.4 0 .2-.3.6a28.4 28.4 0 0 0-2.5 1.8c.3-.4.4-.4-.6.2l2-1.5-1.4.8 1.7-1.2c-.7.4-.6.4-.4 0-.7.8-1.7 1.2-2.5 2l.3.3-.4.5-.4.4-.9 1-1 .9a6.6 6.6 0 0 0-.8 1.3l.4-.7a2.4 2.4 0 0 0-.6.8l-.3.5a4 4 0 0 1-.2.5c.2 0 .1.4.1.7a1.4 1.4 0 0 0-.2.8c0 .4 0 .9-.2 1l.2 1c.1 2-.7 2 .7 3.5-.2-.6.4 0-.3-1l.7 1a.9.9 0 0 1 .1.2.8.8 0 0 1 .1.4.8.8 0 0 1-.2.6 1.6 1.6 0 0 1-1 .3h-.7a2 2 0 0 0-.5 0 2.2 2.2 0 0 0-1-.2s-1 .2-.5 0a10.8 10.8 0 0 1-1.5.5 8.3 8.3 0 0 0-1.7.6l-1.7.8-.7.4-.3.2H67a.6.6 0 0 1-.4.2.7.7 0 0 1-.5-.7 1 1 0 0 1 0-.2V79a1.5 1.5 0 0 0 0-.4 1.6 1.6 0 0 0-.3-.8 1.6 1.6 0 0 0-1.4-.6h.2c-1.6.1-1-.4-2.9 0-.5.1-.3.2 0 .1h.4c0 .2-.1.3-.5.3a1.8 1.8 0 0 1-1.2-.4 1 1 0 0 1-.4-.5 1.3 1.3 0 0 1 0-.2v-.1-.2a2 2 0 0 1 .3-.8 2.2 2.2 0 0 1 .3-.2l.2-.3a6.5 6.5 0 0 1 .5-.4l-.4.2a2.5 2.5 0 0 1 .4-.3l.4-.2a5.6 5.6 0 0 1 1-.4 2.7 2.7 0 0 1 .7 0H65a7.7 7.7 0 0 0 2.1-.2l2.3-.8c-.5 0-.6.2-.5-.1.4-.1.3 0 .4 0 0 0 .2.1.8-.2l.5-.7c.2-.3.2-.5.1-.6a1.6 1.6 0 0 1-.3.4l-.4.5a1.9 1.9 0 0 1 .3-.5 4 4 0 0 0 .3-.4 1.5 1.5 0 0 0 .2-.4 3.6 3.6 0 0 0 .1-.5h-.1a14.4 14.4 0 0 1 .6-1.9 2 2 0 0 0 0-1.8l.1.2c-.1-1.2-.4-.9-.6-2l-.4-.3a1.6 1.6 0 0 0-.2-.5l-.6-.8-.8-.9a2 2 0 0 0-.9-.4 2.4 2.4 0 0 1 1.1.9l.6.7a5.2 5.2 0 0 1 .5.6l-.5-.5-.6-.6-.3-.3a1.9 1.9 0 0 0-.2-.2l-.3-.3a3.7 3.7 0 0 1 .6.5 1.6 1.6 0 0 0-1-.8 15.2 15.2 0 0 0-2-.5l-.5.2-.6.2a1.7 1.7 0 0 0-.5.3 1.5 1.5 0 0 0-.4.5l-.3.7a5 5 0 0 0-.3 1.3 12.8 12.8 0 0 0-.7 1.8l-.3 1-.1.5a1.3 1.3 0 0 0 0 .3v1.6a1.4 1.4 0 0 0 0 .3 1.6 1.6 0 0 0 .2.4 5.5 5.5 0 0 1 .2.6 4.1 4.1 0 0 1 .2.6 2.2 2.2 0 0 1 0 .5 1.2 1.2 0 0 1 0 .4 1 1 0 0 1-.4.4 1.4 1.4 0 0 1-.2.1 1.5 1.5 0 0 0 .2 0V73a1 1 0 0 0 .1-.1.8.8 0 0 0 .2-.4.7.7 0 0 0 0-.3s0-.1 0 0a2 2 0 0 0-.1.2.8.8 0 0 1-.2.3.9.9 0 0 1 0 .1h-.2a.8.8 0 0 1-.1.2 1.6 1.6 0 0 1-.7 0c-.2 0-.3 0-.2-.1H59.5a3.9 3.9 0 0 0-.5 0 1.6 1.6 0 0 0-.8.3c-.2.2 0 .1.2 0h.3a1 1 0 0 0-.3.2l-.2.1a.7.7 0 0 0-.2.2 1 1 0 0 1-.1.2 1.8 1.8 0 0 1-.2.2c0-.1 0-.1-.2 0a9 9 0 0 0-.7.8l.3-.5.3-.5a1.8 1.8 0 0 0-.2.2l-.2.2-.4.5a8 8 0 0 0-.5.7 4.5 4.5 0 0 1-.5.7 3 3 0 0 1-.2.2 1.5 1.5 0 0 1-.3.2 1.2 1.2 0 0 1-.4.1 1.1 1.1 0 0 1-.5 0 1.2 1.2 0 0 1-.3-.3 1.3 1.3 0 0 1-.2-.2 1.5 1.5 0 0 1-.2-.7 3 3 0 0 1 0-.5 3.3 3.3 0 0 0 0 .4 1.5 1.5 0 0 0 .1.8 1.6 1.6 0 0 1-.2-.6 3.3 3.3 0 0 1 0-.4 6.4 6.4 0 0 1 0-.8v-.2a.2.2 0 0 0 0-.2.2.2 0 0 0-.1 0 1.5 1.5 0 0 0-.4 0 7.6 7.6 0 0 1-1 .4c-.2.2-.3.4 0 .2l-.8.5-.4.3-.2.2h-.2a1.9 1.9 0 0 1-.1.2 1.4 1.4 0 0 1-.3 0 1 1 0 0 1-.8 0 1.4 1.4 0 0 1-.2-.3 1.8 1.8 0 0 1-.1-.2 1.7 1.7 0 0 1-.2-.5 3.4 3.4 0 0 1 0-.7V73.3a3 3 0 0 1 .2-.4 3.2 3.2 0 0 1 .6-1.2l.7-.8 1.4-1.3h-.2l.6-.4a6.6 6.6 0 0 1 1-.4s-.3 0 0-.1l1-.1.6-.1a6 6 0 0 0 .6 0l-.6-.1h1a1.4 1.4 0 0 0 1.3-.7 1.4 1.4 0 0 0 .1-.5l.2-.7.3-1.6c-.3 0 0-2.1.2-3.2a3.3 3.3 0 0 0 0-.7 1.2 1.2 0 0 0-.2-.5c-.3-.3-.5-.4-1.2-.6a37.2 37.2 0 0 1-3.9-1.4 14.5 14.5 0 0 1-4-1.3l-2.3-1a6.4 6.4 0 0 1-1-.7l-1-.6c.3.2 0-.2-.4-.5-.6-.4-1.5-1.3-1.6-1l.3.2c-.6-.1-1.7-1-2.6-1.7l.1-.4a11.2 11.2 0 0 1-1-.7 5 5 0 0 1-.5-.3l-.5-.5-1.7-2-1.5-1.9a6.7 6.7 0 0 0-1.1-1.3l-.2-.4a1 1 0 0 0-.3-.3 1.7 1.7 0 0 0-.6-.4v.2a1.1 1.1 0 0 0-.7.2l-.2.1a2 2 0 0 1-.3.2l-.5.2-2.6 1.1h.5c-1.2.5-1.7.1-2.9.6a4.4 4.4 0 0 1-.4.4 55.6 55.6 0 0 1-7 .7h.5l-.5.1h-.5a1.2 1.2 0 0 0-.6.5c-.6.6-1 1-1.1.7l-.8 1-1.4 1.8h.3a8.9 8.9 0 0 0-1.7 1.9c-.2.3 0 .3.1 0-.5 1-.6.6-1.3 1.8l.4-.4a6 6 0 0 1-1 1.4 8.9 8.9 0 0 0-.9 1.7 1.2 1.2 0 0 0 0 .5 3.2 3.2 0 0 0-.8 1.3c0 .2.2 0 .2-.2-.3 1-.7 1.6-.9 2.2a8 8 0 0 0-.5 1.9v.2l.8-2.6c.1 0-.2 1.3.3.4a19.7 19.7 0 0 0-1.4 3.8.7.7 0 0 0 0 .1h.1a4.2 4.2 0 0 1-.2.7l-.2 1a8.9 8.9 0 0 1-.5 2c-.2 0-.4.8-.3 0l.2-.6v-.2L7 67a4.6 4.6 0 0 0-.5 1.6l-.5.8a5.6 5.6 0 0 1-.3 1.7 3.1 3.1 0 0 1-.3.9 1 1 0 0 1-.5.4 1 1 0 0 1-.8 0 1.3 1.3 0 0 1-.5-.7 3.2 3.2 0 0 1-.2-.5 6.5 6.5 0 0 1 0-.9 13.9 13.9 0 0 1 0-1.7V67a4.5 4.5 0 0 1 .5-1.2 1.4 1.4 0 0 0 0-.8l-.3.8c.3-1 .7-3.2 1-3.4.1-1.5-.4.7 0-1.2l-.1.2A9 9 0 0 1 5 59l1-2.3.4-1.1a8 8 0 0 1 .6-1.2 20 20 0 0 0 1.2-2.6 1.4 1.4 0 0 0-.2.5l.8-1.6a9.8 9.8 0 0 1 1-1.6l2.2-3 1-1.4a5 5 0 0 0 .3-.8 1.8 1.8 0 0 0 .1-.8l-.4-3.6a6.7 6.7 0 0 1 0-2.3l-.1-.3.2-1.4a5.6 5.6 0 0 1 0-.8l.2-.7.3-1.3a5.7 5.7 0 0 1 1.5-3l-.1.4a6 6 0 0 1 1.2-1.3l.7-.7a1.1 1.1 0 0 0 .5-.4v-.1l1-.6a4.3 4.3 0 0 1 .5-.2l.5-.2c.8-.4.7-.5.7-.6l.2-.2a7.6 7.6 0 0 1 1.2-.3c1-.2 2.7-.2 2.4 0-.4 0-1 .2-1 .3l.9-.1c.2.3.8.5-1.1 1l-1.5.2-.3.2 1-.2a4.7 4.7 0 0 1-1.4.3 1.3 1.3 0 0 1-.5.4h-.7a2.5 2.5 0 0 0-.6.2c0 .2.7 0 0 .5-.6.2.3-.6-.6 0-.4.5-.2.4-1 .9l.5-.1a8.5 8.5 0 0 0-1 .7 7 7 0 0 1-.7.6l-.7 1.2c-.2.4-.3.8-.1.8a6.4 6.4 0 0 0-.9 1.7c.4-.5.2 0 0 .8v.1c.3.1-.5 0-.4 0h.4v.2a4.5 4.5 0 0 0 0 .5c0 .3.1.4.2.4-.3.8 0 3.2 0 4.8a1.1 1.1 0 0 0 0-.4 14.4 14.4 0 0 0 .3 1.7c-.2 0-.2.5-.3 1a2.8 2.8 0 0 1-.1.8 5.9 5.9 0 0 1-.4.7c-.1.6 0 .5.3.2.2-.3.3-.6.4-.4l-.2.2a3.7 3.7 0 0 1-.5.8c-.3.4-.6.6-.5.4-.4.8-.4.6-.5 1.1-.3 0-.5.6-1 1-.6 1.1 0 .5-.8 1.5-.3.6.5-.3.5-.3zM6.5 64.8l-.2.6zm.7-2.6l-.3 1.1c0 .2 0 0 .2-.2v-.9zM7 68l.1-.7-.2.7a.4.4 0 0 0 .1 0z" transform="translate(.8 .4)"/>
    <path class="cls-2" d="M6.6 68.6l-.1.2v-.3l.1-.1zM75 17a.6.6 0 0 0-.1 0z" transform="translate(.8 .4)"/>
    <path class="cls-2" d="M36 44.6v-.2.2z"/>
    <path class="cls-2" d="M60.3 15.7a.6.6 0 0 1-.2 0 .7.7 0 0 1 .2 0zM54 16.7l-.8.3.8-.3zM49.4 18.3v-.1zM86.4 57.4l-.1.1a3 3 0 0 1 .1 0zM92.6 36.7zM74.9 76h-.2zM92.8 38.5a7.5 7.5 0 0 1-.2-1 6.6 6.6 0 0 1 .2 1zM30 26.2H30zM29.8 26.2h-.2a.8.8 0 0 1 .2 0zM29 26.1h.6a1.6 1.6 0 0 1-.6 0zM36.7 25.4h.1zM38.4 24.4a16 16 0 0 1-1.5 1c.2 0 1-.9 1.5-1zM45 19.3l-1.5.8c.2-.2.5-.5-.2-.1 1.8-1.2-.3.3 1.6-.7zM49.7 17.2c-1 .2 0-.1-.1-.2.5 0 .7-.1 0 .2zM85.5 21.9v-.2c.5.4 0 0 0 .2z" transform="translate(.8 .4)"/>
    <path class="cls-2" d="M90.7 27.7l-.5-.5v-.4l.5.9zM93.5 31v-.2l.1 1.1v-.8z"/>
    <path class="cls-2" d="M68.3 79.6l.1-.3c.5-.1.7 0 0 .3zM71.3 67a3.4 3.4 0 0 1-.5-1.5l.5 1.5zM38.5 50.8l.4.4a9.3 9.3 0 0 1-.7-.7 2.4 2.4 0 0 0 .3.3z" transform="translate(.8 .4)"/>
  </g>
</svg>
