<svg id="Layer_1" data-name="Layer 1" xmlns="http://www.w3.org/2000/svg" viewBox="0 0 101.6408 100.9812">
  <defs>
    <style>
      .cls-1 {
        fill: #89c53f;
      }

      .cls-2 {
        fill: #202020;
      }

      .cls-3 {
        fill: #fff;
      }
    </style>
  </defs>
  <title>MenuButton-1</title>
  <g>
    <path class="cls-1" d="M5.3525,21.6238,45.53,1.0916a9.8222,9.8222,0,0,1,8.9392,0L94.6475,21.6239A9.8219,9.8219,0,0,1,100,30.37V69.4515a9.8224,9.8224,0,0,1-5.3525,8.7463L54.47,98.73a9.8222,9.8222,0,0,1-8.9392,0L5.3525,78.1977A9.8219,9.8219,0,0,1,0,69.4515V30.37A9.8224,9.8224,0,0,1,5.3525,21.6238Z" transform="translate(0.8 0.368)"/>
    <g>
      <path class="cls-2" d="M5.5645,22.0387c-.1772.023-.1547-.142.2711-.3293l.3993.056Z" transform="translate(0.8 0.368)"/>
      <path class="cls-2" d="M8.153,20.2339c.5376-.1486,1.1887-.26.97.0909-.5831.0481-.6575.19-1.2969.2194-.4265.1877-.6888.4355-.58.4758-.1735.0219-.62.374-.909.3584a4.7932,4.7932,0,0,1,1.9165-1.0226C8.3834,20.2322,8.2075,20.2541,8.153,20.2339Z" transform="translate(0.8 0.368)"/>
      <path class="cls-2" d="M48.7593-.2313l-.295.0712A2.1268,2.1268,0,0,1,48.7593-.2313Z" transform="translate(0.8 0.368)"/>
      <path class="cls-2" d="M74.5359,10.8389c-.1884-.1024-.2576-.1637-.2577-.1873C74.4485,10.7557,74.5875,10.8427,74.5359,10.8389Z" transform="translate(0.8 0.368)"/>
      <path class="cls-2" d="M78.9314,12.7984l-.2594-.1149A.7356.7356,0,0,1,78.9314,12.7984Z" transform="translate(0.8 0.368)"/>
      <path class="cls-2" d="M48.7593-.2313c.2544-.05.5111-.1029.77-.1367C49.5873-.3,49.1339-.2909,48.7593-.2313Z" transform="translate(0.8 0.368)"/>
      <path class="cls-2" d="M13.9858,17.8808a2.5323,2.5323,0,0,1-.3914.1316l.3528-.1527A.1706.1706,0,0,0,13.9858,17.8808Z" transform="translate(0.8 0.368)"/>
      <path class="cls-2" d="M37.3073,4.7185l-.2037.1037a1.2425,1.2425,0,0,1-.2119.0026Z" transform="translate(0.8 0.368)"/>
      <path class="cls-2" d="M28.8116,9.02c.1879-.1056.3441.0354.4567.0744a.9837.9837,0,0,0-.48.0937C28.7686,9.1565,28.7734,9.1038,28.8116,9.02Z" transform="translate(0.8 0.368)"/>
      <path class="cls-2" d="M15.5234,16.2l-.251.0976Z" transform="translate(0.8 0.368)"/>
      <path class="cls-2" d="M43.3572,1.579a.1792.1792,0,0,1,.0453-.102C43.4137,1.4989,43.394,1.5353,43.3572,1.579Z" transform="translate(0.8 0.368)"/>
      <path class="cls-2" d="M.9237,30.6221c-.014.0077-.0229-.0031-.035-.0007C.9085,30.566.9225,30.5489.9237,30.6221Z" transform="translate(0.8 0.368)"/>
      <path class="cls-2" d="M5.3294,21.5786,5.19,21.644a.2861.2861,0,0,1-.0812-.0811Z" transform="translate(0.8 0.368)"/>
      <path class="cls-2" d="M86.8777,16.5762l-.0364-.0144C86.6454,16.4365,86.76,16.5,86.8777,16.5762Z" transform="translate(0.8 0.368)"/>
      <path class="cls-2" d="M85.3376,83.87c.7345-.5728-1.4283.4763-.291-.3243C84.9675,83.6721,86.3008,83.2489,85.3376,83.87Z" transform="translate(0.8 0.368)"/>
      <path class="cls-2" d="M14.1937,17.7456l.3484-.1758A3.4125,3.4125,0,0,1,14.1937,17.7456Z" transform="translate(0.8 0.368)"/>
      <path class="cls-2" d="M85.0466,83.5452l-.0007-.0014.1182-.0812Z" transform="translate(0.8 0.368)"/>
      <path class="cls-2" d="M100.8408,30.6332a.6571.6571,0,0,1-.0861-.2066C100.7749,30.4335,100.8,30.48,100.8408,30.6332Z" transform="translate(0.8 0.368)"/>
      <path class="cls-2" d="M91.2985,19.2826l.3446.1465A3.6919,3.6919,0,0,1,91.2985,19.2826Z" transform="translate(0.8 0.368)"/>
      <path class="cls-2" d="M100.5631,38.4718a2.2994,2.2994,0,0,1,.0159.5495.5146.5146,0,0,1-.0241-.0844A1.1541,1.1541,0,0,0,100.5631,38.4718Z" transform="translate(0.8 0.368)"/>
      <path class="cls-2" d="M100.5619,46.6305l-.0395-.1505.01-.2585Z" transform="translate(0.8 0.368)"/>
      <path class="cls-2" d="M.829,55.4173a1.3039,1.3039,0,0,0-.1767-.3767C.7921,55.1664.842,53.9677.829,55.4173Z" transform="translate(0.8 0.368)"/>
      <path class="cls-2" d="M13.9392,17.78a.3533.3533,0,0,0,.2545-.0348l-.2465.1141C13.9128,17.8444,13.8955,17.8222,13.9392,17.78Z" transform="translate(0.8 0.368)"/>
      <path class="cls-2" d="M99.0109,38.8035,99.04,40.1C99.0207,39.7373,99.0109,39.2662,99.0109,38.8035Z" transform="translate(0.8 0.368)"/>
      <path class="cls-2" d="M35.7355,92.825l-.2542-.1564A.9914.9914,0,0,1,35.7355,92.825Z" transform="translate(0.8 0.368)"/>
      <path class="cls-2" d="M99.0109,43.9465a3.9791,3.9791,0,0,1,.136.73.666.666,0,0,1-.0508.1505Z" transform="translate(0.8 0.368)"/>
      <path class="cls-2" d="M.65,55.0378l.002.0028Z" transform="translate(0.8 0.368)"/>
      <path class="cls-2" d="M1.1175,46.5c.0056,1.2352-.2531.58-.4014.8422-.0735,1.4742.19.6822.3226,1.184C.97,49.4464.7328,50.1523.7429,50.8387c.0425.0513.0581.1847.1114.0283C.6487,51.84.8442,53.7559.586,54.89a.3668.3668,0,0,0,.0643.1481c-.13-.1836-.2613-.2118-.355-.1742C.2909,55.4173.1319,55.8911.301,56.1a.9838.9838,0,0,1,.116-.5265l-.0733.58c.2428.5223.0839-.792.2638-.792A28.0954,28.0954,0,0,0,.396,58.678c.2377.1812.08-2.0272.2914-.87l-.091-1.3415c.3752,1.0251-.0259-.815.3752.1268C1.04,58.3581.85,58.5675.92,60.3282c-.1321.3965-.1955-.131-.3276.2655-.2374,2.5029.5978,1.97.2811,3.81a2.8561,2.8561,0,0,0-.3,1.9712l.2688-.4467c.0267,1.7091-.3864.9756-.2056,2.7656.1056-.3182.089-1.3433.121-1.0847.2123,1.16-.1524.82-.1524,1.7115.08.06.1574.1264.24.18a9.1227,9.1227,0,0,0,1.3619,5.1619c0-.129-.1117-.4335.1873-.1119a7.5242,7.5242,0,0,0,2.6,2.5213,18.59,18.59,0,0,0,1.7284.8424l1.7456.7765.7405.6091c.195.097.4022.1013.21-.0415.8863.3654-.0152.1385.357.4194.4775.26.6932.2217.4144.01a36.5068,36.5068,0,0,0,5.788,3.1322l-.2806-.212c1.27.5553,1.1984,1.0854,2.428,1.4986l-.2025-.1444c2.7139,1.2869,5.5827,2.9643,7.7636,3.73.2531.4618,2.706,1.2347,2.69,1.69a29.9934,29.9934,0,0,1,3.4285,1.2851c.5826.2765.7385.6668,1.4288,1.068l.1156-.1833.8607.694.63.0324.6407.39c-.271-.1243-.6079-.2019-.5957-.126a8.2749,8.2749,0,0,0,2.68,1.0765l2.3775,1.42c-.0151-.1052-.4137-.3422-.7142-.558,1.2131.8673.342-.0805,1.4537.7143-.1836-.0389.0287.159.0362.2118a18.8541,18.8541,0,0,1,3.011,1.4527l-.1262-.2316c.9026.4326,1.9162.9946,2.8131,1.4447a8.397,8.397,0,0,0,2.9583.7823c-.7487.001-.6242.27.0119.3543.0892-.0658.1771-.1439.2625-.2162.4009.1525-.6625.0671.1689.2636.8136-.0314.5282-.2633.0833-.3312a8.8419,8.8419,0,0,0,.9574.0374c.0491-.0726-.1771-.0889-.24-.17.4181.1433,1.5559-.4433,2.1364-.4025l.0288-.0812a10.4323,10.4323,0,0,0,1.2633-.5179l1.1222-.5423,2.202-1.07c.1222.1587.7545-.2135,1.324-.3258,1.1969-.6824,2.4871-1.5154,3.9716-2.2552,1.0825-.4432.3791-.0064.8989-.1409-.0052-.1985,1.4774-.9374.6537-.6612,1.7859-.88,2.28-1.1251,4.5883-2.1411-.21.19-.4689.3581-.2993.34.42-.1817.8913-.54.7938-.5869l-.1158.0383c2.6387-1.0465,5.57-3.4333,7.7437-4.1244l-.1207.0409,2.1665-.8885c.9419-.5161-.6347.1731.0222-.2874,2.3776-.879,3.5218-1.8483,5.4583-2.6141,1.1882-1.2012,5.0872-2.5579,6.8622-3.8442l-.0547.1679c.5538-.1461.57-.3716.9248-.5848-.0081.1128-.49.3761-.1494.2781a29.1088,29.1088,0,0,0,3.1146-1.6247,8.4413,8.4413,0,0,0,2.3374-2.3827,8.7828,8.7828,0,0,0,1.2428-3.0789,14.0524,14.0524,0,0,0,.1332-3.4136c-.0335-1.7781.6443-1.0091.347-3.2506l-.2313.6362c.2774-3.5883-.01-7.3371.2258-10.85a1.3213,1.3213,0,0,0-.1219.5582,7.2759,7.2759,0,0,1,.1289-2.7562c-.0155-.547-.1239-.1268-.1936-.4637-.0991-.7443.2145-1.868.0473-2.2635-.0273-.0673-.0545.209-.0675.3453.0814-.4851-.0207-2.26.1731-1.7952-.0924-1.3185.0861-2.522-.0285-3.5736.2167-.6858-.1044-2.2569.2021-2.4747-.3167.0945-.2554-2.3112-.1064-3.145-.0957.2791-.0993-.7248-.2317-.3979.0044-.9513.0632-1.8231.2259-1.6572-.3789-1.7527.3049-3.5228-.1806-4.51l.1175-2.082a9.5337,9.5337,0,0,0-.0872-1.8571,8.8325,8.8325,0,0,0-1.2717-3.3719c-.1035.1241.257.664.5117,1.2365.2721.564.44,1.1445.2661,1.1474a9.6124,9.6124,0,0,0-1.0964-2.62,6.657,6.657,0,0,0-1.9867-2.07c-.497-.2958.19.3.3.4652a7.2629,7.2629,0,0,0-1.3343-.9425c-.48-.2686-1.0185-.5293-1.5145-.7854-1.0084-.5131-1.9848-1.0158-2.9-1.58-.0081.0289.1833.1628.3669.2836-.3717-.2014-.8961-.4058-.7883-.5118l.3491.222c.6955.1215-1.296-1.1509-1.3132-1.2833.4513.6925-1.9326-.8715-1.1549.11-.2352-.1507-.5149-.37-.4145-.4264-.38-.1629-.5222-.1726-.1992.1151-1.312-.7582-.7638-.6494-1.9862-1.27-.0273.0642.2068.2139.2959.3512a9.2976,9.2976,0,0,0-2.1743-1.3495c.043.069-.1016.0564.2067.2127-1.7624-.9242-2.856-1.8648-4.8595-2.7415.436.5618-.7064-.2494-.9283-.0694l-1.01-.6036.4772.1015c-.9176-.464-1.64-1.047-2.4663-1.3731l.6314.4436L73.4,11.3215l1.0162.4081c-.8652-.5934.25-.2437-1.0021-.8017a15.3068,15.3068,0,0,0-1.4647-.572l.0028.0022a6.5721,6.5721,0,0,0-1.5478-.91c-.214-.0155.01.33-.13.3207-.3474-.4228-2.1167-1.15-2.5767-1.6462.1638.1451.1113.2723.0364.2656l-.2943-.35c-.45-.1662-.5245-.1735-.5054-.0409-1.2906-.6231.5561-.0881-1.0231-.7347a2.4562,2.4562,0,0,0,.2788.2187c-1.5549-.711-2.8871-1.6019-4.3243-2.2383-.532.0235,1.1916.6813.6188.6377-1.9933-1.0722-4.0289-2.4128-6.0068-3.3541l.3765.16c-.1013-.4687-1.5356-.5786-2.442-1.2384.2289.1478.2228.3451.1764.275A11.2839,11.2839,0,0,0,49.7044.3248l.273.0872a11.0762,11.0762,0,0,0-3.059.6187c-.2871-.0066-.7675.2177-.5242-.034-2.366,1.7319-5.13,2.27-7.2477,3.8413.2784-.1411.7007-.2644.48-.151l-2.0208.934c.0831-.224.2152-.22.5739-.5447a5.6324,5.6324,0,0,0-1.3781.5131c.94-.36.1105.2353-.2332.5123.042-.0771-.1148-.0584-.1051-.12-.9039.7851-.3216-.2011-1.6461.6934l.1135.0374a14.9866,14.9866,0,0,0-1.646.6936c-.1512.2874.6026-.21.709-.0914a11.7449,11.7449,0,0,0-2.3815,1.0284c.3638-.1273.8535-.3766,1.2171-.5043a5.8331,5.8331,0,0,1-1.3768.9268l.0554-.0339-1.3106.7815.3182-.2295c-1.2242.0777-2.0812.9634-3.5767,1.3688,1.45-.4012.2966.045.4936.1824-.318.2285-.812.5551-.6356.532-.7158.1736-1.0038.6644-2.0181.9017-.0093.0813-.68.3548-.4576.4339-.8541.3761.142-.206.0333-.2466-1.3848.4459-2.877,1.7878-4.8619,2.4429-1.646.6933-2.044.6381-3.5681,1.2882-.4471.3511.52.0135.52.0135a11.01,11.01,0,0,1-2.1578,1.1071c.18-.0252.0454.1-.15.2861-.614.2938-.5183-.0142-1.2717.4839a2.69,2.69,0,0,0,.73-.0652c-.7428.3091-1.5061.556-2.2735.879-.142.2061.5283-.0673.8243-.1312a11.7864,11.7864,0,0,1-2.5443.9676l.5024-.3323c-.3069.1468-.0821.2237.1569.14.7793-.2324.9973-.5829,1.0064-.6646l-.5464.23c.3586-.6329,2.1441-1.0235,3.1934-1.5859l-.5744-.0335,1.1972-.34c.1967-.1856.2809-.4113-.2623-.1826.6944-.5163.72-.2516,1.3-.728.0606-.0591.0216-.0549-.05-.031l.7819-.3023c-.1733.02.03-.2462-.407.0244,1.2562-.8306,2.2483-.9037,2.65-1.3566l-.1195.041c1.8937-.8573.2761.0991,1.7771-.3864l.6934-.9464.279.0973c.1873-.1044.5573-.3114.4486-.3519.7765-.2325-.0787.1446.3962.0571.8295-.6426,2.573-1.2126,2.625-1.6215.4034-.0239-.821.56.21.16.1129-.469,1.1617-.5232,1.9239-1.1014-.3435-.0367-1.0926.4584-.33-.12.6514.0258,1.6014-.8971,2.3366-1.2041.149.21,1.5867-.6917,2.8124-1.2228-.114-.0378,2.17-1.2662,3.2327-1.9125l-.052-.0212c.3308.12,1.448-.5058,2.3017-.8822-.1027-.1205-.2795-.0982-.76.07l.78-.3974a3.3511,3.3511,0,0,0,1.0036-.3386l-.2835-.0708a33.3886,33.3886,0,0,0,3.47-1.6633c.1567.1212-.8349.9872.6316.3721.0084-.113-.015-.2873-.4026-.1338a3.0986,3.0986,0,0,0,.6933-.31l-.6382.1431c.5755-.3746.38-.0412.8593-.3032-.0726-.1182.315-.2718.1953-.3338a3.7862,3.7862,0,0,1-.609.3145,6.6945,6.6945,0,0,0,1.3338-.9191c-.012.0944.0847.1658.4944-.0235,1.0424-.5214.28-.33.8526-.7021.2818-.0431.9284-.471,1.0435-.2908a1.1074,1.1074,0,0,0,.4562-.36c.3082-.0853,1.0152-.3071,1.5776-.4047.562-.1051.9639-.0978.6313.0545L48.2577-.11l.1018-.006-.005.0008.005-.0008a11.116,11.116,0,0,1,6.0827.8657L54.47.6858c1.0234.6,2.3042,1.2266,2.9849,1.7388.3085.1574.7853.26.6909.1189a10.2062,10.2062,0,0,0,2.0308,1.0552c-.7465-.5169.3251.0461-.7811-.4983a9.6554,9.6554,0,0,1,2.3738,1.234c-.2979-.3511.8812.2,1.3495.4987l-.7833-.2581c.5418.3058,1.033.5392,1.5316.7771l-.16-.3433C65.9553,5.84,67.31,7.3914,69.139,7.7936c.4865.4316-1.2033-.4861-.7886-.06.9892.47,2.1571.6917,2.4628.8471,1.3941.5675,1.0912.94,2.5288,1.5754-.2164-.0176-.4862.0937.5226.6971.99.4713,1.3578.3026.7722-.0715-.2307-.1258-.3557-.16-.3586-.13-.3015-.1879-.6989-.4311-.2716-.3139l.0888.1387c.5226.1719,1.8608.8657,1.6076.5833.7012.4472.2532.2824-.3125.0417,1.3061.5323,1.9567.9959,3.2815,1.5821-.2257-.0639-.4587-.0734-.2545.03,1.9361.8739.76.5655,2.0238,1.2521.7849.2589-.1231-.4024,1.1172.3506.8259.3257.2669-.1112-.015-.3313a15.986,15.986,0,0,0,2.9254,1.3438l-.5879-.3757a10.7131,10.7131,0,0,0,.9637.5355l-.4287-.0325c.3762.16.684.3163.7086.2512.3247.2881-.4121.1.2627.6117.5224.1721,1.4329.8339,1.7.7231-1.5566-.7114.269-.1113-1.0034-.8014a6.3662,6.3662,0,0,0,.9177.4646c.0658.0059-.0307-.067-.1243-.129,1.5464.5689.5561.5642,2.0683,1.3312-.1352-.2086.4572-.031.6915.1185-.61-.3087-.3854.0358.1295.4058a9.4356,9.4356,0,0,1,1.5315.8509l-.5994-.2552a5.3649,5.3649,0,0,0,1.2881.8234c.1017-.0567-.5825-.3724-.3223-.2874.65.5774,1.796.6639,2.7738,1.3288.5225.1729.1524-.1847.6047-.0167,1.1481.8367,1.4534.6256,2.5033,1.7313-.4426-.1643-.4335-.26.1807.5878A10.3589,10.3589,0,0,0,95.9427,21.56a9.6046,9.6046,0,0,1,1.0793,1.13,9.4588,9.4588,0,0,0-1.5254-1.2189c.545.51.4948.4333.137.364.9685.3278,1.4575,1.2528,2.2967,1.977l.2923-.2938a6.0008,6.0008,0,0,1,1.3623,2.0878,18.7807,18.7807,0,0,1,.8554,2.7386c-.0629-.2339-.157-.4595-.2341-.687-.0707.3257.2863,1.35.2522,2.0825.1346-.0785.2042.379.2963.6865-.1025-.0356.0094,1.55-.2666,1.7422l.182.9453c.0745,1.71-.3938,1.9513-.3467,3.5949.15-.4951.2481.2519.3556-.8492.0014.5488.0266,1.0422-.0692,1.0509.0866.3206-.1861,1.5217-.0549,2.0262a1.85,1.85,0,0,0-.1939.9231c.028.0672.0681-.0025.0681-.0025-.0681.0025-.0928.9645-.2457.4262.4312,1.69-.0315,4.7245.339,6.1963-.0464,1.1976-.0909,2.6405-.101,3.7277.0414-.07.0689-.0035.0546-.2091.1285,1.5-.3969.922-.2533,2.6286.2234.8718.1208-.9063.2054-.3627.4548.2366-.062,2.06.2035,3.2081l.0267-.278c.1545.8777-.1723,2.1418-.14,3.576,0,0,.04-.07.0687-.0083a29.4839,29.4839,0,0,0-.373,4.2175c.1778-.4293.0941-.6268.2749-.3648-.0256.6185-.29-.1812-.341,1.0533.0975.4014.1826,1.2921.3755,1.41l.01-1.1645a7.3038,7.3038,0,0,1,.0348,2.121l.1091-.0784c-.0391,1.7887-.3022,1.8-.299,3.7366l-.0757-.2062a2.3244,2.3244,0,0,0-.1071.9856,1.6926,1.6926,0,0,1-.143.9753c.0749.1256.1323.25.1971.38a10.0659,10.0659,0,0,1-.6807,1.564A13.5426,13.5426,0,0,1,98.43,75.1546a7.8967,7.8967,0,0,0,1.761-2.6725,8.1719,8.1719,0,0,1-.5878,1.4444,3.7691,3.7691,0,0,1-.7362,1.0643,3.1631,3.1631,0,0,0,.5177-.7907c-.5971.69-1.3069,1.5768-2.3111,2.5482.28.1043-.3671.7933-1.2857,1.4085a15.1617,15.1617,0,0,0-2.3536,1.5263c-2.2421.9234-4.2308,2.2571-6.7526,3.51.7-.8256-.7374.3636-.7782-.0963a4.09,4.09,0,0,0-.8555.4456l-1.6535,1.1321c-.3627.3253.5984-.2.5884-.0869-1.2637.6827-.4539.4357-1.2483.9694.1038-.225-.5444.032-1.2466.4565l.9365-.7c-1.89.71-1.381,1.1092-3.2848,1.8287l.6309-.1712A29.7237,29.7237,0,0,1,75.3,88.8725c-.1411.1276-.3038.3422.1171.1618-2.1854,1.1748-5.0834,2.1869-6.7038,3.2528l.2151.0075a4.5051,4.5051,0,0,0-1.2749.549c.0464.0249.2136.0082.0255.1112a9.1915,9.1915,0,0,0-1.6964.7295l.52-.1336a47.3439,47.3439,0,0,1-5.2765,2.2938c.1448.272-1.505,1.2275-2.3284,1.7043l.0494.0238c-1.2458.658-2.34,1.1456-3.4206,1.6037a17.2543,17.2543,0,0,1-1.7215.6631,12.5055,12.5055,0,0,1-1.9437.4293,7.6973,7.6973,0,0,1-3.931.1806,10.98,10.98,0,0,1-2.3622-.733c-.76-.3416-1.3605-.6456-1.98-.9022.38.1311.0516-.2433-.3464-.4814-.5723-.2225-1.4063-.9588-1.4486-.6631l.1963.0943a7.7929,7.7929,0,0,1-2.4966-1.0388l.0242-.4028c-2.5276-.6879-5.8919-3.2328-7.3571-3.4407-.5086-.3638-1.1917-.7117-1.6958-1.073L30.4041,92c-1.55-.735-2.3229-1.1024-4.1882-2.1086l.32.3227c-1.07-.5324-1.0837-1.1956-2.06-1.7076l-.43.1125a49.5309,49.5309,0,0,1-5.5647-2.8585c.01.054.026.158.3212.3223-.8776-.44-3.4719-1.5493-2.97-1.7487-.142.2243-1.9273-.956-2.8771-1.5722l.0672.2535a7.5538,7.5538,0,0,0-1.8794-1.3944c-.2917-.1207-.3164.0135.0783.1592-.98-.3859-.6432-.5362-1.8221-1.0219l.365.3264a3.7546,3.7546,0,0,1-1.323-.8974,5.2634,5.2634,0,0,0-2.0661-.8025,2.6878,2.6878,0,0,0-1.13-.8026c-.1067.02.0805.1625.175.2334a6.2049,6.2049,0,0,1-1.9018-1.222c-.4693-.4242-.84-.826-1.3468-1.2427-.0657.023-.1464-.02-.2328-.0892a8.8526,8.8526,0,0,0,1.9649,1.7312c-.1.1607-1.1265-.5819-.4732.2245a12.4985,12.4985,0,0,1-1.268-1.4456L.9779,75.1156a.6848.6848,0,0,0-.1406-.1l.052.1157a2.8874,2.8874,0,0,1-.3636-.6761A5.9759,5.9759,0,0,1,.0431,73.57a5.0356,5.0356,0,0,1-.6989-1.9429c.2009.0069.0308-.776.321-.0666-.0339-.0919-.0021.1179.0915.5138l.0453.258.0047-.0447a10.8569,10.8569,0,0,0,.5094,1.4317,7.0258,7.0258,0,0,0-.4847-1.5875c.0445-.3359.0927-.6883.1281-.8849a19.046,19.046,0,0,1-.76-2.55,29.4513,29.4513,0,0,1,.4425-5.258,1.1469,1.1469,0,0,0-.1641-.7631,6.8962,6.8962,0,0,1-.0846.79c.0949-1.0014.0369-2.9673.2952-3.2064-.1166-1.2624-.2378.71-.1956-1.0251l-.0789.2342c-.4127-3.4123.6592-5.5476.1294-9.3306a1.1962,1.1962,0,0,0,.0907.4467c-.2336-4.3131.2193-8.8881-.1512-13.144A5.7771,5.7771,0,0,1-.301,35.3606l-.2114-.2621.2439-1.2624a10.4045,10.4045,0,0,0-.15-2.5044,5.9977,5.9977,0,0,1,.1643-2.9359l.0877.3244a8.2681,8.2681,0,0,1,.4029-1.5729c.1769-.5113.34-.8986.233-.869a.9329.9329,0,0,0,.3282-.5149L.71,25.69A10.7273,10.7273,0,0,1,1.9921,24.063c.4839-.6281.37-.655.3135-.7474-.04-.0765-.0667-.2761.8468-1.0748.7119-.59,2.3021-1.0967,2.0375-.8682-.307.1707-.7435.4972-.6986.6127.2235-.1323.466-.23.6988-.3413.3.2261.8625.2311-.49,1.3324a9.9062,9.9062,0,0,0-1.0752.6035c-.0668.1229-.1166.2607-.1735.3876a8.7062,8.7062,0,0,1,.765-.67,3.3415,3.3415,0,0,1-1.0482.8646,1.0039,1.0039,0,0,1-.2024.496,9.2977,9.2977,0,0,0-.9521.7828c.0336.1879.4969-.31.1377.3952-.4006.4146.0217-.6183-.5243.1532-.1266.6041.0366.4785-.3327,1.07.0424.12.1469.0036.2792-.23-.3529.51-.5489,1.4939-.77,1.7709.0212.6275-.24,2.0461.0852,2.0217a8.7861,8.7861,0,0,0-.255,1.7617c.3693-1.1031.0217,2.26.4177,1.9687C.7193,35.1682.9039,37.301.72,38.7471A.9179.9179,0,0,0,.7824,38.38a11.8081,11.8081,0,0,0,.1905,1.5736c-.2743.1045-.337,1.3722-.5062,2.0555.2647.9975.3222-.606.5763-.2927C.8207,41.666.821,43.45.6359,43.11c.1638.7631.08.6575.307,1.05-.343.1338-.0582.71-.2689,1.3433.1691,1.1042.3213.2843.2171,1.4972C.996,47.5784,1.1175,46.5,1.1175,46.5Zm1.0368,28.203L2.1575,74.7c-.1231-.2-.238-.3647-.2957-.4791C1.9136,74.3269,2.0076,74.46,2.1543,74.7026Zm1.5143,1.7161a6.8983,6.8983,0,0,1-.7164-.691c-.1006-.0179-.104.1034.0657.2665C2.9663,75.8676,3.3656,76.2451,3.6686,76.4187ZM-.2791,72.8569c.1012.4063.2082.5162.2607.5556a5.6412,5.6412,0,0,1-.2251-.6885l.008-.0538A.3969.3969,0,0,0-.2791,72.8569Z" transform="translate(0.8 0.368)"/>
      <path class="cls-2" d="M-.2433,72.0743c-.01-.0581-.01-.0916-.0264-.1661l.1011.2236-.0247.1558Z" transform="translate(0.8 0.368)"/>
      <path class="cls-2" d="M48.4128-.1479,48.4643-.16a.4829.4829,0,0,0-.1048.0438A.3968.3968,0,0,0,48.4128-.1479Z" transform="translate(0.8 0.368)"/>
      <polygon class="cls-2" points="34.175 91.878 34.15 91.921 33.981 91.785 34.175 91.878"/>
      <path class="cls-2" d="M36.5679,6.1017a.4566.4566,0,0,1-.1332.1246A.5863.5863,0,0,1,36.5679,6.1017Z" transform="translate(0.8 0.368)"/>
      <path class="cls-2" d="M31.452,8.7656l-.6945.4336C31.0537,9.0031,31.274,8.8692,31.452,8.7656Z" transform="translate(0.8 0.368)"/>
      <path class="cls-2" d="M27.5475,10.8705a.221.221,0,0,1-.1156-.0356l.0071-.0051Z" transform="translate(0.8 0.368)"/>
      <path class="cls-2" d="M90.4273,20.3158l.1483.0858C90.9157,20.6182,90.68,20.4807,90.4273,20.3158Z" transform="translate(0.8 0.368)"/>
      <path class="cls-2" d="M71.952,10.3581c.182.1331.3616.2643.5584.39C72.171,10.5913,71.9107,10.4627,71.952,10.3581Z" transform="translate(0.8 0.368)"/>
      <path class="cls-2" d="M99.0074,38.6613l.0035-.0024v.1446Z" transform="translate(0.8 0.368)"/>
      <path class="cls-2" d="M73.3807,11.1888a4.7672,4.7672,0,0,1-.87-.4409A7.3694,7.3694,0,0,1,73.3807,11.1888Z" transform="translate(0.8 0.368)"/>
      <path class="cls-2" d="M10.4731,19.6964l-.1866.1044c-.0028-.0132-.0188-.0169-.037-.0166Z" transform="translate(0.8 0.368)"/>
      <path class="cls-2" d="M10.25,19.7842l-.2219.0873A.6279.6279,0,0,1,10.25,19.7842Z" transform="translate(0.8 0.368)"/>
      <path class="cls-2" d="M9.56,20.0546l.4672-.1831A1.3492,1.3492,0,0,1,9.56,20.0546Z" transform="translate(0.8 0.368)"/>
      <path class="cls-2" d="M15.6592,16.9439l.0923.033A.0988.0988,0,0,1,15.6592,16.9439Z" transform="translate(0.8 0.368)"/>
      <path class="cls-2" d="M17.2572,16.1505a12.8544,12.8544,0,0,1-1.4305.8517l-.0752-.0253C16.0483,16.9444,16.8425,16.2273,17.2572,16.1505Z" transform="translate(0.8 0.368)"/>
      <path class="cls-2" d="M23.4864,11.9767l-1.3052.7309c.1982-.1865.4576-.4339-.1561-.1408C23.6,11.5073,21.7562,12.8952,23.4864,11.9767Z" transform="translate(0.8 0.368)"/>
      <path class="cls-2" d="M27.5638,9.7691c-.7313.334-.0419-.1025-.0992-.1214C27.95,9.4775,28.0675,9.437,27.5638,9.7691Z" transform="translate(0.8 0.368)"/>
      <path class="cls-2" d="M58.4773,2.6347l.0094-.1961C59.0264,2.7432,58.46,2.5031,58.4773,2.6347Z" transform="translate(0.8 0.368)"/>
      <polygon class="cls-2" points="64.558 6.741 63.971 6.566 63.79 6.289 64.558 6.741"/>
      <polygon class="cls-2" points="68.507 7.326 68.278 7.18 69.168 7.708 68.507 7.326"/>
      <path class="cls-2" d="M100.7359,45.1793l-.2206-.1871C100.5549,44.5737,100.8027,44.4859,100.7359,45.1793Z" transform="translate(0.8 0.368)"/>
      <path class="cls-2" d="M100.5108,69.4672a2.5217,2.5217,0,0,1-.03,1.4455C100.5433,70.3344,100.4779,69.7582,100.5108,69.4672Z" transform="translate(0.8 0.368)"/>
      <polygon class="cls-2" points="39.106 96.384 39.508 96.672 38.716 96.198 39.106 96.384"/>
    </g>
  </g>
  <g>
    <path class="cls-3" d="M24.0516,25.6349c.0663-.0059,3.35-.0107,7.2963-.0107h3.519a2.0559,2.0559,0,0,0,1.1017-.32h0c1.463-.9284,3.5169-2.2969,4.5642-3.0412s1.9509-1.3807,2.0081-1.4142,1.4782-.7238,3.03-1.4593,2.8611-1.3525,2.9085-1.3711,1.5271-.4977,3.1826-1.0229,3.0642-.967,3.1306-.9816,1.5733-.2222,3.2008-.4287,3.0273-.3766,3.1107-.3778,2.09.1681,4.2735.3792,4.0114.3909,4.0626.3994,1.6271.3753,3.3882.796,3.2554.7831,3.3208.8052,1.5828.6779,3.2263,1.4079,3.04,1.3563,3.1026,1.3918,2.8486,1.9578,6.05,4.1925h0a2.0816,2.0816,0,0,1,.572.6015l2.3239,3.7076a2.1028,2.1028,0,0,1,.29.7613l.27,1.5795c.6664,3.89,1.2161,7.1262,1.2216,7.1914s.02,1.5969.02,3.2585-.0059,3.082-.0132,3.1566-.5145,2.7492-1.111,5.7769h0a2.1,2.1,0,0,1-.2183.6029h0c-.944,1.7253-1.754,3.191-1.8,3.2571S88.8181,55.99,87.4734,57.55h0a2.0774,2.0774,0,0,1-.409.3641h0c-1.8328,1.24-3.9451,2.7-4.6941,3.2431s-1.3753.9979-1.3918,1.0106-.461.3718-.9513.77-.9329.7648-.9838.8148-.6656.7507-1.2526,1.4461-1.0976,1.3069-1.1347,1.3591-.5581.9061-1.0754,1.7814h0a2.1033,2.1033,0,0,0-.2312.5666h0c-.1432.5818-.27,1.1334-.2808,1.2256s-.0408,1.0923-.0408,2.0161V74.17h0a2.1,2.1,0,0,0,.6021,1.4734h0a5.1779,5.1779,0,0,1,.7827.9954c.1088.221-.4567.4017-1.2567.4017s-1.53.01-1.6224.021-.9433.196-1.6844.3842-1.4114.366-1.4892.3952-.95.4448-1.7644.8582-1.6141.7968-1.7773.852-.27-.0922-.2365-.3277h0a2.0832,2.0832,0,0,0-2.05-2.3837h0c-.5653,0-1.072.0032-1.1259.0071s-.7865.1-1.5079.2044-1.3115-.11-1.3115-.4769h0a1.3106,1.3106,0,0,1,.3757-.9195l.2675-.2715a1.2921,1.2921,0,0,1,.3357-.2456l.9561-.4854a2.0544,2.0544,0,0,1,.93-.2228h0c.922,0,1.7376-.0061,1.8124-.0136s.6242-.0988,1.0542-.1862.8435-.1782.9188-.2019,1.266-.518,2.4781-1.0454h0a2.0682,2.0682,0,0,0,.6485-.4456l.4647-.4718a2.0957,2.0957,0,0,0,.5624-1.0659l.5629-2.8571a2.11,2.11,0,0,0-.0654-1.065l-.8616-2.6244a2.0937,2.0937,0,0,0-.4971-.816l-1.229-1.2478a2.0658,2.0658,0,0,0-.9632-.5533l-2.1534-.5465a2.0516,2.0516,0,0,0-.913-.0221l-.4187.085a2.0754,2.0754,0,0,0-1.5154,1.2765h0L62.5763,64.56c-.2114.5367-.3907.993-.3983,1.0141s-.3278.9909-.6947,2.1085h0a2.1087,2.1087,0,0,0-.1051.6575v1.582a2.1066,2.1066,0,0,0,.2164.93h0a2.6684,2.6684,0,0,1,.377,1.569c-.1088.2209-1.3407.2566-2.7377.0793h0a2.0538,2.0538,0,0,0-1.1883.2065l-.6321.3209a2.0742,2.0742,0,0,0-.6641.5337h0a17.0817,17.0817,0,0,1-2.0972,2.274c-.2176.11-.306-.527-.1965-1.4165h0A1.1525,1.1525,0,0,0,53.09,73.14h0a2.4263,2.4263,0,0,0-.7795.3058h0c-.8377.51-1.55.946-1.5822.9682s-.4549.3371-.8666.6506-.604-.4577-.4272-1.7139h0a2.1,2.1,0,0,1,.39-.9554h0c.3928-.5317.7683-1.0234.8345-1.0927s.8622-.7571,1.621-1.3734h0a2.0616,2.0616,0,0,1,.89-.4206h0c.7043-.143,1.3417-.2662,1.4164-.2737s.5916-.0273.9817-.0273h0a2.0775,2.0775,0,0,0,2.0576-1.86h0c.1-.9159.1864-1.6919.1913-1.7246s.3374-1.739.7275-3.7194h0a3.4285,3.4285,0,0,0,.0646-.662h0A2.0855,2.0855,0,0,0,56.99,59.202h0c-1.0106-.228-1.8684-.4233-1.9062-.4339s-1.16-.3847-2.4089-.8074-2.3017-.7808-2.3388-.7956-1.0577-.48-2.1853-1-2.0938-.9708-2.1473-1.001-.9505-.6214-1.8741-1.2465-1.6976-1.15-1.72-1.1665-.8369-.6562-1.76-1.3851-1.7183-1.363-1.7672-1.4092-.9294-1.0158-1.8474-2.0514-1.6966-1.9188-1.73-1.9626-.6595-.9781-1.3166-1.9788h0a2.0585,2.0585,0,0,0-2.7951-.6347h0c-.0873.0532-.1962.1161-.2421.14s-.7608.3451-1.4868.661l-3.82,1.6621h0a2.0556,2.0556,0,0,1-.5612.1543h0c-1.5805.2006-4.8433.5186-7.2507.7066h0a2.0616,2.0616,0,0,0-1.3083.61h0c-.9072.921-1.7363,1.7885-1.8425,1.9276s-1.916,2.908-3.7878,5.8464l-.9494,1.718-.5349.9681c-.7782,1.8541-1.4227,3.3955-1.4322,3.4253s-.2681.9385-.554,1.9545S6.1166,67.8822,5.79,69.2078s-.8606,2.41-1.187,2.41S4.01,70.58,4.01,69.3106s.0059-2.3683.0132-2.4429.279-1.5536.5876-3.12.5709-2.8858.5829-2.9315.467-1.4563.9845-3.0326.9619-2.9153.9876-2.9755.6811-1.3278,1.4-2.6824,1.331-2.5023,1.3613-2.55,1.5811-2.1662,3.3786-4.6h0a2.0961,2.0961,0,0,0,.3055-.5918l.1613-.4914a2.1068,2.1068,0,0,0,.1-.8055l-.1769-2.5157c-.1947-2.7673-.2986-5.3524-.2309-5.7446a20.8732,20.8732,0,0,1,.9348-3.0088A10.0584,10.0584,0,0,1,16.04,29.2829a17.6719,17.6719,0,0,1,3.054-2.3643c.7154-.3228,1.3731-.6094,1.4614-.6368s.9823-.2182,1.7888-.3627S23.9854,25.6408,24.0516,25.6349Z" transform="translate(0.8 0.368)"/>
    <g>
      <path class="cls-2" d="M24.0929,26.099c-.1911-.0409-.0983-.2031.417-.17l.3825.23Z" transform="translate(0.8 0.368)"/>
      <path class="cls-2" d="M27.5173,25.6665c.6112.1113,1.3126.3077.93.5209-.6045-.2217-.7446-.1288-1.4015-.3927-.5161-.0262-.8929.0754-.8008.16-.1856-.059-.7934.0518-1.0805-.0929a5.83,5.83,0,0,1,2.3981-.0415C27.75,25.7694,27.563,25.7092,27.5173,25.6665Z" transform="translate(0.8 0.368)"/>
      <path class="cls-2" d="M75.32,17.0523l-.3258-.0509A2.53,2.53,0,0,1,75.32,17.0523Z" transform="translate(0.8 0.368)"/>
      <path class="cls-2" d="M93.6646,39.4208c.0038-.24.0262-.3425.047-.356C93.698,39.2891,93.6851,39.4732,93.6646,39.4208Z" transform="translate(0.8 0.368)"/>
      <path class="cls-2" d="M93.9184,44.8392l-.0138-.322A.9492.9492,0,0,1,93.9184,44.8392Z" transform="translate(0.8 0.368)"/>
      <path class="cls-2" d="M75.32,17.0523l.84.13C76.1933,17.2673,75.7236,17.1331,75.32,17.0523Z" transform="translate(0.8 0.368)"/>
      <path class="cls-2" d="M34.4572,26.22a3.09,3.09,0,0,1-.4525-.0609l.425.0245A.1707.1707,0,0,0,34.4572,26.22Z" transform="translate(0.8 0.368)"/>
      <path class="cls-2" d="M61.6708,14.7448l-.2556-.0228a1.6834,1.6834,0,0,1-.2136-.1127Z" transform="translate(0.8 0.368)"/>
      <path class="cls-2" d="M51.17,16.5776c.2273-.0818.3665.0794.48.1341a1.1792,1.1792,0,0,0-.54.0315C51.095,16.7088,51.1111,16.6567,51.17,16.5776Z" transform="translate(0.8 0.368)"/>
      <path class="cls-2" d="M36.5186,24.6949l-.2613.1413Z" transform="translate(0.8 0.368)"/>
      <path class="cls-2" d="M69.2794,15.4132a.2148.2148,0,0,1,.1079-.06C69.3833,15.3777,69.3415,15.3971,69.2794,15.4132Z" transform="translate(0.8 0.368)"/>
      <path class="cls-2" d="M15.1866,32.3273c-.0158.0015-.02-.0113-.0322-.0138C15.1933,32.2723,15.2124,32.263,15.1866,32.3273Z" transform="translate(0.8 0.368)"/>
      <path class="cls-2" d="M24.0471,25.5844l-.1686.0173a.2553.2553,0,0,1-.0473-.1037Z" transform="translate(0.8 0.368)"/>
      <path class="cls-2" d="M91.1559,54.5105l.0184-.0409C91.3208,54.2518,91.2451,54.38,91.1559,54.5105Z" transform="translate(0.8 0.368)"/>
      <path class="cls-2" d="M60.1705,73.4055c1.0652-.1-1.6981-.3561-.102-.429C59.9008,73.0566,61.5171,73.342,60.1705,73.4055Z" transform="translate(0.8 0.368)"/>
      <path class="cls-2" d="M34.7305,26.194a2.8118,2.8118,0,0,0,.5137-.0253A2.085,2.085,0,0,1,34.7305,26.194Z" transform="translate(0.8 0.368)"/>
      <path class="cls-2" d="M60.0685,72.9765V72.975l.1628-.008Z" transform="translate(0.8 0.368)"/>
      <path class="cls-2" d="M75.9578,70.0036a.6219.6219,0,0,1-.0366-.2192C75.9394,69.7946,75.9529,69.8459,75.9578,70.0036Z" transform="translate(0.8 0.368)"/>
      <path class="cls-2" d="M86.9061,58.7053l-.3246.2562C86.7059,58.8538,86.8117,58.7732,86.9061,58.7053Z" transform="translate(0.8 0.368)"/>
      <path class="cls-2" d="M75.1049,77.6045a2.5564,2.5564,0,0,1-.5818.0231.5529.5529,0,0,1,.0883-.0251A1.2927,1.2927,0,0,0,75.1049,77.6045Z" transform="translate(0.8 0.368)"/>
      <path class="cls-2" d="M66.08,79.66a.7534.7534,0,0,0,.5179.4068.7038.7038,0,0,0,.4264-.0333l.137-.0594-.104.0573a.47.47,0,0,1-.2106.0719.7078.7078,0,0,1-.49-.1072A.7555.7555,0,0,1,66.08,79.66Z" transform="translate(0.8 0.368)"/>
      <path class="cls-2" d="M7.1316,57.5418a1.52,1.52,0,0,0-.038-.4467C7.1826,57.2708,7.6376,56.0559,7.1316,57.5418Z" transform="translate(0.8 0.368)"/>
      <path class="cls-2" d="M34.4618,26.1092a.4176.4176,0,0,0,.2687.0848l-.3008-.0106C34.4035,26.1542,34.3977,26.1265,34.4618,26.1092Z" transform="translate(0.8 0.368)"/>
      <path class="cls-2" d="M74.7032,76.0576a9.7957,9.7957,0,0,0-1.5335.1058A7.433,7.433,0,0,1,74.7032,76.0576Z" transform="translate(0.8 0.368)"/>
      <path class="cls-2" d="M36.9488,46.597l-.1951-.2567A1.1593,1.1593,0,0,1,36.9488,46.597Z" transform="translate(0.8 0.368)"/>
      <path class="cls-2" d="M68.8441,77.4788a5.5294,5.5294,0,0,1-.6986.49.7066.7066,0,0,1-.1633.0219Z" transform="translate(0.8 0.368)"/>
      <path class="cls-2" d="M7.0926,57.0915l.001.0036Z" transform="translate(0.8 0.368)"/>
      <path class="cls-2" d="M11.6717,49.0841c-.7947,1.0894-.5886.3738-.8836.5249a2.2076,2.2076,0,0,0-.43.6777c-.058.1439-.06.2123-.0414.2548.0378.0848.1591.0672.0887.34-.522.84-1.0986,1.4006-1.4319,2.0678.0122.0687-.0407.2036.0851.0777a13.8266,13.8266,0,0,0-1.0828,1.824c-.3446.7264-.5581,1.5308-.8925,2.0654a.4285.4285,0,0,0,.01.1749c-.0592-.2335-.1729-.3086-.274-.3012-.1948.5753-.5121,1.02-.4212,1.292a1.14,1.14,0,0,1,.2909-.5128l-.2685.5821c.0527.6189.35-.801.5216-.74a32.4465,32.4465,0,0,0-1.33,3.3965c.1686.2491.7646-2.0934.5762-.8306l.3666-1.4223c.0121,1.1768.25-.8534.3152.2439a21.3092,21.3092,0,0,0-1.113,3.8993c-.213.395-.1629-.1832-.3763.2134-.7549,2.65.1769,2.1981-.4884,4.1046a3.1844,3.1844,0,0,0-.308,2.1059l.2712-.4763a5.1794,5.1794,0,0,1-.1286,1.4082,1.4064,1.4064,0,0,0-.0222.4715,1.7155,1.7155,0,0,0,.08.3523,1.0313,1.0313,0,0,0,.0812.1841.1851.1851,0,0,0,.04.0526s.013-.0075-.0057.0075c-.0409.0319-.0835.0733-.1114.09a1.0177,1.0177,0,0,0-.1465.1566,1.3888,1.3888,0,0,1,.3051-.2813c.0084-.0039-.002-.0357-.0113-.08-.0208-.086-.0514-.2124-.07-.3328-.04-.24-.0574-.4314-.0242-.3081l.1866.5243a.3778.3778,0,0,1,.02.1079l-.007.0276c-.003.0086-.001.0021-.0135.008l-.1074.0718-.17.138c-.0453.0407-.0879.1052-.1074.1233-.0617.0791-.019.1348-.0548.0252a.7153.7153,0,0,0-.1332-.2313c-.1177-.1615-.083-.0831-.07-.1109a.4355.4355,0,0,0,.1239-.1445L4.3822,70.65a16.0737,16.0737,0,0,0,1.0186-2.7683c.3333-1.04.674-2.1058.9844-3.1821-.1.1011-.2715.453-.2062-.0728.3561-1.1587.7023-2.4025,1.0382-3.66l1.3445-3.5994.0015-.004.0416-.0851.5234-1.0694.6879-.82c.116-.2148.1393-.4437-.0234-.2318.4524-.9791.1394.017.4583-.3929.3319-.51.3336-.7391.0678-.4473.59-.7511,1.4009-1.8308,2.1759-2.9444.3876-.5569.7664-1.1227,1.1051-1.6621l.4743-.7848a7.7257,7.7257,0,0,1,.4949-.655l-.3214.25a5.5619,5.5619,0,0,1,1.2707-1.11,5.002,5.002,0,0,0,.5445-.4144,4.6987,4.6987,0,0,1,.8372-.66,2.7414,2.7414,0,0,0-.3225.1343,2.6153,2.6153,0,0,1,.7322-.3353,4.3807,4.3807,0,0,1,.7325-.1147l1.2648-.1283,2.5072-.24c.8187-.0812,1.6123-.1668,2.3558-.2667l.5478-.0777.2662-.0412.1688-.0692a4.66,4.66,0,0,0,.79-.4057c.5605.0788,2.9669-1.4347,3.327-1.1416.7984-.472,1.0956-.663,1.4136-.8931l.1083-.0886.215-.1424a2.6818,2.6818,0,0,1,.5879-.2573,2.8571,2.8571,0,0,1,2.0813.1829,1.9991,1.9991,0,0,1,.8884.9337,7.3833,7.3833,0,0,0,.45.98l.1887-.1059.4654,1.11a4.0059,4.0059,0,0,0,.5925.3305l.4926.6409c-.2231-.2335-.53-.4536-.5461-.3785a9.2021,9.2021,0,0,0,2.2644,2.1557l.9295,1.1717c.3478.3493.7277.6647,1.0916,1.0011.0042-.1076-.3646-.4391-.6335-.7229,1.0909,1.1481.3716.0042,1.37,1.0572-.1825-.0827.0026.1662.0038.222.6568.3586,1.9624,1.4023,2.9818,2.1071l-.1118-.2556,1.4114.941a9.0557,9.0557,0,0,0,1.4895.9192c1.0633.5209,2.1747,1.0629,3.3148,1.5815-.84-.3092-.7572.0126-.0944.3434l.3529-.0887c.3854.3157-.7391-.2228.0981.3127.9011.2782.6895-.04.2094-.2809l1.0484.44c.0864-.0425-.1536-.162-.1888-.2655.3945.2849,1.9236.4111,2.4845.8569l.08-.0445a26.6262,26.6262,0,0,0,2.8757.8077,3.0841,3.0841,0,0,1,2.368,2.84c-.1571.0991-.2239,1.1217-.5115,1.63l-.3311,2.3694a11.6561,11.6561,0,0,0-.1427,1.2682L58.51,66.98c-.0274.2362-.0294.3912-.0966.7495a2.218,2.218,0,0,1-.3587.7688c-.0906.1141-.1261.1305-.1464.1221-.0428-.0217-.0177-.1242-.2814.1395.0461.1052-.3538.6181-.7777.8542-.41.2326-.7167.3454-.064.1718a2.8918,2.8918,0,0,1-1.0356.2517l-.6623.0113a4.6981,4.6981,0,0,0-1.0819.1134l-.5639.0886a1.5821,1.5821,0,0,0-.4509.1093,1.3782,1.3782,0,0,0-.2143.1137l-.3.226-.729.5528c.1716-.24.4026-.478.2312-.4131-.3959.2966-.8012.7743-.6849.7883l.1115-.07a3.2414,3.2414,0,0,0-.7887.8282c-.111.1451-.2626.3346-.3385.4527a1.343,1.343,0,0,0-.1687.4143,4.2647,4.2647,0,0,0-.03,1.0911,1.5236,1.5236,0,0,0,.0446.2259.2513.2513,0,0,0,.0266.0663c-.01.016.0377.0007-.0236.0188-.0808.0287-.1772.0947-.2286.1148-.2953.1653-.1553.295-.2451.055a.5729.5729,0,0,0-.1117-.1844l-.009-.01-.1416-.1851.002-.0017.008-.0069.016-.0138.032-.0275.128-.11a15.2387,15.2387,0,0,1,2.0668-1.517,3.76,3.76,0,0,1,.63-.3467,2.8037,2.8037,0,0,1,.76-.2021,1.8911,1.8911,0,0,1,1.6155.589c-.0566-.056-.1126-.1143-.1749-.1657a1.9759,1.9759,0,0,1,.72,1.9087,5.3306,5.3306,0,0,0-.0849.5592c-.0089.09-.0131.1766-.0137.2514l.0012.0971v.0256a1.8531,1.8531,0,0,0-.2358.0885c-.2908.1223-.2521.2495-.2629.1518l-.1052-.2048a1.6767,1.6767,0,0,0-.1694-.2461c-.0227-.0183.0029-.0162.0008-.024.0159-.0191.0369-.05.029-.0523-.004-.007-.0245,0-.049.0083l-.0283.0035c-.0428-.04.0995.12.1478.1985a2.6636,2.6636,0,0,1,.1671.3031c.0228.1168-.007.0007.14-.0663a1.7376,1.7376,0,0,1,.39-.17c.08-.02.0675-.0229-.0832.027a2.1928,2.1928,0,0,0-.2831.1266c-.1043.04-.1716.1723-.151.129a.0817.0817,0,0,0-.0131-.0463c-.031-.0521-.08-.1708-.13-.2457a1.69,1.69,0,0,0-.1755-.2362l-.1021-.1461.0037-.0012c.0051.0024.0312-.0147.0555-.0311l.1657-.1267c.115-.0945.23-.1975.34-.3012.2208-.2079.4257-.4195.6172-.6285s.37-.4166.5395-.6222l.2491-.3079a2.921,2.921,0,0,1,.3757-.3878,2.8417,2.8417,0,0,1,.4363-.3085l.363-.1959.34-.18a2.7924,2.7924,0,0,1,.4935-.2,2.6707,2.6707,0,0,1,1.09-.09l.807.1343a7.0627,7.0627,0,0,1,.7367-.1191,4.7771,4.7771,0,0,0,.7168-.1164,3.8589,3.8589,0,0,0,.2089.5651,1.1735,1.1735,0,0,0,.12.18l.0256.0223.0157.0086.0085.0036.0045.0016-.105-.0522a.354.354,0,0,0-.0876-.0361,2.0161,2.0161,0,0,0-.5355-.0663l-.1407-.0044,0-.0013-.0028-.02a2.4022,2.4022,0,0,0-.0873-.3654,4.5391,4.5391,0,0,0-.167-.45l-.141-.3226a3.0333,3.0333,0,0,1-.131-.4315,3.276,3.276,0,0,1-.0707-.8421l.0124-.6233a10.66,10.66,0,0,1,.0626-1.3861,3.2371,3.2371,0,0,1,.1021-.4039l.0863-.2777.1564-.5372c.0962-.3491.1754-.6788.2309-.9817l.0734.1749c.3044-.5556.1872-.7425.329-1.1908.0659.0968-.147.6812.06.3378l.765-1.8487.186-.4646.0924-.2331a3.3151,3.3151,0,0,1,.14-.307,2.908,2.908,0,0,1,1.533-1.3672,3.91,3.91,0,0,1,.6115-.1687L65.12,60.46a2.9091,2.9091,0,0,1,1.0644-.0248l2.0522.46a3.5133,3.5133,0,0,1,1.24.456,3.29,3.29,0,0,1,.5472.4409l.3712.3532.7429.7061a3.3268,3.3268,0,0,1,.46.5158,3.1126,3.1126,0,0,1,.36.6649l.71,1.9529.1722.4788.0856.2392a3.31,3.31,0,0,1,.1045.3549,3.1878,3.1878,0,0,1,.083.7684,3.9946,3.9946,0,0,1-.0784.6872,3.3262,3.3262,0,0,1-.5782,1.5253,2.1881,2.1881,0,0,0-.2659.62,5.4648,5.4648,0,0,0-.1133.5547,3.3022,3.3022,0,0,1-.36,1.0017,2.943,2.943,0,0,0,.6242-.8174,3.189,3.189,0,0,1-.5064.9726,3.1176,3.1176,0,0,1-.356.3918l-.2749.2568a3.9523,3.9523,0,0,1-.7615.6118,6.3733,6.3733,0,0,1-.82.3646l-1.4508.5968c-.2445.0968-.4761.211-.7309.2944l-.813.1842a9.1012,9.1012,0,0,1-1.61.2371l-1.5733.0082a2.0936,2.0936,0,0,0-1.0142.343l-.3354.1562c-.0506.0245-.1238.0544-.1557.0742a.2377.2377,0,0,1-.0514.0391c-.0117-.0525-.3625.3033-.3985.3218a1.0046,1.0046,0,0,0,.4192-.2373c.0077-.0068-.1012.1393-.1824.2351l-.07.0818-.0177.0287-.027.0527a.5629.5629,0,0,0-.0407.1185l-.006.0322-.0012.0082,0,.002,0,.0011v.0007c.5676,0-.7732,0-.6352,0l-.0031-.0005s-.02.0026-.0113.001a.456.456,0,0,0,.18-.1465,1.318,1.318,0,0,0,.1273-.1887,1.5757,1.5757,0,0,1,.0729-.142c.0028.0083.0265.0206.0514.0335a1.1884,1.1884,0,0,0,.1987.06c.1395.03.24.0483.2557.0819.6214-.1.1276-.1424.5052-.2638a4.3013,4.3013,0,0,1,1.4632-.0927c.25.02.485.0392.687.0422.2193.0025.4832.0143.636.0056.114-.0115-.3255-.1151-.551-.1224a3.4021,3.4021,0,0,1,1.8794.7126c.56.47.75.9773.4877.7093A2.7351,2.7351,0,0,1,67.44,78.65c.0115.1219.0089.244.01.3646l-.0163.1789-.0094.0889-.0051.0442-.0012.011,0,.0028c.1513.0219-.2061-.0281-.17-.0232l-.0017,0-.0071-.0012-.0286-.0038a.6915.6915,0,0,0-.4173.0637c-.0442.0288-.0471.0544-.042.0354a.1536.1536,0,0,0-.0018-.0527.2525.2525,0,0,0-.0109-.0436l-.1544-.4871c-.036-.1137-.0131-.0537-.0164-.071l.0066-.003a14.302,14.302,0,0,0,1.5711-.7846,6.7574,6.7574,0,0,0,1.4942-.65,1.5808,1.5808,0,0,1,1.2034-.2794c-.1012-.128.53-.3916,1.3292-.5693.398-.0934.8328-.179,1.227-.2443a8.6313,8.6313,0,0,1,1.0144.0669c-.3352-.0909.85-.1115.4618-.2383.3131-.0033.4883.0034.67-.01l.222-.0191.07-.0072c.0268.0241-.0218-.0834.0915.1711.1515.338.3356.5061.3843.5014-.0077.0008.012.0012-.0077.0022l-.022.007-.0083.0054-.6253.3071c-.061.03-.009-.0019-.0236-.0076.0044-.0479.0195-.0872.0708-.0822l-.4458-.4223-.2237-.2168a2.7383,2.7383,0,0,1-.3174-.3661,2.771,2.771,0,0,1-.4955-1.8036,5.1006,5.1006,0,0,0-.126-2.1921l.0877-1.2239.0432-.6008a5.9657,5.9657,0,0,1,.1472-.5962,6.5347,6.5347,0,0,1,.4152-1.2547,2.8574,2.8574,0,0,1,.32-.5681l.3135-.4747.6177-.9387c.22-.3.4892-.5638.7283-.8447l1.4728-1.6259c-.3125-.1459-2.1071,2.4213-2.2848,2.1348.9385-1.0411,1.731-1.8049,2.5-2.5692l2.7849-2.1478c.5351-.4421-.4.1215-.6235.217l3.2272-2.2073,1.5378-1.05.7651-.4964c.2362-.1545.5665-.337.6792-.4423-.0362-.0165-.1255.0595-.3758.19a3.6547,3.6547,0,0,0,.4192-.34c.1166-.1006.2365-.2294.27-.1518a1.205,1.205,0,0,1-.2948.2491c-.12.2183.168.2021.6311-.2272a9.6672,9.6672,0,0,1,1.0074-.8227c-.8323.3447,1.4228-1.8343.1981-1.1941.2173-.2136.5185-.4629.5516-.3544.2693-.3593.3149-.4988-.069-.2158a3.7369,3.7369,0,0,0,.5557-.6825c.1171-.1608.2007-.2582.28-.3529a5.4078,5.4078,0,0,0,.66-1.0243c-.0621-.0314-.2306.2185-.3741.31.2392-.294.48-.5908.732-.9567.1258-.183.2544-.3832.3865-.6087a1.448,1.448,0,0,0,.2254-.675c-.054.0455-.0849-.04-.1482.2357a60.4113,60.4113,0,0,0,1.36-5.9352c-.3224.6732-.0846-.82-.3568-.963l.082-1.2691.1249.5164c.0039-1.1166.1863-2.1165.0946-3.0835l-.1028.84.0378-2.1088.1055,1.188c.1253-1.15.3365.1039.2436-1.4.025.3058-.1939-1.1225-.4465-1.69v.0039a7.9513,7.9513,0,0,0-.2267-1.9648c-.12-.2043-.2573.21-.3363.0771.1238-.574-.3845-2.6234-.2724-3.353-.0147.24-.148.2742-.1886.2032l.0971-.4882c-.1451-.5106-.1852-.5821-.2785-.4791-.15-.78-.0471-.6695.0361-.5934.0415.038.0781.0675.0756-.0271a2.2543,2.2543,0,0,0-.18-.7118c.0252.1249-.0075.0759.02.3322a1.9493,1.9493,0,0,0-.2079-.5407l-.3539-.5723-.6938-1.1683c-.4482-.7581-.9068-1.5595-1.3853-2.2091-.22-.0592-.0766.1157.1178.4706.1875.32.3745.629.1245.4392l-.4543-.76a2.2443,2.2443,0,0,0-.5753-.53l-1.5226-1.1761c-1.0163-.7837-2.0357-1.5528-3.0437-2.2143l.3846.2315c-.0991-.4911-1.5242-.9544-2.5957-1.5066.2592.146.2592.3412.2057.272-1.5181-.6208-3.0144-1.4456-5.27-2.5534l.2522.214a3.7675,3.7675,0,0,0-.7948-.21l-.9235-.2051c-.63-.1452-1.2686-.2978-1.7811-.4-.2788-.1652-.8686-.2866-.4818-.3385-1.639-.0962-3.1-.5993-4.5985-.7427a19.3555,19.3555,0,0,0-4.3669-.364c.3411.0315.8069.1557.5361.1319L61.5124,15.67c.192-.1445.318-.0694.8322-.15a4.23,4.23,0,0,0-.6908-.1827,2.2763,2.2763,0,0,0-.9156-.0533c.5506-.0255.5488.1057.3509.1391-.1971.087-.5872.1957-.8193.2694.0766-.0591-.087-.094-.05-.1492-1.2475.4416-.2345-.2987-1.9587.1059l.1017.0732a16.6444,16.6444,0,0,0-1.9688.1268c-.2585.2232.7066-.0065.7741.14a12.2105,12.2105,0,0,1-1.4749.038,2.44,2.44,0,0,0-1.3644.2607,6.3545,6.3545,0,0,1,1.4381-.1751c-.4614.1775-.7242.2368-.9532.3085l-.7649.272.0665-.0262-1.5629.5952.388-.1842c-1.3182-.1019-2.4234.6777-4.1252.8878,1.6569-.215.3172.0817.512.2414l-.6064.291c-.1663.099-.2552.1858-.1624.1717-.775.1771-1.1283.682-2.2309.9255-.0167.083-.7569.3645-.5229.444-.9374.3922.164-.2116.0525-.2513a14.0043,14.0043,0,0,0-2.443,1.19c-.2168.1275-.4523.2346-.6686.38l-.64.4728a11.057,11.057,0,0,1-1.4158.8621c-1.7252.9915-2.1583,1.0034-3.745,1.9228-.4553.4346.5577-.0728.5577-.0728a12.878,12.878,0,0,1-1.1013.8166,2.3,2.3,0,0,1-1.34.4777c.2263.0318-.0083.126-.311.1951-.754-.0178-.5042-.2485-1.4988-.1478a3.1674,3.1674,0,0,0,.7533.2742c-.8888-.0628-1.7665-.19-2.6864-.2518-.2438.119.5549.18.88.2582a14.469,14.469,0,0,1-2.992-.2931l.66-.0683c-.3763-.0083-.19.1621.0873.1961.8834.1464,1.2713-.067,1.322-.1357l-.6537-.0428c.6695-.4025,2.6307.0636,3.9488.04l-.55-.2912a6.2864,6.2864,0,0,0,1.3936.1737c.2873-.1769.3823-.3523-.2247-.2411a8.1353,8.1353,0,0,0,.76-.326,2.05,2.05,0,0,0,.6252-.4583c.0609-.0706.02-.06-.0556-.0236l.815-.439c-.184.0492.0146-.2567-.4334.0923,1.2819-1.056,2.3427-1.2985,2.7363-1.8258l-.1253.0619c1.9617-1.1967.3175.056,1.87-.7165l.6711-1.1163.2964.052c.1873-.1508.621-.34.495-.3855.8717-.258-.09.1463.4409.0436.9406-.67,2.88-1.2856,2.9727-1.7.4383-.0272-.9389.581.213.1629.1736-.4707,1.29-.5744,2.1949-1.1152-.3825-.0991-1.2309.4618-.3465-.1563.7159.1,1.9229-.6936,2.7916-.91.1156.2253,1.8728-.479,3.3134-.8415-.0259-.0078.121-.0948.39-.17l1.099-.2023,2.6181-.4632-.0454-.0373c.2963.235,1.7105-.0244,2.7462-.0412-.0425-.1714-.2293-.2219-.797-.2157a3.6242,3.6242,0,0,1,.98-.05,4.3635,4.3635,0,0,0,1.1682.2579l-.242-.2136c1.3064.13,2.6136.4464,4.2879.4891.0691.1868-1.3712.3667.36.657.0767-.09.1626-.2478-.2914-.3323a3.8105,3.8105,0,0,0,.8332.1212l-.68-.2306c.7656.0034.3783.174.9837.2183.0069-.1381.4611-.0536.39-.1707a4.7009,4.7009,0,0,1-.7605-.0721,8.5038,8.5038,0,0,0,1.8151-.033c-.0746.0862-.0245.1513.4622.2832,1.2646.307.463-.0619,1.2176.0422.289.1662,1.12.2591,1.0971.4659a1.0912,1.0912,0,0,0,.6173-.0125c.637.2436,3.0678.77,2.2641.8l-.172-.0269L74.87,17l-.0053-.0013L74.87,17c.5146.1994,1.0757.2842,1.5957.5078.519.2263,1.0488.4374,1.5806.6455,1.0644.4117,2.1349.825,3.1145,1.3163l.0281-.0632.9132.4573.4713.2275a4.88,4.88,0,0,1,.4227.2961,15.4353,15.4353,0,0,1,1.3952,1.1165c.316.2187.8125.41.7205.2458a12.6843,12.6843,0,0,0,2.0863,1.464c-.7578-.6716.3432.1077-.7963-.659a11.9432,11.9432,0,0,1,2.4522,1.7244c-.1848-.2273.1079-.1457.47.1982a5.0294,5.0294,0,0,1,.7272,1.0822l-.5979-.7118c.3658.6251.6832,1.107,1.0259,1.6237l.0216-.404a12.6992,12.6992,0,0,1,1.046,1.5716l.4224.7769a2.9045,2.9045,0,0,1,.3561,1.02,10.2685,10.2685,0,0,0,.6042,3.1257c-.0435.7171-.3548-1.4044-.4377-.7544.2348,1.1944.7789,2.4036.8438,2.7829.4084,1.639-.0768,1.5808.3031,3.2951-.1467-.2109-.3161-.4046-.296.8968.0384,1.2137.3579,1.4863.4191.705.005-.2957-.0223-.4365-.05-.422.0273-.399.059-.9252.1524-.444l-.0817.1664c.0892.6047.0916,2.3055.2251,1.9029-.0731.9373-.1336.401-.1811-.2873.136,1.58.0039,2.4758.0783,4.1144-.044-.2644-.14-.51-.1407-.2521a3.2538,3.2538,0,0,1-.0926,1.1856,1.49,1.49,0,0,1-.1423.4091,2.4028,2.4028,0,0,0-.3434,1c-.0463.9117.3612-.2807-.0487,1.2932-.1017.984.1781.2409.32-.1375a10.7693,10.7693,0,0,0-.3892,2.0076l-.0911.8924a2.8168,2.8168,0,0,1-.1377.5179,3.8721,3.8721,0,0,1-.1735.3835,3.0822,3.0822,0,0,0,.4524-.9688,3.63,3.63,0,0,1-.3589.8672l-.293.5216.0733-.4758c-.1984.4188-.3878.7623-.3238.79-.3242.3611-.0634-.456-.6458.2894-.225.5806-.9764,1.577-.8968,1.886.8739-1.73.08.3117.9055-1.1042a8.2894,8.2894,0,0,0-.5638,1.024c-.0134.0748.07-.0319.1419-.1358-.0926.2172-.172.39-.2416.5288a2.9708,2.9708,0,0,1-.2416.2853,1.3368,1.3368,0,0,1-.346.2637,3.2328,3.2328,0,0,0-1.0662.96c.2559-.11-.1021.4849-.3263.7084.5-.5936.0761-.41-.4534.0671-.1793.2488-.3266.434-.4525.5793a2.9,2.9,0,0,1-.4382.377c-.2855.22-.4151.22-.684.4255.1964-.1642.3584-.2622.5832-.4808a9.6779,9.6779,0,0,0-1.4848.87c-.004.12.6635-.3776.4418-.1725-.89.3494-1.5992,1.38-2.7495,1.9954-.4449.41.0881.2229-.3119.5685A28.4033,28.4033,0,0,0,80.94,63.3366c.2335-.4033.3168-.42-.6062.12.6546-.4976,1.3354-.9769,2.0392-1.421-.4731.2545-.9729.4812-1.4277.7632.5809-.4782,1.3426-.86,1.6843-1.1549-.6982.3386-.6113.3268-.4.0025-.692.79-1.7432,1.1164-2.5332,2.0018L80,63.9333c-.146.157-.3066.2849-.4446.4373-.13.1623-.2635.3167-.4.467-.2716.301-.5576.5843-.8548.8829l-.9218.9691A6.5611,6.5611,0,0,0,76.5351,68l.32-.67a2.4441,2.4441,0,0,0-.5417.7413l-.3113.5468a4.0791,4.0791,0,0,1-.1951.4434c.1491-.0318.0983.4164.1147.7229a1.3719,1.3719,0,0,0-.1771.7995c-.0267.44-.0768.91-.2169,1.01l.1708,1.0306c.1378,1.97-.7022,1.9715.7154,3.4321-.2434-.526.3831.0256-.3614-.9567.3977.3932.825.9315.7387.9892a.8725.8725,0,0,1,.135.1815l.0419.0773a.8275.8275,0,0,1,.0818.3038.7537.7537,0,0,1-.2634.6062,1.5553,1.5553,0,0,1-.9181.3c-.2617.0188-.5222.01-.7428.0044a2.0619,2.0619,0,0,0-.5137.041,2.1512,2.1512,0,0,0-1.003-.1829c-.0689.0285.0109.0676.0109.0676-.01-.0813-1.03.138-.4848-.1468a10.7614,10.7614,0,0,1-1.52.5464,8.2669,8.2669,0,0,0-1.7333.604c-.5687.2685-1.1138.5249-1.6509.7978-.2626.1343-.51.2679-.7353.4015l-.3215.2006-.1473.1005a.5613.5613,0,0,1-.4288.0759.7151.7151,0,0,1-.5274-.6335.9962.9962,0,0,1,.0036-.2538l.0141-.1135a1.4949,1.4949,0,0,0,.0027-.4016,1.5793,1.5793,0,0,0-.31-.7624,1.6255,1.6255,0,0,0-1.4184-.64c.07.0424.0158.0655.2137.0565-1.5866.1214-.9912-.3908-2.87-.0245-.535.1114-.2652.1559.0841.1494.3373-.0265.635-.0759.3585.0056-.043.1157-.1981.2078-.5244.2411a1.7508,1.7508,0,0,1-1.2658-.363.9941.9941,0,0,1-.3361-.56,1.2938,1.2938,0,0,1-.0168-.1877l.0061-.1012c.0063-.0657.0152-.1314.0278-.1966a2.0142,2.0142,0,0,1,.3026-.733,2.21,2.21,0,0,1,.2425-.2987l.1814-.2014a6.471,6.471,0,0,1,.5173-.4763c-.1284.0723-.2624.1565-.3905.244a2.4591,2.4591,0,0,1,.43-.3352c.1172-.0662.2427-.13.3752-.1925a5.5868,5.5868,0,0,1,.99-.3826,2.698,2.698,0,0,1,.6674-.0642l.55.0356c.3593.0212.7352.0332,1.12.0231,0,0-.0784-.04-.0151-.0684a7.6766,7.6766,0,0,0,2.0857-.1185c.7842-.2551,1.6128-.5782,2.3244-.84-.5031.0192-.6675.1795-.4728-.0989.3144-.1188.2973-.0328.3586.0235.0463.0356.2433.1295.7736-.2065.1235-.156.3339-.4595.52-.7231.1592-.2393.2-.4754.1352-.5613a1.5629,1.5629,0,0,1-.2852.3877l-.4565.456a1.8758,1.8758,0,0,1,.3117-.4657,3.958,3.958,0,0,0,.2954-.35,1.5175,1.5175,0,0,0,.2083-.3913,3.5872,3.5872,0,0,0,.1165-.5263l-.1238.0642a14.4142,14.4142,0,0,1,.5513-1.94,2.0075,2.0075,0,0,0,.001-1.851l.1472.1829c-.1037-1.1883-.4494-.8773-.6185-2.0413-.1229-.0786-.25-.173-.37-.2385a1.6151,1.6151,0,0,0-.2254-.5388c-.1372-.1956-.4052-.5038-.631-.7827-.2325-.2725-.5064-.6281-.728-.8475a1.9341,1.9341,0,0,0-.8891-.446,2.4445,2.4445,0,0,1,1.0964.8972l.5876.7314a5.1568,5.1568,0,0,1,.4619.6123c-.0585-.0835-.2477-.2641-.4464-.4749l-.6125-.6532-.2809-.3129a1.9047,1.9047,0,0,0-.2021-.1957l-.3154-.2431a3.673,3.673,0,0,1,.603.4416,1.61,1.61,0,0,0-1.1245-.7756,15.166,15.166,0,0,0-1.9447-.5514c.0426.1437-.1481.1771-.4244.263-.12.0451-.4244.118-.5873.1691a1.66,1.66,0,0,0-.5308.2929,1.4951,1.4951,0,0,0-.4005.509c-.0776.1653-.1945.5209-.2752.755a4.9287,4.9287,0,0,0-.2992,1.2676,12.8458,12.8458,0,0,0-.75,1.8326l-.3058.9568-.1379.459a1.3439,1.3439,0,0,0-.0376.3355l.033,1.0252.0169.5342a1.366,1.366,0,0,0,.0484.3589,1.5787,1.5787,0,0,0,.1431.3434,5.4655,5.4655,0,0,1,.2551.5991,4.1219,4.1219,0,0,1,.1832.6782,2.2166,2.2166,0,0,1,.0351.4584,1.2271,1.2271,0,0,1-.0839.4149,1.03,1.03,0,0,1-.294.3979,1.3814,1.3814,0,0,1-.2376.1423,1.4979,1.4979,0,0,0,.1509-.1059l.0679-.0581a1.0663,1.0663,0,0,0,.11-.1189.7565.7565,0,0,0,.1719-.382.71.71,0,0,0-.01-.27c-.0243-.1033-.0489-.1111-.061-.09a1.9185,1.9185,0,0,0-.0447.2326.7992.7992,0,0,1-.1488.3426.8688.8688,0,0,1-.1218.13l-.082.0568a.8236.8236,0,0,1-.1518.0784,1.5886,1.5886,0,0,1-.6956.1046c-.1668-.0151-.2617-.0705-.2159-.1782-.7656-.0078-1.0393-.0445-1.1107-.015l-.57.0144a3.8934,3.8934,0,0,0-.5065.0139,1.5912,1.5912,0,0,0-.7547.33c-.209.1762-.03.1108.1639.0361.14-.05.3172-.0709.3067-.0186a.9519.9519,0,0,0-.2644.1114l-.25.156a.7146.7146,0,0,0-.2077.1875.9649.9649,0,0,1-.1073.1538,1.7776,1.7776,0,0,1-.1426.2029c-.0089-.0892-.0983-.0988-.2205-.0051a8.9363,8.9363,0,0,0-.7444.8808l.3489-.5612c.1029-.17.2575-.42.2989-.5076a1.8091,1.8091,0,0,0-.2371.2271l-.2327.2523c-.142.1583-.2582.2991-.3574.4286a8.085,8.085,0,0,0-.4641.687,4.5136,4.5136,0,0,1-.5143.6963,3.0147,3.0147,0,0,1-.2346.2281,1.517,1.517,0,0,1-.3172.2132,1.1886,1.1886,0,0,1-.3485.1,1.1219,1.1219,0,0,1-.4738-.0594,1.1722,1.1722,0,0,1-.3413-.2088,1.3067,1.3067,0,0,1-.1644-.1891,1.4808,1.4808,0,0,1-.2437-.7619,2.9753,2.9753,0,0,1,.0081-.5133,3.3487,3.3487,0,0,0-.0482.4629,1.4866,1.4866,0,0,0,.1535.7658,1.5887,1.5887,0,0,1-.1826-.5769,3.2876,3.2876,0,0,1-.0306-.4065,6.3677,6.3677,0,0,1,.0407-.7861l.0249-.2032a.2033.2033,0,0,1,.0073-.0542.2666.2666,0,0,0-.0024-.053.2018.2018,0,0,0-.0613-.1041.1878.1878,0,0,0-.1115-.0533,1.5137,1.5137,0,0,0-.4208.09,7.6307,7.6307,0,0,1-1.0119.3944c-.1437.1457-.3024.38.1355.1484-.2779.1844-.5863.3489-.8693.546l-.4229.3023-.2152.1507-.1352.0932a1.8813,1.8813,0,0,1-.1846.1073,1.37,1.37,0,0,1-.2919.0916,1.0576,1.0576,0,0,1-.7652-.1683,1.35,1.35,0,0,1-.2261-.2095,1.8172,1.8172,0,0,1-.1218-.1818A1.663,1.663,0,0,1,48.59,74.91a3.4484,3.4484,0,0,1-.038-.7262c.0115-.2176.0327-.4268.0633-.6288l.05-.3a2.9473,2.9473,0,0,1,.0864-.36,3.1833,3.1833,0,0,1,.6867-1.171l.6833-.8437c.51-.46.9967-.8662,1.3839-1.2717l-.2348.062c.2317-.1715.3891-.2571.6731-.4319a6.5634,6.5634,0,0,1,1.008-.4591c-.0517-.0318-.3084-.0316.0183-.1172l.924-.0788.6317-.0807a5.941,5.941,0,0,0,.6092-.0305l-.6363-.0977c.3626-.03.7069-.048,1.0341-.0579a1.4468,1.4468,0,0,0,1.2182-.6406,1.3951,1.3951,0,0,0,.1973-.4541l.1568-.7268c.1032-.4906.1854-1.0026.3292-1.55-.3058-.0412.0039-2.1493.16-3.2042l-.05.028a3.295,3.295,0,0,0,.0365-.7381,1.1937,1.1937,0,0,0-.2146-.5084c-.2432-.3237-.4416-.4028-1.2134-.6111a37.2131,37.2131,0,0,1-3.8337-1.4064,14.5155,14.5155,0,0,1-3.9309-1.298l-2.3629-1.07a6.417,6.417,0,0,1-1.1038-.6088l-1.01-.6056c.4115.2051.0653-.2425-.3465-.5584-.604-.3342-1.4416-1.2363-1.5177-.9467l.2055.133c-.6-.0594-1.6408-1.0108-2.5284-1.6932l.09-.4007a11.2465,11.2465,0,0,1-1.0087-.6184,5,5,0,0,1-.51-.3761l-.4486-.4685c-.5956-.642-1.1961-1.3354-1.7455-2.0055-.5389-.68-1.1034-1.2836-1.5162-1.8578a6.6516,6.6516,0,0,0-1.0826-1.3146l-.24-.4527a1.08,1.08,0,0,0-.2146-.2766,1.6834,1.6834,0,0,0-.6108-.3547l-.0053.2009a1.1465,1.1465,0,0,0-.6882.1469l-.224.1331a2.0361,2.0361,0,0,1-.2842.15l-.5378.248c-.7379.3391-1.49.6577-2.5749,1.1043l.4955-.0612c-1.2222.5378-1.7321.1485-2.9153.6147a4.3612,4.3612,0,0,1-.3855.4113,55.5506,55.5506,0,0,1-6.97.6859c.041.04.1159.1182.4915.0937l-.492.058c-.16.0217-.4657.055-.5372.073a1.2268,1.2268,0,0,0-.6409.3766c-.5717.5964-1.0641,1.0311-1.0871.7626.0958.1022-.312.5-.82,1.0184-.4336.5952-.9891,1.2905-1.3726,1.7757l.2638-.0486a8.8828,8.8828,0,0,0-1.6961,1.9086c-.1671.3042-.0334.3384.174-.0735-.5394,1.02-.6444.6549-1.3166,1.8829l.39-.3724a5.9117,5.9117,0,0,1-1.05,1.4055,8.866,8.866,0,0,0-.8587,1.71l.0207-.0425a1.2214,1.2214,0,0,0-.0618.5371,3.2206,3.2206,0,0,0-.7669,1.3135c.0263.1094.1632-.11.2312-.2207-.2961.9409-.7054,1.5689-.9062,2.2a8.0933,8.0933,0,0,0-.5155,1.8545c.0549.045.0631.14.0524.2548.4156-1.5229.74-2.7428.7194-2.6251.1428.0457-.1506,1.2776.3537.383a19.7357,19.7357,0,0,0-1.3921,3.7618.69.69,0,0,0,.0176.1752l.0527-.1192a4.15,4.15,0,0,1-.2314.7526c-.0741.3913-.1181.6405-.2142,1.01a8.8522,8.8522,0,0,1-.458,2.0506c-.1767-.1053-.3648.7353-.3182-.0787-.0125.1011.0541-.1108.1716-.5182.03-.0912.0624-.1994.09-.2575l-.028.0378.4223-1.5272a4.6332,4.6332,0,0,0-.5209,1.6572c-.2072.2859-.4268.6009-.5382.7855a5.6045,5.6045,0,0,1-.2429,1.7261,3.1479,3.1479,0,0,1-.3694.8526,1.0489,1.0489,0,0,1-.5043.4168,1.0412,1.0412,0,0,1-.7677-.0477A1.3183,1.3183,0,0,1,3.58,71.592a3.1983,3.1983,0,0,1-.1432-.4889A6.5116,6.5116,0,0,1,3.3164,70.2a13.8531,13.8531,0,0,1,.0221-1.7161c.0286-.5429.0656-1.0609.119-1.5177a4.5109,4.5109,0,0,1,.3967-1.13,1.3815,1.3815,0,0,0-.0044-.8652c-.0969.3144-.1626.6961-.2477.8629.2967-1.101.66-3.28.9688-3.4806.1618-1.4092-.3868.7252.0335-1.1687l-.1279.2383a8.9825,8.9825,0,0,1,.6547-2.5674c.2874-.7788.6077-1.5074.9341-2.2457l.4823-1.1218a8.0848,8.0848,0,0,1,.52-1.1617,19.9318,19.9318,0,0,0,1.2042-2.6187,1.4228,1.4228,0,0,0-.1532.4852c.2538-.5483.5273-1.0919.8054-1.6375A9.7707,9.7707,0,0,1,9.8388,48.96l2.2259-2.9544c.3539-.4771.7864-1.0155,1.069-1.4432a5.02,5.02,0,0,0,.2943-.7916,1.7614,1.7614,0,0,0,.0679-.7628q-.1455-1.8147-.3944-3.5782a6.6986,6.6986,0,0,1,.0912-2.3195l-.2237-.2827.2064-1.4178a5.5575,5.5575,0,0,1,.0835-.7712l.1463-.6888.26-1.3641a5.7246,5.7246,0,0,1,1.4871-2.9351l-.0776.3568a5.969,5.969,0,0,1,1.2082-1.3549c.4454-.3887.7926-.6824.6815-.6987a1.1059,1.1059,0,0,0,.5594-.3524l-.0458-.1044c.3172-.2053.6373-.405.9774-.59A4.2882,4.2882,0,0,1,19,26.6524l.5364-.1819c.7869-.3857.6929-.4634.69-.5735.0006-.05.0189-.13.2-.2237a7.6026,7.6026,0,0,1,1.1747-.3123c.9751-.1648,2.7408-.1406,2.3913-.0182-.3769.0677-.9538.2279-.9651.3421l.8513-.0832c.1947.2988.8216.531-1.1245,1.0865-.4709.0086-.9294.048-1.405.071l-.396.2395,1.1411-.2181a4.6517,4.6517,0,0,1-1.5206.2769,1.3123,1.3123,0,0,1-.4656.3952l-.6737.1248a2.49,2.49,0,0,0-.5913.1693c-.0581.196.6242-.1217-.0587.4357-.6.26.33-.6-.5854-.04-.4464.5355-.2142.502-.9085.914-.0309.1365.1315.0671.3973-.1044a8.5212,8.5212,0,0,0-.98.7457,6.9921,6.9921,0,0,1-.6844.5871c-.1269.3243-.455.8039-.6806,1.23-.2317.4253-.3414.7708-.188.7986a6.3886,6.3886,0,0,0-.8272,1.6928c.3483-.5238.1653.074.0047.75l-.0265.12-.01.0529-.0038.022-.002.0109-.001.0055v.0007c.35.0607-.4787-.0822-.385-.0658l.036.0073.0721.0142.2779.0487,0,.0028v.0054l-.0009.04-.0005.11a4.49,4.49,0,0,0,.0284.4619c.0325.2743.0914.4434.1878.3613-.3156.893-.0077,3.2367-.0725,4.8392a1.1224,1.1224,0,0,0,.0343-.41,14.36,14.36,0,0,0,.3121,1.7252c-.1327.0674-.19.4525-.2287.9166a2.84,2.84,0,0,1-.1876.9128,5.8791,5.8791,0,0,1-.32.6277c-.1453.674-.0165.55.2173.2507.2062-.3248.3563-.5678.4338-.3856-.0485-.03-.1233.0639-.2093.2163a3.734,3.734,0,0,1-.4584.74c-.33.3676-.5794.6261-.5508.432-.3634.7712-.3633.6287-.4326,1.1071-.3677-.0788-.5083.5933-1.0935,1.0339-.5776,1.0708.0829.4292-.7917,1.4426C10.8709,49.9678,11.6717,49.0841,11.6717,49.0841ZM6.45,64.713l-.0038-.001-.1817.6363Zm.7132-2.603-.3086,1.1324c.0409.1095.1348.03.2014-.2329C6.9713,63.1394,7.1077,62.5154,7.1629,62.11Zm-.165,5.8421c.1363-.402.1356-.5486.1115-.6147l-.2142.7095-.0363.0424A.4212.4212,0,0,0,6.9979,67.9521Z" transform="translate(0.8 0.368)"/>
      <path class="cls-2" d="M6.5508,68.6246c-.02.0581-.0368.0888-.0591.1654l.0224-.2551.0986-.13Z" transform="translate(0.8 0.368)"/>
      <path class="cls-2" d="M74.9377,16.9922l.0569.0092A.5821.5821,0,0,0,74.87,17,.4939.4939,0,0,0,74.9377,16.9922Z" transform="translate(0.8 0.368)"/>
      <polygon class="cls-2" points="36.046 44.602 36.003 44.627 35.912 44.412 36.046 44.602"/>
      <path class="cls-2" d="M60.27,15.6927a.5633.5633,0,0,1-.1875.0737A.7183.7183,0,0,1,60.27,15.6927Z" transform="translate(0.8 0.368)"/>
      <path class="cls-2" d="M54.0492,16.6932l-.8337.3353C53.5731,16.8745,53.8372,16.7716,54.0492,16.6932Z" transform="translate(0.8 0.368)"/>
      <path class="cls-2" d="M49.4479,18.2571a.2519.2519,0,0,1-.12-.05l.0086-.0041Z" transform="translate(0.8 0.368)"/>
      <path class="cls-2" d="M86.4443,57.4241l-.1616.1009C85.8936,57.7474,86.152,57.5872,86.4443,57.4241Z" transform="translate(0.8 0.368)"/>
      <path class="cls-2" d="M92.6174,36.7113c.0057.2461.0115.4884.0324.7433C92.5657,37.05,92.5081,36.7349,92.6174,36.7113Z" transform="translate(0.8 0.368)"/>
      <path class="cls-2" d="M74.8726,76.0518l.0029.0034-.1723.0024Z" transform="translate(0.8 0.368)"/>
      <path class="cls-2" d="M92.8235,38.5158a7.4937,7.4937,0,0,1-.1737-1.0612A6.5629,6.5629,0,0,1,92.8235,38.5158Z" transform="translate(0.8 0.368)"/>
      <path class="cls-2" d="M30.0853,26.24l-.2348.0084c.0036-.0131-.01-.0236-.0285-.0316Z" transform="translate(0.8 0.368)"/>
      <path class="cls-2" d="M29.822,26.2167l-.2616-.0229A.757.757,0,0,1,29.822,26.2167Z" transform="translate(0.8 0.368)"/>
      <path class="cls-2" d="M29.01,26.1449l.5509.0489A1.64,1.64,0,0,1,29.01,26.1449Z" transform="translate(0.8 0.368)"/>
      <path class="cls-2" d="M36.71,25.4381l.1009.0186A.1018.1018,0,0,1,36.71,25.4381Z" transform="translate(0.8 0.368)"/>
      <path class="cls-2" d="M38.3744,24.3537A15.9168,15.9168,0,0,1,36.8926,25.47l-.0821-.0135C37.1276,25.3729,37.9337,24.5028,38.3744,24.3537Z" transform="translate(0.8 0.368)"/>
      <path class="cls-2" d="M44.9486,19.3131l-1.4781.7753c.2261-.193.5261-.4511-.17-.1358C45.0992,18.834,42.9891,20.2912,44.9486,19.3131Z" transform="translate(0.8 0.368)"/>
      <path class="cls-2" d="M49.6555,17.1689c-.8673.242-.0281-.1068-.0874-.1328C50.1355,16.9262,50.2714,16.901,49.6555,17.1689Z" transform="translate(0.8 0.368)"/>
      <path class="cls-2" d="M85.4572,21.904l.02-.2032C86.0325,22.1162,85.4461,21.7633,85.4572,21.904Z" transform="translate(0.8 0.368)"/>
      <polygon class="cls-2" points="90.684 27.693 90.235 27.187 90.205 26.831 90.684 27.693"/>
      <polygon class="cls-2" points="93.511 31.094 93.485 30.794 93.615 31.937 93.511 31.094"/>
      <path class="cls-2" d="M68.3276,79.6436l.1034-.294C68.8808,79.1777,69.0888,79.3532,68.3276,79.6436Z" transform="translate(0.8 0.368)"/>
      <path class="cls-2" d="M71.3117,66.9593a3.4111,3.4111,0,0,1-.5422-1.4181C70.9727,66.1112,71.2426,66.6578,71.3117,66.9593Z" transform="translate(0.8 0.368)"/>
      <path class="cls-2" d="M38.5468,50.8l.388.4053a9.3393,9.3393,0,0,1-.7648-.7237A2.3707,2.3707,0,0,0,38.5468,50.8Z" transform="translate(0.8 0.368)"/>
    </g>
  </g>
</svg>
