<svg xmlns="http://www.w3.org/2000/svg" viewBox="0 0 104 104"><path d="M52 100.81c-1.25 0-2.5-.3-3.62-.86L6.48 79A8.07 8.07 0 0 1 2 71.75V32.24a8.07 8.07 0 0 1 4.48-7.25l41.9-20.95a8.13 8.13 0 0 1 7.24.01L97.52 25a8.07 8.07 0 0 1 4.48 7.25v39.51a8.07 8.07 0 0 1-4.48 7.25l-41.9 20.95a8.26 8.26 0 0 1-3.62.85z" fill="#fff"/><path d="M52 5.19c.94 0 1.89.22 2.73.64l41.9 20.95a6.07 6.07 0 0 1 3.37 5.46v39.51a6.07 6.07 0 0 1-3.37 5.46l-41.9 20.95a6.15 6.15 0 0 1-5.46 0L7.37 77.21A6.06 6.06 0 0 1 4 71.76V32.24a6.07 6.07 0 0 1 3.37-5.46l41.9-20.95A6.29 6.29 0 0 1 52 5.19m0-4c-1.55 0-3.1.36-4.52 1.07L5.59 23.21A10.1 10.1 0 0 0 0 32.24v39.51a10.1 10.1 0 0 0 5.59 9.04l41.9 20.95a10.11 10.11 0 0 0 9.04 0l41.9-20.95a10.11 10.11 0 0 0 5.59-9.04V32.24a10.1 10.1 0 0 0-5.59-9.04L56.52 2.26A10.11 10.11 0 0 0 52 1.19z"/><g><path d="M32.38 22.96l4.87-.01h2.35c.26 0 .51-.07.74-.21a80.7 80.7 0 0 0 4.39-2.97l2.02-.97 1.94-.91 2.12-.68c1.1-.35 2.04-.65 2.09-.65l2.14-.29L57.1 16a137.63 137.63 0 0 1 5.56.52l2.26.53 2.22.54c.04.01 1.06.45 2.15.94 1.1.49 2.03.9 2.07.93l4.04 2.8c.15.11.28.24.38.4l1.55 2.47c.1.15.16.33.19.51l.18 1.05.82 4.8.01 2.17-.01 2.11c0 .05-.34 1.83-.74 3.85-.03.14-.08.28-.15.4l-1.2 2.17-1.74 2.05c-.08.09-.17.17-.27.24-1.22.83-2.63 1.8-3.13 2.16l-.93.67-.63.51-.66.54c-.04.03-.44.5-.84.96l-.76.91-.72 1.19c-.07.12-.12.25-.15.38l-.19.82c-.01.06-.03.73-.03 1.35v1.35c0 .37.14.72.4.98.21.22.45.52.52.66.07.15-.3.27-.84.27l-1.08.01c-.06 0-.63.13-1.12.26l-.99.26-1.18.57c-.54.28-1.08.53-1.19.57s-.18-.06-.16-.22a1.39 1.39 0 0 0-1.37-1.59h-.75l-1.01.14c-.48.07-.88-.07-.88-.32 0-.23.09-.45.25-.61l.18-.18a.82.82 0 0 1 .22-.16l.64-.32c.19-.1.41-.15.62-.15l1.21-.01.7-.12.61-.13 1.65-.7c.16-.07.31-.17.43-.3l.31-.31c.19-.19.32-.44.38-.71l.38-1.91c.05-.24.03-.48-.04-.71l-.57-1.75c-.07-.2-.18-.39-.33-.54l-.82-.83c-.18-.18-.4-.31-.64-.37l-1.44-.36c-.2-.05-.41-.06-.61-.01l-.28.06c-.46.09-.84.41-1.01.85a174.45 174.45 0 0 0-.78 1.97l-.46 1.41a1.3 1.3 0 0 0-.07.44v1.06c0 .22.05.43.14.62.21.43.32.9.25 1.05-.07.15-.89.17-1.83.05-.27-.03-.55.01-.79.14l-.42.21a1.4 1.4 0 0 0-.44.36c-.62.76-1.25 1.44-1.4 1.52-.15.07-.2-.35-.13-.95a.77.77 0 0 0-.91-.85c-.18.04-.36.11-.52.2l-1.06.65-.58.43c-.27.21-.4-.31-.29-1.14.03-.23.12-.45.26-.64l.56-.73c.04-.05.58-.51 1.08-.92.17-.14.38-.24.59-.28.47-.1.9-.18.95-.18l.65-.02c.7 0 1.3-.53 1.37-1.24l.13-1.15.49-2.48c.03-.15.04-.29.04-.44a1.4 1.4 0 0 0-1.08-1.36l-1.27-.29-1.61-.54-1.56-.53-1.46-.67-1.43-.67-1.25-.83-1.15-.78-1.17-.92-1.18-.94a105.46 105.46 0 0 1-2.38-2.68l-.88-1.32a1.37 1.37 0 0 0-1.86-.42.96.96 0 0 1-.16.09l-.99.44-2.55 1.11c-.12.05-.25.09-.37.1-1.05.13-3.23.35-4.84.47-.33.03-.64.17-.87.41a24.6 24.6 0 0 0-1.23 1.29c-.07.09-1.28 1.94-2.53 3.9l-.63 1.15-.36.65-.96 2.29-.37 1.3c-.19.68-.87 3.19-1.09 4.07-.22.88-.57 1.61-.79 1.61s-.4-.69-.4-1.54l.01-1.63.39-2.08.39-1.96.66-2.02.66-1.99c.02-.04.45-.89.93-1.79l.91-1.7c.02-.03 1.05-1.45 2.25-3.07.09-.12.16-.25.2-.39l.11-.33c.06-.17.08-.36.07-.54l-.12-1.68c-.13-1.85-.2-3.57-.15-3.83s.37-1.43.62-2.01c.25-.57.74-1.34 1.09-1.69a11.7 11.7 0 0 1 2.04-1.58c.48-.22.92-.41.98-.42s.66-.15 1.19-.24l1.17-.21z" fill="#82c800"/><g fill="#202020"><path d="M32.42 23.42c-.13-.05-.07-.2.27-.17l.26.23-.53-.06zM34.69 22.99c.41.11.88.31.63.52-.41-.22-.5-.13-.94-.39-.34-.03-.59.07-.53.16-.12-.06-.53.05-.72-.09.43-.18 1-.19 1.6-.04.12-.05 0-.11-.04-.16zM66.62 17.13l-.22-.03.22.03zM78.98 32.15c0-.16.03-.23.05-.24-.02.15-.03.27-.05.24zM79.23 35.79l-.01-.22c.02.09.03.18.01.22zM66.62 17.13l.57.06c.01.09-.3-.01-.57-.06zM39.32 23.55a1.22 1.22 0 0 1-.3-.06l.28.02.02.04zM57.48 15.52l-.17-.02a.76.76 0 0 1-.14-.11l.31.13zM50.42 16.74c.15-.06.26.11.35.18a.6.6 0 0 0-.38-.02c-.01-.04-.01-.08.03-.16zM40.66 22.28l-.18.09.18-.09zM62.59 15.96a.16.16 0 0 1 .08-.06l-.08.06zM26.75 27.54l-.03-.01c.03-.02.05-.03.03.01zM32.38 22.91l-.11.01a.49.49 0 0 1-.04-.11l.15.1zM77.42 42.4l.01-.03c.1-.14.05-.05-.01.03zM56.46 55.1c.73-.12-1.15-.31-.06-.43-.12.09.99.35.06.43zM39.51 23.52c.08 0 .24 0 .37-.02a1 1 0 0 1-.37.02zM56.4 54.68l.11-.01-.11.01zM67.29 52.6c-.03-.03-.04-.09-.05-.14.01.01.03.04.05.14zM74.42 45.18l-.21.18.21-.18zM66.44 57.82c-.14.02-.19.04-.38.02l.06-.02c.07.02.17.03.32 0zM60.25 59.08c.05.11.23.33.48.37.17.05.4-.03.38-.03l.09-.04-.07.04c-.03.01-.01.03-.17.06a.64.64 0 0 1-.45-.1.7.7 0 0 1-.26-.3zM21.35 44.34a.73.73 0 0 0-.08-.31c.1.13.42-.67.08.31zM39.33 23.44c.04.05.09.07.18.08l-.2-.01c-.02-.03-.03-.05.02-.07zM66.17 56.27c-.35.03-.71 0-1.06.08.28-.09.68-.06 1.06-.08zM41.19 36.78l-.12-.17c.06.05.1.11.12.17zM62.13 57.25c-.13.14-.3.27-.46.37h-.11l.57-.37zM21.27 44.02z"/><path d="M24.43 38.81c-.53.72-.46.2-.7.27-.63.86-.09.52-.16.9-.36.54-.81.87-1.03 1.31.02.05-.01.14.09.07-.25.26-.49.72-.75 1.19-.23.48-.38 1.01-.64 1.35 0 .07.01.1.03.12-.08-.17-.2-.23-.29-.24-.13.38-.39.66-.28.86.07-.24.14-.24.23-.33l-.2.38c.11.44.26-.52.43-.46-.33.75-.82 1.61-.95 2.23.19.19.53-1.38.48-.53l.21-.95c.13.82.16-.57.33.2-.32 1.23-.6 1.31-.75 2.57-.18.25-.17-.14-.36.12-.58 1.74.32 1.48-.23 2.72-.16.32-.46.44-.3 1.38l.27-.31c.01.61-.08.73-.14.91a.81.81 0 0 0-.05.3c.01.06.02.14.05.21l.05.1.01.01-.09.06a.81.81 0 0 0-.02.01l.18-.11v-.02a1.23 1.23 0 0 1-.02-.19c-.02-.14-.03-.27 0-.19.08.16.12.25.13.3.01.03 0 .03-.01.04a.97.97 0 0 0-.17.09c-.06.04-.11.06-.15.1-.19.1-.21.31-.22.19a1.13 1.13 0 0 0-.28-.37c.01.01.04-.02.06-.06l-.16-.2c.26-.43.45-1.06.69-1.77.24-.69.48-1.4.7-2.12-.09.06-.23.29-.21-.07.25-.77.49-1.6.7-2.45.3-.82.6-1.65.86-2.44l.04-.09.33-.72.52-.52c.08-.14.07-.31-.05-.18.28-.67.13.03.37-.23.23-.34.19-.52-.01-.33a29.77 29.77 0 0 0 2.27-3.05c.22-.37.41-.72.63-.99l-.23.16c.34-.42.63-.57.9-.72.13-.07.26-.15.39-.26.12-.11.33-.31.61-.49l-.24.09c.16-.11.35-.2.54-.25.2-.06.41-.07.52-.09l.84-.09 1.67-.16c.55-.05 1.07-.11 1.57-.19l.36-.06.18-.03.08-.05c.06-.02.32-.18.48-.29.41.14 1.96-1 2.26-.68.51-.34.7-.49.89-.66l.06-.06.16-.11c.12-.07.26-.15.44-.21a2.2 2.2 0 0 1 1.6.12c.36.19.54.46.66.74.1.27.1.42.26.69l.18-.11.25.83c.14.07.3.12.46.16l.31.43c-.15-.15-.38-.28-.4-.22.48.7 1.47 1.43 1.56 1.36l.59.79c.22.24.46.45.7.68.02-.09-.21-.32-.38-.52.67.81.29-.06.9.68-.13-.04-.03.14-.03.19.46.2 1.33.89 1.99 1.38l-.05-.21.93.62c.31.21.61.46.97.61.69.35 1.42.71 2.17 1.06-.56-.18-.54.11-.11.34l.26-.13c.24.25-.5-.12.03.29.6.18.49-.11.18-.29l.68.32c.07-.05-.09-.14-.1-.24.24.23 1.29.2 1.64.57l.06-.05c.77.29 1.36.39 1.89.54a2.39 2.39 0 0 1 1.82 2.2c-.17.09-.21.84-.45 1.15a148.86 148.86 0 0 0-.26 2.42l-.03.43c-.02.16-.02.24-.07.52-.23.65-.39.67-.41.66-.04-.02-.03-.1-.24.08.05.09-.24.48-.55.67-.3.18-.54.28-.04.16-.27.12-.54.18-.79.19h-.44c-.24-.02-.46.03-.7.06l-.37.05c-.12.05-.13.05-.22.07l-.11.05a2.3 2.3 0 0 0-.19.14l-.49.35c.09-.18.24-.34.11-.31-.27.19-.51.53-.41.56l.08-.04c-.23.12-.36.33-.53.52-.07.09-.18.22-.21.28a.58.58 0 0 0-.08.22 2.45 2.45 0 0 0 .04.78l.01.02-.05.02c-.15.05-.26.09-.35.15-.2.11-.1.2-.16.04-.02-.04-.04-.09-.07-.12l-.01-.01-.25-.33h.01l.01-.01.02-.02.08-.08c.44-.44.92-.76 1.37-1.06.09-.06.28-.18.46-.25.2-.08.34-.12.58-.15.52-.06 1.03.17 1.31.49l-.14-.14c.48.36.69 1.05.56 1.53l-.07.34-.02.14-.01.04h-.01l-.14.04a.78.78 0 0 0-.23.08c-.19.08-.17.17-.18.1l-.07-.13a.64.64 0 0 0-.11-.16c-.04-.03-.09-.13-.14-.19v-.01l.01-.03-.03-.01-.01-.01.09.12c.12.16.21.27.27.41.01.08 0 0 .09-.05.09-.06.21-.09.26-.11l-.06.02-.19.08c-.07.03-.12.11-.1.09l-.01-.03-.08-.16a.61.61 0 0 0-.12-.16l-.16-.23-.08-.11.02-.01.1-.07.23-.19.42-.4.36-.41.16-.2a2 2 0 0 1 .61-.54l.25-.14.23-.12a2.04 2.04 0 0 1 1.2-.22l.53.11c.14-.06.3-.1.48-.13l.25-.05.11-.03.03-.01h.01l.06.24c.06.19.1.33.16.45.01.05.08.11.08.12l.02.02.01.01h.01l-.07-.03-.06-.02a2.78 2.78 0 0 0-.78-.03l-.05-.18-.1-.26-.1-.23a4.14 4.14 0 0 1-.1-.33c-.05-.2-.06-.52-.05-.64l.01-.42c.02-.3-.02-.47.07-.98l.06-.31.06-.19.1-.36c.06-.24.1-.46.13-.67l.09.13c.24-.36.1-.51.19-.81.07.08-.07.47.1.25l.52-1.23.12-.31.06-.16a2.4 2.4 0 0 1 .8-1.02c.15-.1.3-.19.47-.25.16-.07.37-.11.45-.13l.17-.04.27-.04c.18-.02.36-.01.54.02l1.39.29a2.44 2.44 0 0 1 1.34.67l.25.23.5.46a2.53 2.53 0 0 1 .63.9l.5 1.31.12.32.06.16.08.27a2.46 2.46 0 0 1 .01 1.12c-.11.65-.3.8-.47 1-.08.1-.16.21-.22.4l-.08.38c-.04.22-.11.47-.26.76.2-.16.38-.36.53-.6-.09.27-.23.53-.4.75-.08.11-.2.23-.27.3l-.19.17c-.09.08-.34.32-.57.45-.28.16-.43.19-.59.26l-.99.4c-.17.07-.32.14-.5.2l-.57.13c-.76.19-1.48.18-2.18.17-.13-.01-.17.01-.55.19l-.23.1-.1.05c.06-.1-.24.2-.22.16-.01.06.24-.01.24-.13l.05.05-.01.01-.02.03-.08.11-.04.06-.07-.07h-.65-.01c.01 0 .06-.03.12-.1s.11-.17.16-.28c.04-.09.08-.28.07-.22.01.02.04.03.07.05.07.03.12.06.13.09.42-.07.08-.14.34-.24.29-.08.65-.11 1-.05.17.02.33.04.47.04.16 0 .37.01.48-.01.09-.01-.25-.1-.42-.11.3.02 1.03.18 1.45.56.43.37.57.76.35.56a1.99 1.99 0 0 1 .42 1.33l-.01.14-.01.07v.04l-.4-.05h-.02c-.1-.01-.22 0-.28.04-.03.02-.03.04-.03.02v-.04l-.01-.03-.2-.64c.37-.16.72-.31 1.01-.52.56-.04 1.57-.88 1.86-.57-.08-.14.34-.34.89-.46.27-.06.57-.12.84-.16.28.01.53.04.7.07-.23-.09.58-.11.32-.24h.53c.02.01.01-.02.03.03.04.15.1.29.15.4.1.23.22.34.26.33h-.03l-.42.21-.26.14c.02-.02.04-.06.08-.06-.09-.05-.2-.15-.3-.23l-.14-.13a2.05 2.05 0 0 1-.6-1.66c.06-.59.11-1.08-.13-1.47l.08-.84c.02-.27.05-.55.15-.82.09-.28.12-.5.31-.9.09-.2.17-.31.24-.4l.22-.32.43-.63c.15-.2.34-.38.5-.56l1.01-1.09c-.29-.17-1.43 1.63-1.64 1.38.66-.7 1.22-1.2 1.76-1.7.62-.45 1.2-.88 1.9-1.43.35-.31-.3.05-.46.1.77-.49 1.48-.98 2.17-1.46l1.03-.7.52-.32.44-.26c-.03-.02-.06 0-.24.09.17-.1.17-.16.24-.19.07-.05.16-.14.2-.07a.54.54 0 0 1-.19.14c-.02.14.13.21.48-.07.32-.22.67-.51.73-.5-.66.14.92-1.24-.04-.92.15-.14.37-.29.42-.2.17-.24.19-.35-.1-.18.68-.84.56-.47 1.05-1.32-.06-.03-.18.13-.3.17a6.5 6.5 0 0 0 .81-1c.07-.15.09-.2.13-.4-.05.02-.08-.01-.14.13.3-1.31.84-2.35.99-3.91-.31.44-.09-.55-.36-.65l.08-.84.13.34c0-.74.19-1.4.1-2.04l-.1.56.04-1.4.1.79c.13-.77.33.06.25-.94.01.2-.13-.75-.35-1.12a3.5 3.5 0 0 0-.12-1.31c-.11-.13-.27.15-.34.07.15-.39-.24-1.75-.08-2.25-.03.16-.16.19-.2.15l.12-.34c-.12-.34-.15-.38-.25-.31-.22-1.01.39.22.02-.88.01.08-.02.05-.01.21a1.27 1.27 0 0 0-.13-.32l-.21-.36-.45-.79c-.29-.51-.6-1.06-.92-1.47-.17.01-.11.09.03.33.12.22.25.42.05.32l-.28-.49a1.25 1.25 0 0 0-.33-.32l-.99-.81a20.96 20.96 0 0 0-2.01-1.5l.26.15c0-.43-1.05-.58-1.73-1 .17.11.14.29.11.23-1.01-.39-1.98-.98-3.47-1.76l.16.17c-.63-.15-1.65-.37-2.33-.51-.18-.14-.57-.22-.3-.3-1.11.02-2.07-.33-3.07-.46-.98-.18-1.94-.37-2.9-.23.23.02.53.13.35.12l-1.61-.23c.13-.15.21-.08.55-.17-.2-.09-.67-.28-1.07-.21.73.05 0 .24-.31.39.05-.06-.06-.1-.04-.15-.82.39-.16-.31-1.31.03l.07.08c-.44.01-.85-.04-1.32.04-.16.21.48.02.53.17-.64.1-1.37-.23-1.9.14.27-.06.68-.1.96-.08-.6.29-.68.27-1.13.45l.04-.02-1.03.43.25-.14c-.92-.22-1.62.42-2.79.46 1.14-.05.23.11.39.28-.25.13-.62.35-.49.36-.54.06-.73.49-1.49.58 0 .08-.5.24-.32.35-.63.24.09-.18.01-.23-.52.12-1.04.45-1.62.79-.3.15-.57.37-.86.58-.29.2-.6.39-.96.54-1.18.63-1.51.57-2.59 1.15-.28.32.42.02.42.02-.25.23-.48.41-.72.56a1.6 1.6 0 0 1-.94.31c.16.04-.01.12-.21.19-.5-.02-.34-.25-1-.15.11.08.26.2.5.27-.59-.06-1.18-.19-1.79-.25-.16.12.37.18.59.26-.69-.05-1.77-.11-1.99-.29l.44-.07c-.25-.01-.13.16.06.2.59.15.85-.07.88-.14l-.44-.04c.45-.4 1.75.06 2.63.04l-.37-.29c.31.07.58.2.95.19.2-.15.23-.31-.17-.25.5-.28.52-.12.9-.53.04-.05.01-.05-.05-.03l.56-.27c-.13.02-.03-.23-.32.02.82-.75 1.6-.81 1.82-1.22l-.09.04c1.33-.77.25.09 1.33-.35l.36-.89.23.1c.12-.1.41-.23.31-.29.61-.13-.04.12.33.1.6-.5 1.93-.83 1.95-1.21.31.03-.61.43.17.18.07-.43.87-.36 1.45-.78-.28-.12-.83.28-.26-.18.52.17 1.28-.49 1.87-.61.1.23 1.27-.29 2.24-.5-.1-.15 1.82-.41 2.74-.64l-.03-.04c.21.24 1.15.05 1.85.06-.03-.17-.15-.22-.54-.24.22-.02.44-.07.66-.03.16.1.36.16.78.22l-.16-.21c.88.09 1.75.37 2.88.36.04.18-.93.41.22.64.06-.09.12-.25-.18-.32.1.02.35.12.55.09l-.45-.21c.51-.02.25.16.65.19.01-.14.31-.07.27-.18-.1-.02-.36.02-.51-.05.46.02 1.02-.01 1.23-.09-.05.08-.03.16.3.26.85.21.32-.1.83-.05.19.14.75.17.72.38.25.06.32-.03.42-.06.42.19 2.06.53 1.5.62l-.12-.01.07.03c.34.15.71.21 1.06.36.35.15.7.29 1.06.42.72.26 1.44.52 2.09.86l.03-.06c.37.24.85.38 1.2.68.36.28.69.54.91.78.21.15.56.24.52.11.52.42.54.53 1.39.98-.48-.48.25.04-.52-.47.75.45.96.46 1.64 1.16-.12-.18.1-.14.38.11.3.31.4.55.51.75l-.44-.46c.24.43.45.74.69 1.09l.08-.31a6 6 0 0 1 .71 1.04l.27.53c.1.19.22.51.25.76.04.8.08 1.45.43 2.09-.08.49-.27-.93-.39-.49.17.8.64 1.59.68 1.85.32 1.09-.16 1.07.12 2.22-.13-.14-.31-.26-.32.61.04.81.35.99.42.46.01-.2-.02-.29-.05-.28.03-.27.06-.62.15-.3l-.08.11c.09.4.09 1.55.22 1.28-.07.63-.13.27-.18-.19.13 1.06 0 1.67.08 2.77-.04-.18-.14-.35-.14-.17.04.41-.01.64-.06.8a.69.69 0 0 1-.12.27c-.08.1-.16.14-.28.66.01.62.34-.17.03.88-.04.66.19.17.31-.08-.17.48-.23.94-.26 1.35-.02.22 0 .37-.04.61a4.67 4.67 0 0 1-.21.69 5.03 5.03 0 0 0 .07-.06l-.2.35v-.35c-.13.29-.25.52-.19.55-.25.23-.12-.35-.55.12-.13.41-.68 1.04-.57 1.29.57-1.18.11.25.68-.7-.13.17-.25.4-.38.69 0 .05.06-.01.11-.08-.1.31-.21.47-.31.56a.76.76 0 0 1-.26.16c-.17.06-.35.12-.77.61.2-.05-.01.37-.17.52.34-.4 0-.32-.38-.02-.11.17-.21.3-.3.4-.08.1-.23.21-.33.27-.22.16-.3.13-.48.28l.39-.34c-.25.05-.54.25-1.03.55.02.11.45-.23.32-.08-.63.17-1.02.98-1.82 1.35-.28.3.1.21-.15.46-.88.43-.76.72-1.61 1.24.12-.31.18-.31-.46 0 .44-.32.9-.63 1.38-.91-.33.15-.68.28-1 .44.39-.32.91-.54 1.13-.75-.49.19-.43.19-.31-.06-.41.59-1.19.71-1.68 1.33l.29.29c-.19.19-.36.4-.54.6-.18.19-.37.37-.58.56-.4.38-.87.78-1.18 1.48l.19-.45c-.12.04-.25.24-.38.47l-.2.36c-.03.09-.07.16-.12.25.14-.01.13.29.17.49-.16-.06-.08 1.04-.35 1.17l.17.68c.05.6-.08 1.07-.14 1.23a.7.7 0 0 0 .03.4c.04.12.25.34.45.59-.13-.39.32-.04-.16-.72.25.25.58.64.49.69.03.03.06.06.1.13l.03.06c.01.02.08.18.08.28.01.3-.15.48-.24.57-.37.26-.52.2-.72.23-.19.01-.37 0-.52-.01-.13 0-.25 0-.34.04-.16-.06-.23-.2-.66-.19-.04.03.01.07.01.07-.01-.08-.68.06-.33-.18-.28.18-.62.3-.99.42s-.78.19-1.14.4c-.38.18-.73.34-1.1.53-.18.09-.34.19-.49.28l-.21.15-.1.08c.02.01-.16.11-.38.07a.64.64 0 0 1-.48-.57.74.74 0 0 1 0-.21l.01-.07c.02-.07.01-.15.01-.23a.91.91 0 0 0-.99-.82c.04.04.01.07.14.06-1.03.12-.65-.39-1.91-.1-.37.11-.19.15.06.15.24-.02.42-.05.25.02-.02.11-.12.19-.36.22-.23 0-.52.05-.98-.29a.84.84 0 0 1-.29-.49l-.01-.17.01-.08.02-.15c.04-.2.12-.39.24-.56l.18-.23.12-.14c.07-.09.26-.26.38-.37l-.31.18a2.03 2.03 0 0 1 .57-.39c.18-.07.34-.16.71-.25.16-.03.33-.05.5-.04l.37.04c.24.02.48.04.74.03 0 0-.05-.04-.01-.07.35.1.84.06 1.38.01.52-.15 1.08-.35 1.56-.52-.36-.04-.45.09-.35-.15.4-.16.04.35.79-.01l.31-.51c.08-.16.08-.32.01-.38a.83.83 0 0 1-.16.21l-.31.3c.25-.6.5-.45.56-1.07l-.12.04c.14-.64.29-.96.42-1.28.13-.41.32-.47.05-1.16l.12.11c.02-.82-.35-.57-.4-1.37l-.33-.13a.87.87 0 0 0-.1-.32c-.07-.12-.25-.35-.39-.54a7.85 7.85 0 0 0-.46-.58 1.1 1.1 0 0 0-.55-.3c.27.17.43.3.64.64l.37.51c.11.16.26.35.27.41l-.68-.74-.18-.21-.1-.12c-.07-.07-.13-.12-.16-.17.12.07.21.2.33.27-.08-.24-.21-.4-.65-.55a7.98 7.98 0 0 0-1.28-.39c.02.14-.1.19-.25.26-.06.03-.29.09-.37.12-.1.04-.2.09-.29.17a.71.71 0 0 0-.21.28l-.17.49c-.11.35-.17.66-.14.87a6.5 6.5 0 0 0-.52 1.21l-.2.64c-.02.1-.08.24-.08.3l-.01.17.03.68.02.36c0 .1.01.12.03.18.02.06.02.07.08.17a3.25 3.25 0 0 1 .34 1.29c-.01.09 0 .17-.08.37 0 .05-.16.3-.28.38l-.22.13.14-.1.16-.16c.15-.2.14-.28.16-.36.01-.13 0-.2-.01-.24-.03-.09-.05-.09-.06-.07a1 1 0 0 0-.04.19c-.03.07-.01.12-.14.31a.46.46 0 0 1-.12.12l-.07.05-.13.07c-.26.09-.4.09-.53.07-.12-.02-.18-.07-.15-.18-.52-.01-.71-.04-.76-.01l-.39.03c-.14.01-.27.01-.32.03a.93.93 0 0 0-.4.24c-.13.14 0 .1.12.06.07-.01.15-.02.16.03-.47.24-.45.42-.46.56-.04-.07-.09-.1-.15-.08-.11.09-.32.34-.5.59l.21-.4c.06-.12.17-.31.16-.35-.03 0-.09.07-.15.13a4.54 4.54 0 0 0-.4.46c-.13.18-.21.33-.29.49a2.04 2.04 0 0 1-.5.67c-.05.04-.08.08-.28.19a.95.95 0 0 1-.34.09 1.2 1.2 0 0 1-.46-.06 1.38 1.38 0 0 1-.33-.2.65.65 0 0 1-.15-.18c-.23-.4-.18-.49-.21-.65-.01-.14 0-.26.01-.38l-.05.34c.01.15-.05.25.12.65-.14-.27-.14-.38-.16-.5-.02-.12-.02-.21-.02-.31l.03-.57.02-.14v.01l.02.07a.2.2 0 0 0 .1.1c.04.02.1.02.14 0a.67.67 0 0 0-.19.01c-.18.05-.5.19-.68.2-.09.11-.17.3.13.15l-.57.36-.28.19-.14.1-.1.07a.95.95 0 0 1-.44.18c-.23.04-.53-.02-.72-.16-.08-.05-.15-.13-.21-.19a1.53 1.53 0 0 1-.11-.16c-.1-.18-.12-.32-.14-.43a2.57 2.57 0 0 1-.02-.54l.05-.45.04-.21.07-.27c.09-.34.37-.71.52-.86l.48-.57c.35-.31.68-.59.93-.88l-.18.02c.17-.12.27-.15.49-.28.22-.12.45-.22.76-.35-.04-.03-.24-.05.01-.12.23.02.98-.06 1.49-.09l-.44-.1c.25-.03.49-.04.72-.05.1 0 .14-.01.22-.03.13-.03.26-.1.37-.21.05-.06.1-.11.14-.22l.13-.49.26-1.03c-.31-.04-.13-1.46-.04-2.17L54.4 47c.04-.39.03-.41-.04-.56-.1-.13-.06-.17-.63-.33-.87-.25-1.64-.66-2.56-1.02a7.85 7.85 0 0 1-2.67-.81l-1.6-.72c-.54-.22-.99-.58-1.45-.8.29.12.09-.23-.18-.45-.42-.21-.93-.89-1.03-.62l.14.09c-.46.03-1.14-.62-1.74-1.08l.14-.36c-1-.35-1.81-1.39-2.54-2.3-.36-.46-.73-.88-1.01-1.26-.27-.39-.53-.7-.78-.85l-.14-.3a.64.64 0 0 0-.08-.14.86.86 0 0 0-.28-.21l-.02.2c-.11 0-.2.03-.27.08l-.14.09-.2.11-.36.17c-.5.23-1 .44-1.73.73h.35c-.82.36-1.22-.08-2.03.24a2.7 2.7 0 0 1-.27.38c-1.62.18-3.11.57-4.68.46.03.04.08.12.33.11l-.33.04-.33.05a.49.49 0 0 0-.25.17c-.37.39-.71.66-.78.44.1.1-.17.36-.51.69-.3.39-.69.83-.96 1.14l.23.01c-.58.44-.65.42-1.23 1.19-.1.21.02.25.15-.03-.33.7-.48.4-.9 1.24l.29-.23c-.42.67-.41.6-.75.9-.21.27-.45.79-.55 1.15l.02-.04c-.03.18-.03.32.01.37-.14.06-.44.4-.57.85.04.08.14-.06.19-.13-.42 1.23-.9 1.76-.96 2.69.06.04.07.1.07.18l.47-1.75c.15.05-.03.87.38.3-.31.59-.91 1.64-1.04 2.47.01.04.01.09.03.12l.04-.08c-.03.19-.09.35-.16.5-.04.26-.06.43-.13.68.12.13-.17.96-.28 1.37-.18-.09-.3.48-.32-.08 0 .07.04-.07.12-.34.02-.06.04-.13.07-.17l-.02.02.29-1.02c-.18.3-.36.62-.37 1.1-.18.18-.37.38-.46.5a3.19 3.19 0 0 1-.31 1.85.8.8 0 0 1-.43.36 1 1 0 0 1-.72-.03c-.38-.28-.37-.44-.45-.58a4.86 4.86 0 0 1-.18-1.01c-.03-.42.01-.82.03-1.18.03-.37.06-.72.12-1.02.07-.3.21-.56.33-.75.12-.36-.03-.44-.06-.59-.08.21-.12.47-.19.58.23-.74.46-2.21.75-2.32.07-.95-.34.47-.04-.8l-.11.15c-.01-.66.23-1.21.41-1.73.2-.52.44-1 .69-1.49.26-.48.44-.99.72-1.51.29-.51.55-1.09.76-1.78-.06.19-.1.28-.08.34.34-.73.67-1.5 1.13-2.18l1.5-1.97c.23-.32.55-.68.7-.96.07-.11.14-.3.2-.5a1 1 0 0 0 .04-.46 26.9 26.9 0 0 0-.31-2.39c-.13-.89.03-1 .13-1.55l-.22-.19.22-.95c.02-.16.02-.35.07-.53l.09-.47.13-.93c.08-.64.35-1.39 1-2l-.02.27c.15-.26.51-.68.83-.92.3-.26.53-.46.44-.49.07-.02.25-.01.39-.22l-.05-.1c.22-.13.44-.26.68-.37.12-.06.25-.12.38-.16l.37-.11c.52-.27.45-.36.44-.46-.01-.11.04-.25.92-.43.67-.1 1.87.01 1.64.11-.25.05-.64.18-.64.29l.57-.04c.14.31.56.57-.7 1.02-.31-.02-.61-.01-.93-.02l-.24.21.74-.14c-.38.24-.68.12-.99.15a.67.67 0 0 1-.28.31l-.46.03a.97.97 0 0 0-.39.05c-.01.16.45 0 .03.37-.42.13.16-.47-.46-.13-.26.39-.08.4-.57.64 0 .11.12.08.3-.02-.21.11-.46.3-.66.47-.17.13-.32.29-.46.33-.13.44-.81 1.27-.47 1.34-.12.07-.5.66-.62 1.08.29-.33.17.07.07.51l-.02.07-.01.03v.02l-.53-.09h.02l.05.01.39.06.08.01v.08c0 .1.01.21.03.3.03.18.09.29.19.24-.32.59-.05 2.15-.16 3.22.02-.06.07-.18.04-.27.07.6.18.77.27 1.15-.13.05-.2.31-.25.62a2.06 2.06 0 0 1-.43 1.1c-.1.5.02.43.22.21.2-.23.3-.37.4-.24-.05-.03-.11.03-.18.13l-.37.55c-.23.25-.41.4-.42.26-.2.54-.22.43-.2.79-.34-.12-.35.38-.8.63-.34.74.14.34-.46 1-.16.36.4-.2.4-.2zm-3.96 10.18l-.13.42.13-.42zm.48-1.74l-.2.76c.05.08.13.03.18-.14-.08.07 0-.35.02-.62zm.33 4.01c.1-.27.09-.37.06-.41l-.15.47-.03.03c.03-.02.08-.04.12-.09z"/><path d="M20.89 51.69l-.04.11v-.17l.09-.08-.05.14zM66.36 17.1h.04l-.09.01.05-.01zM40.1 35.2l-.05.03-.04-.15zM56.55 16.45a.37.37 0 0 1-.12.07l.12-.07zM52.43 17.13l-.55.25.55-.25zM49.39 18.2c-.05-.02-.07-.04-.09-.06h.01l.08.06zM73.87 43.96l-.11.06.11-.06zM78.03 30.36c-.01.17-.02.33-.01.5-.06-.27-.1-.48.01-.5zM66.28 56.27h-.11z"/><path d="M78.14 31.56a3.4 3.4 0 0 1-.12-.71c.05.23.12.49.12.71zM36.41 23.57l-.16.01-.02-.03.18.02zM36.23 23.55l-.17-.02c.08-.01.15-.01.17.02zM35.69 23.47l.37.05c-.13 0-.28.01-.37-.05zM40.92 22.98l.08.03a.11.11 0 0 1-.08-.03zM42.04 22.26c-.25.19-.58.57-.97.78l-.07-.03c.23-.03.72-.69 1.04-.75zM46.27 18.64l-.98.54c.14-.15.33-.35-.14-.15 1.17-.82-.18.28 1.12-.39zM49.41 17.17c-.59.15-.03-.11-.08-.14.4-.05.49-.06.08.14zM73.43 20.34l.04-.19c.37.29-.03.07-.04.19zM76.17 24.17l-.33-.32.02-.26zM78.45 26.31l-.01-.2.07.77zM62.02 59.22l.04-.26c.31-.11.49.08-.04.26zM63.75 50.59a1.5 1.5 0 0 1-.38-.94c.14.38.34.73.38.94zM41.86 39.96l.25.29c-.17-.17-.36-.32-.51-.51.07.1.17.15.26.22z"/></g></g></svg>