<svg xmlns="http://www.w3.org/2000/svg" viewBox="0 0 102 101">
  <path d="M6 22L46 1a10 10 0 0 1 9 0l40 21a10 10 0 0 1 6 9v39a10 10 0 0 1-6 9L55 99a10 10 0 0 1-9 0L6 79a10 10 0 0 1-5-9V31a10 10 0 0 1 5-9z" fill="#fcfcfc"/>
  <path d="M6 22h1zM9 21h1-2l-1 1a5 5 0 0 1 2-1zM50 0h-1a2 2 0 0 1 1 0zM75 11zM80 13h-1a1 1 0 0 1 1 0zM50 0zM15 18a3 3 0 0 1-1 0h1zM38 5zM30 9a1 1 0 0 0 0 1V9zM16 17zM44 2zM2 31zM6 22zM88 17c-1 0 0 0 0 0zM86 84c1 0-1 1 0 0 0 0 1 0 0 0zM15 18zM86 84zM102 31zM92 20zM101 39zM101 47zM2 56a2 2 0 0 0-1-1c1 1 1-1 1 1zM15 18zM100 39v0zM37 93h-1a1 1 0 0 1 1 0zM100 44a4 4 0 0 1 0 1z" fill="#202020"/>
  <path d="M2 47v1 1l-1 2h1l-1 4v1c0 1 0 0 0 0a28 28 0 0 0 0 3v-2h1v4H1l1 4a3 3 0 0 0-1 2l1-1-1 3 1-1-1 2h1a9 9 0 0 0 1 5 7 7 0 0 0 3 2 17 17 0 0 0 2 1l1 1 1 1h1c1 0 0 0 0 0a37 37 0 0 0 6 3l2 1 7 4 3 2a30 30 0 0 1 4 1l1 1 1 1h1a8 8 0 0 0 2 1l3 1h-1l1 1a19 19 0 0 1 3 1l3 1a8 8 0 0 0 3 1v1-1l1 1v-1h3a10 10 0 0 0 1-1h1l2-2h1l4-2h1l1-1 5-2h-1 1l8-4 2-1c1-1-1 0 0 0l5-3 7-4h1s-1 0 0 0a27 27 0 0 0 3-2 8 8 0 0 0 2-2 9 9 0 0 0 2-3 14 14 0 0 0 0-3v-4-10a1 1 0 0 0 0 1 7 7 0 0 1 0-3v-1-2-1-4-2-4c0 1 0 0 0 0v-2-6a10 10 0 0 0 0-2 9 9 0 0 0-1-3v2a10 10 0 0 0-1-3 7 7 0 0 0-2-2l1 1a7 7 0 0 0-2-1l-1-1-3-2v1l-1-1h1l-2-1h-1s-1 0 0 0l-2-1a10 10 0 0 0-2-1l-5-3h-1l-1-1 1 1-3-2 1 1-2-1h1l-1-1a13 13 0 0 0-1 0 6 6 0 0 0-2-1l-2-2v1l-1-1h-1l-4-2c-1 0 1 0 0 0l-6-3h1l-3-1a11 11 0 0 0-4-1 11 11 0 0 0-3 0h-1l-7 4s1 0 0 0l-2 1 1-1a5 5 0 0 0-1 1h-1l-1 1a14 14 0 0 0-2 1h1a12 12 0 0 0-3 1l2-1a6 6 0 0 1-2 1l-1 1-3 1c1 0 0 0 0 0v1l-2 1h-1c-1 0 0 0 0 0l-5 2-3 2c-1 0 0 0 0 0a11 11 0 0 1-2 1h-1l-2 1h1a12 12 0 0 1-3 1h1l1-1 3-1h-1 1v-1h1l1-1 2-1h2l1-1v-1h1l2-1h1l2-1h-1l3-1 2-2 4-2h1l1-1a3 3 0 0 0 1 0 31 31 0 0 0 3-2h0a3 3 0 0 0 1 0h-1 1s1 0 0 0a7 7 0 0 0 1-1h1V1h1a1 1 0 0 0 1 0l2-1c1 0 1 0 0 0a11 11 0 0 1 6 1l3 2h1a10 10 0 0 0 2 1l-1-1a10 10 0 0 1 3 2h1-1l2 1V5c2 1 3 3 5 3h-1l3 1 2 2h1c1 0 1 1 0 0 0 0-1 0 0 0h1c1 1 1 1 0 0l3 2 2 1 1 1v-1a16 16 0 0 0 3 2v-1l1 1h-1 1v1h2-1a8 8 0 0 0 1 0l2 1 1 1a9 9 0 0 1 1 1l-1-1a5 5 0 0 0 2 1h-1l3 1h1l2 2 1 1a11 11 0 0 0-2-2 9 9 0 0 1 1 1 10 10 0 0 0-2-1c1 0 1 0 0 0l3 2a6 6 0 0 1 1 2 18 18 0 0 1 1 3v-1 2l1 1-1 2v6a2 2 0 0 0 0 1v13c0 1 0-1 0 0v6a31 31 0 0 0 0 4v2-1a7 7 0 0 1 0 2v4a2 2 0 0 0 0 1 2 2 0 0 1 0 1 11 11 0 0 1-1 2 13 13 0 0 1-1 2 8 8 0 0 0 2-3 8 8 0 0 1-1 1 4 4 0 0 1 0 1 34 34 0 0 1-2 2l-1 2a16 16 0 0 0-3 1l-7 4v-1a4 4 0 0 0-1 1l-2 1h1l-1 1h-2 1c-2 0-1 1-3 2l1-1a29 29 0 0 1-5 2s0 1 0 0l-6 4a5 5 0 0 0-2 0 9 9 0 0 0-1 1 46 46 0 0 1-5 2l-2 2-4 2h-1a13 13 0 0 1-2 1 8 8 0 0 1-4 0 12 12 0 0 1-3-1l-2-1c1 0 0 0 0 0l-2-1h1a8 8 0 0 1-3-1l-7-4-2-1-4-2v1l-2-2a48 48 0 0 1-6-3h1l-3-1-3-2a8 8 0 0 0-2-1l-2-1h1a4 4 0 0 1-2 0 5 5 0 0 0-2-1 3 3 0 0 0-1-1 6 6 0 0 1-2-1l-1-1a9 9 0 0 0 2 1l-1 1a12 12 0 0 1-1-2l-1-2a3 3 0 0 1-1 0 5 5 0 0 1 0-1 5 5 0 0 1-1-2s0-1 0 0h1v1a12 12 0 0 0 0 1 7 7 0 0 0 0-1v-1a18 18 0 0 1-1-3 29 29 0 0 1 0-5 1 1 0 0 0 0-1 6 6 0 0 1 0 1v-3-1-9-13a6 6 0 0 1 0-2v-1l1-1a10 10 0 0 0-1-2 6 6 0 0 1 1-3 8 8 0 0 1 0-1v-1a1 1 0 0 0 1-1 11 11 0 0 1 1-2l1-1 2-1H5h1l-1 1a8 8 0 0 0-1 1 7 7 0 0 1 1 0 3 3 0 0 1-1 1 9 9 0 0 0-1 1H2v1c0 1 0 0 0 0v4a9 9 0 0 0-1 2c1-1 0 2 1 2v4a13 13 0 0 0 0 1l-1 2h1s0 2-1 1l1 1-1 2 1 1c0 1 0 0 0 0zm1 28zm1 2a6 6 0 0 1 0-1v1zm-3-4v1a5 5 0 0 1 0-1zM1 72v1zM49 0zM34 92z" fill="#202020"/>
  <path d="M37 6v1a1 1 0 0 1 0-1zM32 9v1a8 8 0 0 1 0-1zM28 11zM91 21c1 0 0 0 0 0zM73 11zM100 39zM74 12a6 6 0 0 1-1-1 7 7 0 0 1 1 1zM11 20zM11 20zM10 20h1a1 1 0 0 1-1 0zM16 17h0zM18 17a12 12 0 0 1-1 0h1zM24 12l-1 1 1-1zM28 10c1 0 1 0 0 0zM59 3c1 0 0 0 0 0zM65 7h-1V6l1 1zM69 7h-1l1 1V7zM102 46l-1-1 1 1zM101 70a3 3 0 0 1 0 1v-1zM39 96l1 1-1-1z" fill="#202020"/>
  <path d="M94 39v6l-1 3v3l-1 2-1 2-2 2-1 1-2 1-3 3-1 1h-1l-1 1-2 2-1 1v1l-1 1v4a19 19 0 0 0 0 2 4 4 0 0 0 1 1 3 3 0 0 1 0 1h-3l-1 1h-2l-2 1-1 1h-1a7 7 0 0 0 0-2l-2-1h-4a3 3 0 0 1 1-1 9 9 0 0 1 2-1 8 8 0 0 1 1 0h2l1-1h1l2-1a5 5 0 0 0 1-1 11 11 0 0 0 0-2l1-2a13 13 0 0 0-1-2v-1a10 10 0 0 0-1-2h-1a10 10 0 0 0-2-1h-1a5 5 0 0 0-1 0 5 5 0 0 0-1 0 4 4 0 0 0-1 2l-1 1v2l-1 1a11 11 0 0 0 0 2v1a6 6 0 0 0 1 1 1 1 0 0 1 0 1h-2a16 16 0 0 0-1 0 5 5 0 0 0-2 0v1a17 17 0 0 0-1 1 7 7 0 0 1-2 1 6 6 0 0 0 0-3l-1 1h-2v1h-2v-2a7 7 0 0 1 1-1l1-1 1-1a7 7 0 0 1 2 0h1a5 5 0 0 0 1-1l2-2v-1-2-3a11 11 0 0 0-2-2h-1l-3-1h-2l-2-1-2-1-2-2-2-1-2-1-1-2-2-2-2-2-1-1a6 6 0 0 0-1-1h-4l-2 2h-2-2l-3 1a26 26 0 0 0-3 0 8 8 0 0 0-2 1l-1 2-3 5-1 2-1 1-1 4-1 2-1 6-2 2v-2-3-3l1-3 1-3 1-3 1-2 2-3 1-2 2-3a4 4 0 0 0 1 0v-4l-1-6a19 19 0 0 1 1-3 10 10 0 0 1 2-2 17 17 0 0 1 3-3h1l2-1h13a14 14 0 0 0 2-1l3-2 2-2 3-1 3-2 3-1 4-1h14l4 1 3 1 3 1 3 2 3 2 4 2 1 2 1 2 1 5 1 5z"/>
  <path d="M94 39l-1 1v-1zM94 42c0 1 0 2-1 1l1-1v-1-1a6 6 0 0 1 0 2c0 1 0 0 0 0zM70 79zM71 64zM66 62h1a1 1 0 0 0-1 0zM70 79l-1 1 1-1zM93 49zM76 72a1 1 0 0 1 0-1zM81 64a1 1 0 0 0 0-1v1zM93 52v-1zM75 78zM90 28zM94 39zM63 70c0-1 0-1 0 0zM17 49c1-1 0 0 0 0s1-1 0 0zM93 49v0zM17 49v-1zM50 73zM60 74zM57 69v-1 1zM59 61zM67 17s1 0 0 0zM93 49zM58 70a5 5 0 0 0 1-2 5 5 0 0 1-1 2zM15 40zM60 64a6 6 0 0 1 0-1z" fill="#20eb25"/>
  <path d="M76 19l-1-1h-1l-2-1v1a8 8 0 0 0-1-1h-1a13 13 0 0 1-3 0v-1h-1a1 1 0 0 1 1 0h-1l1 1a32 32 0 0 0-4-1h3l-1 1h-2v-1a3 3 0 0 0-2 0s1 0 0 0l-4 1h-1a7 7 0 0 0-1 0l-2 1h1-2l-2 1h-1l-3 2-2 1a21 21 0 0 0-2 1l-3 3h-1s-1 0 0 0h-1a5 5 0 0 1-1 1h1-2l-2-1a28 28 0 0 0-4 1l-3-1h1a21 21 0 0 0-5 1h-1a4 4 0 0 0-1 1 11 11 0 0 0-2 1 2 2 0 0 0 0 1 4 4 0 0 0-1 0l-1 2a7 7 0 0 0 0 1l-1 1v5a10 10 0 0 0 1 3v2a8 8 0 0 1-1 1 4 4 0 0 1 0 1v-1 1c0 1 0 0 0 0h-1a14 14 0 0 1-1 2l-1 1a24 24 0 0 0-2 3l-1 4v-1l-1 1h1-1 1l-1 1v3l-1 1v2l-1 2v2H5v1l1 1v1a5 5 0 0 0 0 1 1 1 0 0 0-1 1 1 1 0 0 0 0-1 9 9 0 0 0 1-2v-1l1-3v0a32 32 0 0 0 1-4l1-3a14 14 0 0 1 2-2l1-2v-1a26 26 0 0 0 2-3 12 12 0 0 1 1-1 14 14 0 0 1 1-1 4 4 0 0 1 1-1 5 5 0 0 1 0-1 2 2 0 0 1 1 0h5a11 11 0 0 0 2 0l1-1-1 1a5 5 0 0 0 2-1l2-1 2-1h1a6 6 0 0 1 1 0 3 3 0 0 1 1 0h1a8 8 0 0 1 0 1 6 6 0 0 1 1 1l1 1 2 3 3 2h-1l3 2 2 1a12 12 0 0 0 1 1l2 1 2 1h1a3 3 0 0 1 1 1h1l2 1v-1a5 5 0 0 0 1 1h1a10 10 0 0 1 2 1v3l-1 3v1a4 4 0 0 1 0 1 5 5 0 0 1-1 1v1c0 1 0 0 0 0h-1v1a4 4 0 0 1-1 0l-1-1v1h-1a3 3 0 0 0-2 1v1a3 3 0 0 0-1 1v1a1 1 0 0 0-1 0l1-1a8 8 0 0 1 1 0l1-1h1-1l-2 1 2-1h2a10 10 0 0 1 1 2 5 5 0 0 1 0 1h-1v-1 1a1 1 0 0 1 1 0h-1v-1a8 8 0 0 0 1 0l1-2h1a4 4 0 0 1 0-1 5 5 0 0 1 2 0h2a2 2 0 0 0-1 0h1v1a1 1 0 0 0 1 0v-1a4 4 0 0 0-1 0c0-1 0-1 0 0v-2 1a6 6 0 0 1 0-2 4 4 0 0 1 0-1 24 24 0 0 0 1-3v1a26 26 0 0 1 1-3 7 7 0 0 1 0-1 3 3 0 0 1 1 0l1-1a4 4 0 0 1 1 0c-1 0 0 0 0 0h2a7 7 0 0 1 0 1h1l1 1a10 10 0 0 1 1 0v1l-1-1v1a2 2 0 0 1 1 1l1 1v1a6 6 0 0 1 0 1c0 1 0 0 0 0a8 8 0 0 0 0 2 6 6 0 0 1-1 2h1-1a1 1 0 0 0 0 1l-1 1a2 2 0 0 0 0-1 13 13 0 0 1-5 2h1l-4 1a1 1 0 0 0-1 0 1 1 0 0 0 0 1h-1 2a5 5 0 0 1 2 0h-1 1a5 5 0 0 1 1 0 4 4 0 0 1 1 1v1h1v1h-1 1v-1l2-1a9 9 0 0 1 1 0h1a10 10 0 0 1 2-1h3l-1-1a4 4 0 0 1 0-1l-1-1v-2l1 1a7 7 0 0 0 0-2l-1-1h1a1 1 0 0 0 0-1l1-2 1-1a5 5 0 0 0 1-1l-1 1a7 7 0 0 1 1-1 9 9 0 0 1 1-2l-1 1 4-3c-1 1 0 0 0 0l2-2h1c1-1 0 0 0 0a10 10 0 0 0 2-1 19 19 0 0 1 2-3 14 14 0 0 0 1-1 14 14 0 0 0 1-2c1-1 0 0 0 0l1-1v-1-1-1a3 3 0 0 0 0 1l1-3-1 1 1-2a4 4 0 0 1 0-1v1c0-1 0 0 0 0v1l-1 3v1s0 1 0 0a3 3 0 0 1 0 1v1h-1 1l-2 3-1 1-1 1v1h-1l-2 2h-1l-2 2h1l-3 1-1 1v1l-1 1a8 8 0 0 1-1 1 16 16 0 0 0-1 2l-1 3v-1 1a4 4 0 0 0 0 1v2a3 3 0 0 0 1 1v1a5 5 0 0 1 0 1h-1a3 3 0 0 0 1 0 3 3 0 0 1-1 0 3 3 0 0 0-1 0h-2a1 1 0 0 0-1 1 7 7 0 0 0-1 0h-1l-2 1h-1a4 4 0 0 0 0-1l-1-1a6 6 0 0 0-1 0 2 2 0 0 0-1 0h-1a5 5 0 0 1-1 0 2 2 0 0 1-1 0v-1-1a2 2 0 0 1 1-1h1-1 1l1-1a6 6 0 0 1 1 0h2-1a12 12 0 0 0 2 0 7 7 0 0 0 0-1h2a2 2 0 0 0 1 0 3 3 0 0 0 0-1 4 4 0 0 0 1-2v1a16 16 0 0 0 0-3v-1a4 4 0 0 0-1-2v-1s-1 0 0 0q0 1 0 0v1l-1-1c-1 0 0-1 0 0-1-1 0-1 0 0l-1-1a12 12 0 0 0-2-1h-1a1 1 0 0 0-1 0 1 1 0 0 0 0 1l-1 1a1 1 0 0 0 1 0 13 13 0 0 0-1 3v-1a9 9 0 0 0 0 1l-1 1s0-1 0 0a5 5 0 0 0 0 1v0a5 5 0 0 0 0 1s0 1 0 0v2a2 2 0 0 1 1 0 1 1 0 0 1 0 1 1 1 0 0 1-1 1 2 2 0 0 0 1-1c0-1 0-1 0 0a2 2 0 0 1-1 0 1 1 0 0 1 0 1 3 3 0 0 1-2 0 6 6 0 0 0-1-1c-1 0 0 0 0 0h-1a3 3 0 0 0 0 1h-1a8 8 0 0 1 0 1h-1l-1 2a1 1 0 0 1-1 0 1 1 0 0 1-1-1 1 1 0 0 0 0-1h1a2 2 0 0 0 0 1 1 1 0 0 0 0 1 1 1 0 0 0 1 0 5 5 0 0 0 1-1h-1v1a1 1 0 0 1-1 0 1 1 0 0 1 0-1 1 1 0 0 0 0 1 1 1 0 0 0 1 0 2 2 0 0 0 0-1 5 5 0 0 0 1 0h-1a2 2 0 0 1 0 1 1 1 0 0 1-1 0 1 1 0 0 1 0-1 3 3 0 0 0 0-2h-1 0l-1 1a5 5 0 0 0-1 0l-1 1a1 1 0 0 1-1 0 1 1 0 0 1 0-1 5 5 0 0 1 0-1v-1l1-1a4 4 0 0 1 1-1 6 6 0 0 1 1-1l3-1h-1 2v-1a1 1 0 0 0 1 0v-1-1a14 14 0 0 1 1-1v-3a7 7 0 0 0 0-1 14 14 0 0 0-1-1h-2l-3-2 1 1-2-1h-1a6 6 0 0 0-1 0l-3-2-4-3v0l-2-1 1 1-2-2a6 6 0 0 1-1 0v-1a13 13 0 0 0-2-2h1l-2-1-1-1v-1a5 5 0 0 0-1-1 1 1 0 0 0-1 0 1 1 0 0 1 1 0 7 7 0 0 1 0 1 7 7 0 0 1 1 1 6 6 0 0 0-1-1v-1a2 2 0 0 0 0 1 3 3 0 0 0 0-1 1 1 0 0 0-1 0 4 4 0 0 0-1 0h-1c1 1-3 2-4 3h-4l-5 1h0a4 4 0 0 0-1 1h-1a6 6 0 0 0 0 1c0 1 0 0 0 0a2 2 0 0 0 0 1 1 1 0 0 1 0 1l-1 1v-2l-2 4 1-1-2 2a21 21 0 0 1-1 3v-1a3 3 0 0 1 0 1l-1 2v1l-1 1a26 26 0 0 0-1 4v-1a6 6 0 0 0 0 2 12 12 0 0 0-1 2l1-1a10 10 0 0 1-1 2 5 5 0 0 1 0 1 3 3 0 0 1-1 0 3 3 0 0 1 0 1 1 1 0 0 1-1 0 1 1 0 0 1 0-1 1 1 0 0 1-1 0 6 6 0 0 1 0-1v-2-3a41 41 0 0 1 1-4 11 11 0 0 1 1-2v-2a14 14 0 0 1 1-2v-1a9 9 0 0 1 1-1l2-5c0 1 0 1 0 0l1-1a9 9 0 0 1 2-3 5 5 0 0 0 1-1l-1-7v-1l1-1a22 22 0 0 1 0-3 10 10 0 0 1 2-2h-1a3 3 0 0 1 2-1 5 5 0 0 0 1-1 10 10 0 0 1 2-1 15 15 0 0 1 1-1 15 15 0 0 1 4-1h-1 8a9 9 0 0 0 2 1v-1a3 3 0 0 1 1 0 4 4 0 0 0 1 0 2 2 0 0 1 1 0 6 6 0 0 0 2-2 3 3 0 0 0 2 0h-1a19 19 0 0 1 2-2h1a7 7 0 0 0 1-1l-1 1h-1a7 7 0 0 0 0 1v-1l4-2 1-1a8 8 0 0 1 2-1v1h-1l-1 1a5 5 0 0 0 2-1 8 8 0 0 1 1 0l2-1 3-1a10 10 0 0 1 3 0 1 1 0 0 0 1-1h-1 5-1a22 22 0 0 1 5 1h3a12 12 0 0 1 1 0h2a2 2 0 0 0-1 0l4 1h1v1h2l4 2 1 1 2 1a7 7 0 0 1 1 1h1l1 1v1a2 2 0 0 1 1 0l1 1a11 11 0 0 1 2 3h-1 1a1 1 0 0 1 0 1v4l1 3v2l-1-1v-2 1a3 3 0 0 1 0-2 1 1 0 0 1-1 0l1-2h-1v-1-1-1l-2-2a9 9 0 0 0-1-2c1 0 0 0 0 0l1-1-1 1-1-1-4-3a1 1 0 0 0 0 1 7 7 0 0 0-1-1l-2-2v1l-1-1h-1l-2-1h-1c-1 0 0 0 0 0zm-30 2v-1zm-3 1a5 5 0 0 1 1-1l-1 1zm5-4h-1 1zM49 18h-1zM70 79zM15 37zM76 70zM79 65v-1 1zM82 61h1-1zM61 72c-1 0 0 0 0 0z" fill="#20eb25"/>
  <path d="M73 66a7 7 0 0 0-1 0h1zM58 70zM72 64a7 7 0 0 1 0 2 9 9 0 0 1 0-2zM93 45zM93 45v-1a1 1 0 0 1 0 1zM94 44zM92 51zM91 53a12 12 0 0 1 1-2l-1 2zM87 59l1-1v1h-1zM83 63c0-1 0 0 0 0-1 0-1 0 0 0zM61 76c1-1 0 0 0 0zM69 75a2 2 0 0 1-1 0 5 5 0 0 0 1 0zM71 72a5 5 0 0 0 0-1v1zM59 62c0 1-1 1 0 0zM37 49a4 4 0 0 1-1-2l1 2zM14 44l-1 1a2 2 0 0 1 1-1z" fill="#20eb25"/>
</svg>
